<?xml version="1.0" standalone="no"?>
<!DOCTYPE svg PUBLIC "-//W3C//DTD SVG 1.1//EN" "http://www.w3.org/Graphics/SVG/1.1/DTD/svg11.dtd" >
<svg xmlns="http://www.w3.org/2000/svg" xmlns:xlink="http://www.w3.org/1999/xlink" version="1.1">
<metadata>
Created by FontForge 20200427 at Wed Aug 22 16:36:39 2012
 By www
(c) Copyright: Gerard Unger, 1996-2011, published by TypeTogether. This software is licensed, not sold. Unauthorised use strictly prohibited. Capitolium, Capitolium News are trademarks of Gerard Unger, that may be registered in some jurisdictions. ALL RIGHTS RESERVED.
</metadata>
<defs>
<font id="CapitoliumW01-2Bold" horiz-adv-x="500" >
  <font-face 
    font-family="CapitoliumW01-2Bold"
    font-weight="700"
    font-variant="small-caps"
    font-stretch="normal"
    units-per-em="1000"
    panose-1="2 0 8 3 8 0 0 2 0 4"
    ascent="740"
    descent="-260"
    x-height="465"
    cap-height="658"
    bbox="-63 -272 1171 870"
    underline-thickness="50"
    underline-position="-150"
    unicode-range="U+0002-2122"
  />
<missing-glyph horiz-adv-x="190" 
 />
    <glyph glyph-name=".notdef" horiz-adv-x="190" 
 />
    <glyph glyph-name="glyph1" 
 />
    <glyph glyph-name="uni000D" unicode="&#xd;" horiz-adv-x="0" 
 />
    <glyph glyph-name="glyph224" 
 />
    <glyph glyph-name="glyph224" 
 />
    <glyph glyph-name="uni0002" horiz-adv-x="0" 
 />
    <glyph glyph-name="uni0009" unicode="&#x9;" horiz-adv-x="0" 
 />
    <glyph glyph-name="uni000A" unicode="&#xa;" horiz-adv-x="0" 
 />
    <glyph glyph-name="space" unicode=" " horiz-adv-x="190" 
 />
    <glyph glyph-name="exclam" unicode="!" horiz-adv-x="370" 
d="M280 588q0 -18 -1 -29.5t-2 -23.5q-4 -41 -13 -98.5t-19 -111.5q-11 -62 -25 -129h-50q-14 67 -25 129q-10 54 -19 111.5t-13 98.5q-1 12 -2 23.5t-1 29.5q0 17 3.5 32t13.5 26.5t26 18t42 6.5q25 0 41.5 -6.5t26.5 -18t13.5 -26.5t3.5 -32zM276 67q0 -41 -25.5 -60
t-55.5 -19q-14 0 -28.5 4.5t-26 13.5t-19 24t-7.5 36q0 41 25.5 60t56.5 19q14 0 28 -4.5t25.5 -13.5t19 -24t7.5 -36z" />
    <glyph glyph-name="quotedbl" unicode="&#x22;" horiz-adv-x="356" 
d="M307 671q0 -9 -1 -19.5t-3 -21.5l-31 -217h-29l-31 217q-2 11 -3 21t-1 20q0 22 14 31.5t36 9.5q21 0 35 -9t14 -32zM148 671q0 -9 -1 -19.5t-3 -21.5l-31 -217h-29l-31 217q-2 11 -3 21t-1 20q0 22 14 31.5t36 9.5q21 0 35 -9t14 -32z" />
    <glyph glyph-name="numbersign" unicode="#" horiz-adv-x="632" 
d="M590 407h-105l-32 -164h105l-15 -73h-105l-33 -170h-88l33 170h-129l-33 -170h-88l33 170h-105l14 73h105l32 164h-105l14 73h105l33 171h88l-33 -171h129l34 171h88l-33 -171h105zM267 407l-32 -164h129l33 164h-130z" />
    <glyph glyph-name="dollar" unicode="$" horiz-adv-x="484" 
d="M444 185q0 -83 -48.5 -127.5t-128.5 -57.5v-62h-46v57q-7 -1 -14 -1h-15q-35 0 -79 5t-79 16v16q0 35 -1 61t-3 48h21q3 -23 11 -41.5t24 -30.5q20 -17 47.5 -22t53.5 -5q9 0 17.5 0.5t16.5 1.5v226l-56 35q-27 17 -49 34.5t-37.5 39t-24 48t-8.5 62.5q0 17 5.5 43
t23.5 51.5t52.5 47t93.5 29.5v54h46v-50h11q34 0 62.5 -2t48.5 -4q24 -3 43 -5q-1 -7 -2 -15t-1 -17.5v-21.5v-35t1 -22q0 -10 1 -15h-21q-3 35 -27 59q-20 20 -49 26t-53 6h-14v-212l47 -28q30 -18 54.5 -36t41 -40t25.5 -50t9 -66zM221 609q-36 -14 -46.5 -38t-10.5 -47
q0 -33 15 -53t42 -39v177zM320 146q0 37 -15 57t-38 37v-184q19 10 29.5 22t15.5 24.5t6.5 24t1.5 19.5z" />
    <glyph glyph-name="percent" unicode="%" horiz-adv-x="676" 
d="M340 508q0 -71 -41.5 -113.5t-113.5 -42.5q-71 0 -112.5 41t-41.5 109q0 71 41.5 114t113.5 43q71 0 112.5 -41.5t41.5 -109.5zM103 0h-82l552 648h82zM645 145q0 -71 -41.5 -113.5t-113.5 -42.5q-71 0 -112.5 41t-41.5 109q0 71 41.5 114t113.5 43q71 0 112.5 -41.5
t41.5 -109.5zM267 507q0 49 -25 72t-56 23t-56.5 -23t-25.5 -75q0 -25 7 -43t18 -29.5t26 -17t30 -5.5t30 5.5t26.5 17.5t18.5 30.5t7 44.5zM572 144q0 49 -25 72t-56 23t-56.5 -23t-25.5 -75q0 -25 7 -43t18 -29.5t26 -17t30 -5.5t30 5.5t26.5 17.5t18.5 30.5t7 44.5z" />
    <glyph glyph-name="ampersand" unicode="&#x26;" horiz-adv-x="709" 
d="M701 385q-37 -3 -52 -22q-8 -10 -12.5 -25t-7.5 -44q-4 -43 -14 -74t-21.5 -52t-22.5 -34t-18 -19l31 -33q23 -24 44.5 -43.5t42.5 -23.5v-17q-23 2 -56.5 2.5t-56.5 0.5h-14t-22 -0.5t-23 -1t-17 -0.5l-36 38q-17 -11 -39 -19t-46 -13t-48 -7.5t-44 -2.5q-15 0 -38.5 1
t-50 6.5t-53.5 16.5t-48.5 30.5t-35 49.5t-13.5 73q0 23 6.5 46t22.5 44.5t42.5 41t67.5 34.5l-24 26q-29 31 -47.5 65t-18.5 80q0 72 49.5 111.5t137.5 39.5q91 0 139 -33t48 -107q0 -46 -18.5 -75.5t-42 -46.5t-44.5 -24.5t-26 -8.5l206 -224q10 13 22.5 47t12.5 83
q0 29 -4.5 50t-18.5 38q-11 12 -26 19t-35 7v18q21 -2 50.5 -2.5t50.5 -0.5h57.5t63.5 3v-18zM348 520q0 60 -21.5 81.5t-53.5 21.5q-23 0 -36.5 -7.5t-21.5 -19t-10.5 -25.5t-2.5 -27q0 -22 5.5 -39t15.5 -32.5t23.5 -29.5t28.5 -30l31 -32q9 9 17 24t13.5 34t8.5 40t3 41z
M188 318q-20 -27 -25.5 -59.5t-5.5 -52.5q0 -32 9.5 -60.5t29.5 -50.5t51.5 -34.5t76.5 -12.5q26 0 55 5.5t40 13.5z" />
    <glyph glyph-name="quotesingle" unicode="'" horiz-adv-x="197" 
d="M148 671q0 -9 -1 -19.5t-3 -21.5l-31 -217h-29l-31 217q-2 11 -3 21t-1 20q0 22 14 31.5t36 9.5q21 0 35 -9t14 -32z" />
    <glyph glyph-name="parenleft" unicode="(" horiz-adv-x="366" 
d="M244 -272q-59 45 -99.5 103.5t-66 124.5t-37 136t-11.5 138t11.5 138.5t37 136.5t66 124.5t99.5 103.5l52 -56q-49 -39 -83.5 -90t-56.5 -109t-32 -121t-10 -126t10 -126t32 -121t56.5 -109t83.5 -90z" />
    <glyph glyph-name="parenright" unicode=")" horiz-adv-x="366" 
d="M336 230q0 -68 -11.5 -138t-37 -136t-66.5 -124.5t-99 -103.5l-52 57q48 39 82.5 90t56.5 109t32.5 121t10.5 126t-10.5 126t-32.5 121t-56.5 109t-82.5 90l52 56q58 -45 99 -103.5t66.5 -124.5t37 -136.5t11.5 -138.5z" />
    <glyph glyph-name="asterisk" unicode="*" horiz-adv-x="388" 
d="M336 439l-101 90l32 -137h-101l32 137l-101 -90l-47 77l133 42l-133 42l47 77l101 -89l-32 136h101l-32 -136l101 89l47 -77l-133 -42l133 -42z" />
    <glyph glyph-name="plus" unicode="+" horiz-adv-x="550" 
d="M307 276v-231h-65v231h-219v62h219v231h65v-231h220v-62h-220z" />
    <glyph glyph-name="comma" unicode="," horiz-adv-x="238" 
d="M208 44q0 -63 -35 -119t-102 -88l-12 13q25 28 37.5 55.5t12.5 61.5q0 20 -8 28.5t-17 13.5q-34 22 -34 62q0 34 22 53t54 19q7 0 21 -2.5t27.5 -12.5t23.5 -30t10 -54z" />
    <glyph glyph-name="hyphen" unicode="-" horiz-adv-x="239" 
d="M10 203v83h219v-83h-219z" />
    <glyph glyph-name="period" unicode="." horiz-adv-x="241" 
d="M211 66q0 -31 -19.5 -54.5t-61.5 -23.5t-61 23.5t-19 55.5q0 31 19.5 54.5t61.5 23.5t61 -23.5t19 -55.5z" />
    <glyph glyph-name="slash" unicode="/" horiz-adv-x="286" 
d="M80 -268h-80l187 1000h79z" />
    <glyph glyph-name="zero" unicode="0" horiz-adv-x="560" 
d="M525 237q0 -53 -16.5 -99t-48.5 -79.5t-79 -52.5t-107 -19q-59 0 -103.5 19.5t-74.5 52.5t-45.5 78t-15.5 96q0 53 17 99t49 79.5t78.5 52.5t106.5 19q58 0 102.5 -19.5t75 -52.5t46 -78t15.5 -96zM383 234q0 49 -4.5 88t-16.5 66t-32 41.5t-51 14.5q-30 0 -49.5 -14
t-31 -41t-16.5 -65.5t-5 -87.5q0 -105 22 -158t82 -53q59 0 80.5 53t21.5 156z" />
    <glyph glyph-name="one" unicode="1" horiz-adv-x="355" 
d="M330 -2q-15 1 -32 1.5t-35 1t-34.5 0.5h-29.5q-26 0 -63.5 -0.5t-66.5 -2.5v18q10 0 24 4.5t25 17.5q6 7 10 16.5t5.5 24.5t2 37.5t0.5 54.5v174q0 19 -19 19q-20 0 -46 -5t-61 -10v32q37 12 79.5 26t84.5 31q52 20 88 47l11 -5q-3 -48 -5 -104t-2 -134v-101
q0 -47 2.5 -68t10.5 -32q2 -2 13 -12.5t38 -12.5v-18z" />
    <glyph glyph-name="two" unicode="2" horiz-adv-x="451" 
d="M406 159q-2 -18 -3 -45t-1 -53v-61h-384v41q13 10 29.5 22.5t34 26.5l35 28t31.5 28q43 40 67.5 79t24.5 93q0 18 -5 35.5t-16.5 31t-30 22t-45.5 8.5q-23 0 -39.5 -6t-28 -14t-17.5 -15.5t-9 -10.5l-18 15q17 35 41 55t49.5 30t48 12.5t36.5 2.5q53 0 87 -14t53.5 -35
t27 -46.5t7.5 -47.5q0 -52 -26 -89.5t-80 -77.5q-26 -19 -59.5 -39.5t-84.5 -43.5h87q37 0 61.5 1t39.5 3t24 5t16 8q10 7 18.5 19.5t10.5 31.5h18z" />
    <glyph glyph-name="three" unicode="3" horiz-adv-x="419" 
d="M385 -6q0 -26 -9 -60t-34.5 -64.5t-71.5 -51.5t-121 -21q-22 0 -46 3t-46.5 8t-42.5 13t-33 19l10 24q8 -3 21 -6q11 -2 29 -4t44 -2q46 0 76.5 13.5t48.5 35.5t25.5 48.5t7.5 52.5q0 43 -13.5 70t-33.5 42t-42.5 20t-40.5 5h-16.5t-8.5 -0.5t-5 -1t-6 -0.5v46h11
q40 0 67 10t43.5 27t23.5 40t7 49q0 22 -5.5 41t-18.5 33.5t-33 23t-48 8.5q-29 0 -48 -7.5t-31 -16.5q-14 -11 -22 -23l-19 15q7 16 20.5 34t35 32.5t52 24t71.5 9.5q50 0 84 -13t55 -34t30 -48.5t9 -56.5q0 -48 -21 -79t-49.5 -50t-58.5 -27t-49 -10q32 0 67.5 -7.5
t65.5 -27t49.5 -52.5t19.5 -84z" />
    <glyph glyph-name="four" unicode="4" horiz-adv-x="521" 
d="M416 0v-202h-126v202h-281v69q13 21 38 54.5t57.5 73.5t69 82.5t71 80.5t65.5 68.5t51 46.5l62 -9q-4 -48 -5.5 -113t-1.5 -143v-111h84v-99h-84zM290 353q-3 -7 -9.5 -16.5t-22.5 -29.5l-164 -208h196v254z" />
    <glyph glyph-name="five" unicode="5" horiz-adv-x="467" 
d="M434 16q0 -53 -18.5 -94t-51.5 -68.5t-78.5 -42t-100.5 -14.5q-15 0 -35.5 2t-43 7t-44 13.5t-38.5 21.5l10 23q9 -3 23 -6q11 -2 29 -4t43 -2q35 0 65 8t52 27t34.5 49.5t12.5 74.5q0 30 -7.5 56.5t-24 47t-43 32.5t-64.5 12q-17 0 -27 -0.5t-17.5 -1.5t-14 -3t-15.5 -4
l-27 17l27 306h321v-106h-280l-12 -145q9 2 22 5q11 2 28 3.5t41 1.5q55 0 93.5 -12t64.5 -31t41 -43t23 -48t10 -45.5t2 -36.5z" />
    <glyph glyph-name="six" unicode="6" horiz-adv-x="572" 
d="M522 202q0 -54 -18 -93.5t-48.5 -65.5t-72 -38.5t-87.5 -12.5q-72 0 -119.5 23.5t-75.5 65t-39.5 98.5t-11.5 125q0 51 10.5 108.5t40.5 110.5q40 69 105.5 101t146.5 32q45 0 85.5 -10t72.5 -33l-10 -24q-11 3 -27 7q-14 2 -33 4.5t-44 2.5q-64 0 -104 -21.5t-63 -57.5
t-31.5 -83t-8.5 -98q13 15 32 26q17 10 42 18.5t60 8.5q47 0 83.5 -14t62 -39.5t39 -61.5t13.5 -79zM382 189q0 78 -24 115.5t-80 37.5q-40 0 -60.5 -11t-27.5 -16q0 -78 4 -132.5t15 -88.5t30 -49.5t49 -15.5q51 0 72.5 39.5t21.5 120.5z" />
    <glyph glyph-name="seven" unicode="7" horiz-adv-x="438" 
d="M212 -202h-128v17q15 22 37 60t46.5 86t51 102t51.5 108.5t47 106t38 93.5h-178q-38 0 -65.5 -3t-48.5 -21q-10 -9 -16 -23t-6 -34h-21q2 17 2.5 48t0.5 61v74h398v-63z" />
    <glyph glyph-name="eight" unicode="8" horiz-adv-x="537" 
d="M488 170q0 -81 -56 -130t-167 -49q-103 0 -159.5 41.5t-56.5 114.5q0 61 34 101.5t110 68.5l-39 27q-26 18 -42.5 37.5t-25.5 39.5t-12.5 39.5t-3.5 36.5q0 45 18 76t46.5 50.5t64.5 28t72 8.5q88 0 140 -38t52 -105q0 -54 -32 -91t-95 -54l50 -32q53 -34 77.5 -74
t24.5 -96zM360 512q0 40 -10.5 62t-24.5 32.5t-30 13t-26 2.5q-8 0 -22.5 -1.5t-29 -10t-25.5 -26.5t-11 -51q0 -41 19 -63.5t54 -45.5l60 -39q20 21 33 51t13 76zM371 130q0 36 -15 61.5t-59 55.5l-80 55q-35 -35 -46 -72t-11 -75q0 -69 28 -98t79 -29q29 0 49 9t32 23.5
t17.5 32.5t5.5 37z" />
    <glyph glyph-name="nine" unicode="9" horiz-adv-x="572" 
d="M522 171q0 -25 -2 -56t-8 -63.5t-15.5 -64t-24.5 -57.5q-40 -69 -104.5 -101t-148.5 -32q-45 0 -85.5 10t-72.5 33l10 24q11 -4 27 -7q14 -3 33 -5t44 -2q64 0 104 25t63 65t31.5 90.5t8.5 101.5q-14 -16 -33 -27q-17 -10 -41.5 -18t-59.5 -8q-47 0 -83.5 14t-62 39.5
t-39 61t-13.5 79.5q0 54 18 93.5t48.5 65.5t71.5 38.5t88 12.5q72 0 119.5 -23.5t75.5 -65t39.5 -99t11.5 -124.5zM382 160q0 78 -4 132.5t-15 88.5t-30 49.5t-49 15.5q-51 0 -72.5 -39.5t-21.5 -120.5q0 -78 24 -115.5t80 -37.5q20 0 35 3t25.5 7.5t17 9t10.5 7.5z" />
    <glyph glyph-name="colon" unicode=":" horiz-adv-x="241" 
d="M211 398q0 -31 -19.5 -54.5t-61.5 -23.5t-61 23.5t-19 55.5q0 31 19.5 54.5t61.5 23.5t61 -23.5t19 -55.5zM211 66q0 -31 -19.5 -54.5t-61.5 -23.5t-61 23.5t-19 55.5q0 31 19.5 54.5t61.5 23.5t61 -23.5t19 -55.5z" />
    <glyph glyph-name="semicolon" unicode=";" horiz-adv-x="241" 
d="M211 398q0 -31 -19.5 -54.5t-61.5 -23.5t-61 23.5t-19 55.5q0 31 19.5 54.5t61.5 23.5t61 -23.5t19 -55.5zM207 44q0 -63 -34.5 -119t-101.5 -88l-12 13q25 28 37.5 55.5t12.5 61.5q0 20 -8 28.5t-17 13.5q-34 21 -34 62q0 34 22 53t54 19q7 0 21 -2.5t27 -12.5t23 -30
t10 -54z" />
    <glyph glyph-name="less" unicode="&#x3c;" horiz-adv-x="550" 
d="M17 297v31l515 246v-70l-411 -191l411 -190v-71z" />
    <glyph glyph-name="equal" unicode="=" horiz-adv-x="550" 
d="M23 396v63h504v-63h-504zM23 183v63h504v-63h-504z" />
    <glyph glyph-name="greater" unicode="&#x3e;" horiz-adv-x="550" 
d="M17 52v71l411 190l-411 191v70l515 -246v-31z" />
    <glyph glyph-name="question" unicode="?" horiz-adv-x="456" 
d="M421 516q0 -43 -14.5 -73.5t-39 -56.5t-56 -52t-65.5 -59q-7 -7 -12 -13.5t-8 -15t-4.5 -21t-1.5 -32.5h-54q0 8 -0.5 15.5t-0.5 25.5q0 13 1.5 26t5.5 24q9 24 25 47t31.5 49t27.5 56t12 68q0 57 -23.5 85.5t-74.5 28.5q-25 0 -47.5 -7t-38.5 -31q-4 -6 -10.5 -20.5
t-7.5 -35.5h-21q1 17 1.5 33t0.5 36q0 11 -0.5 22t-0.5 19q-1 10 -1 18q22 2 47 5q21 2 47.5 4t53.5 2q29 0 68 -3.5t74.5 -18t60.5 -44t25 -81.5zM275 66q0 -31 -19.5 -54.5t-61.5 -23.5t-61 23.5t-19 55.5q0 31 19.5 54.5t61.5 23.5t61 -23.5t19 -55.5z" />
    <glyph glyph-name="at" unicode="@" horiz-adv-x="846" 
d="M816 303q0 -148 -77 -230t-223 -82q-43 0 -60.5 11.5t-17.5 41.5q0 4 0.5 10t1.5 11q1 6 2 13q-36 -48 -68.5 -67t-72.5 -19q-19 0 -37 8.5t-31.5 27t-22 48t-8.5 71.5q0 18 1.5 41.5t5.5 48.5t11 51.5t18 50.5q26 55 68 89t107 34q38 0 64 -11t32 -17l94 32l11 -9
q-5 -19 -11 -52t-12.5 -72.5t-13 -80.5t-12 -77.5t-8.5 -63.5t-3 -37q0 -9 4 -18.5t27 -9.5q24 0 48 15.5t42.5 47t30 78t11.5 108.5q0 66 -22.5 115.5t-60.5 82t-88 48.5t-105 16q-71 0 -123 -17t-88 -45t-59 -63.5t-35.5 -73t-17 -74t-4.5 -65.5q0 -73 18 -133.5
t57 -104.5t100.5 -68.5t149.5 -24.5q80 0 138 13.5t106 33.5l9 -18q-29 -27 -65.5 -46.5t-75.5 -31.5t-77 -17.5t-70 -5.5q-77 0 -135 17.5t-99.5 46.5t-68.5 67.5t-43 79.5t-22 83t-6 79q0 12 1.5 40.5t8.5 65.5t22 79t43 83t71 76.5t105 59.5q72 28 165 28q90 0 152 -20.5
t103.5 -52.5t64.5 -70.5t34 -74t13.5 -63t2.5 -37.5zM488 403q-6 2 -14 3t-19 1q-24 0 -48 -10.5t-44 -48.5q-10 -19 -17 -45t-12 -53t-7.5 -52t-2.5 -43q0 -14 1.5 -28.5t6.5 -26.5t15 -19.5t28 -7.5q11 0 22 5t20 11t16 11.5t9 7.5z" />
    <glyph glyph-name="A" unicode="A" horiz-adv-x="598" 
d="M613 -2q-11 1 -28 1.5t-35 1t-34.5 1t-27.5 0.5t-29 -0.5t-37.5 -1t-37.5 -1t-29 -1.5v18q18 0 29.5 3.5t17.5 8.5q9 7 9 22q0 9 -3.5 22.5t-11.5 34.5l-48 138h-187l-51 -139q-8 -21 -12 -34t-4 -23q0 -14 8 -21q8 -8 21.5 -9.5t24.5 -2.5v-18q-26 2 -47 3t-48 1
q-24 0 -46.5 -1t-46.5 -3v18q21 -1 32.5 10.5t16.5 18.5q6 9 17.5 35.5t31.5 73.5l208 504l73 13l180 -508q19 -52 31.5 -83t15.5 -36q5 -7 15.5 -18t31.5 -10v-18zM287 423q-8 23 -13.5 40.5t-8.5 28.5q-4 13 -5 21l-83 -224h156z" />
    <glyph glyph-name="B" unicode="B" horiz-adv-x="594" 
d="M559 181q0 -36 -13.5 -68.5t-42.5 -58.5q-20 -18 -44 -29t-50.5 -17t-55.5 -8t-58 -2q-38 0 -79 1.5t-75 1.5q-53 0 -111 -3v18q10 0 24 4.5t25 17.5q6 7 10 16.5t5.5 24.5t2 37.5t0.5 54.5v344q0 47 -3 68t-10 32q-6 8 -18.5 15.5t-32.5 9.5v18q58 -3 111 -3q25 0 61 1
t70 1q37 0 82 -2.5t83.5 -16.5t64.5 -44t26 -84q0 -37 -11.5 -62.5t-29.5 -43.5t-39 -28.5t-39 -16t-31 -7.5t-15 -2q41 -3 76.5 -12.5t61.5 -29t40.5 -50.5t14.5 -77zM389 496q0 45 -12 70t-29 36.5t-36.5 14t-34.5 2.5q-21 0 -33 -1t-14 -2v-247q6 -1 14 -1q7 -1 15.5 -1
h19.5q22 0 35.5 2.5t22.5 7.5q27 14 39.5 46t12.5 73zM415 183q0 41 -10.5 68.5t-29 44t-44 23.5t-55.5 7q-10 0 -18.5 -0.5t-14.5 -0.5h-13v-238q0 -24 6 -34.5t20 -12.5q8 -2 20 -2h17q28 0 50.5 7.5t38.5 25t24.5 45t8.5 67.5z" />
    <glyph glyph-name="C" unicode="C" horiz-adv-x="595" 
d="M544 526q0 20 -7.5 34t-19.5 24t-26.5 16.5t-30.5 10t-30.5 4.5t-26.5 1q-22 0 -47 -2.5t-50 -12.5t-47.5 -28.5t-40 -51t-28 -80.5t-10.5 -116q0 -63 11.5 -115t38 -89.5t70 -58t106.5 -20.5q27 0 59 6.5t52 30.5q21 23 21 61h21q-2 -22 -3 -47t-1 -60v-17
q-17 -6 -38 -10t-43.5 -6.5t-45.5 -4t-42 -1.5q-95 0 -170.5 27.5t-122.5 85.5q-30 38 -46.5 89t-16.5 117q0 65 17.5 118t47.5 94t71.5 70t89.5 46q19 7 40 11t41 6.5t38.5 3.5t32.5 1q29 0 56 -1.5t48 -4t35.5 -4t17.5 -1.5q-2 -14 -2 -30.5v-31.5q0 -20 0.5 -37t1.5 -27
h-21z" />
    <glyph glyph-name="D" unicode="D" horiz-adv-x="704" 
d="M674 346q0 -88 -23 -147.5t-58 -97t-75.5 -57.5t-75.5 -30q-23 -7 -64 -11.5t-99 -4.5q-38 0 -68.5 1.5t-64.5 1.5q-26 0 -56.5 -0.5t-59.5 -2.5v18q10 0 24 4.5t25 17.5q6 7 10 16.5t5.5 24.5t2 37.5t0.5 54.5v344q0 47 -3 68t-10 32q-6 8 -18.5 15.5t-32.5 9.5v18
q11 -1 28 -2q14 -1 34.5 -1h48.5q24 0 67 1t97 1q22 0 58 -2t77 -11.5t82 -28.5t74 -53.5t54 -87t21 -128.5zM524 332q0 95 -22 150.5t-55 84t-71 36.5t-70 8q-20 0 -33.5 -0.5t-21.5 -1.5q-10 -1 -16 -1v-511q0 -22 4 -33.5t20 -16.5q8 -2 19.5 -2.5t28.5 -0.5
q57 0 98 15.5t67.5 50t39 89.5t12.5 133z" />
    <glyph glyph-name="E" unicode="E" horiz-adv-x="524" 
d="M479 140q-2 -17 -2.5 -41t-0.5 -46v-53h-280h-83t-83 -2v18q10 0 24 4.5t25 17.5q6 7 10 16.5t5.5 24.5t2 37.5t0.5 54.5v344q0 47 -3 68t-10 32q-6 8 -18.5 15.5t-32.5 9.5v18q42 -2 77 -2.5t77 -0.5h286v-47q0 -20 0.5 -42.5t2.5 -39.5h-21q-1 26 -10.5 43t-23.5 25
q-8 5 -16.5 8t-20.5 4.5t-28 2t-39 0.5h-82v-245h84q27 0 47 3t34 14q23 18 26 59h21q0 -8 -0.5 -16t-0.5 -18.5t-0.5 -25.5t-0.5 -39v-38t0.5 -25t1 -17.5t0.5 -16.5h-21q-2 20 -7.5 33t-14.5 21q-16 14 -38.5 17t-48.5 3h-82v-221q0 -17 2 -27t8.5 -15.5t19 -7t32.5 -1.5
h17q42 0 71.5 4t48.5 23q10 10 16.5 27t7.5 40h21z" />
    <glyph glyph-name="F" unicode="F" horiz-adv-x="486" 
d="M455 526q-1 26 -10.5 43t-23.5 25q-8 5 -16.5 8t-20.5 4.5t-28 2t-39 0.5h-82v-245h84q27 0 47 3t34 14q23 18 26 59h21q0 -8 -0.5 -16t-0.5 -18.5t-0.5 -25.5t-0.5 -39v-38t0.5 -25t1 -17.5t0.5 -16.5h-21q-2 20 -7.5 33t-14.5 21q-16 14 -38.5 17t-48.5 3h-82v-178
q0 -47 2.5 -67t10.5 -30q6 -9 16.5 -14t21.5 -8t20 -3.5t13 -0.5v-19q-15 1 -35.5 1.5t-42.5 1.5t-42 1.5t-33 0.5q-21 0 -37 -0.5t-31 -1t-31 -1.5t-37 -2v18q10 0 24 4.5t25 17.5q6 7 10 16.5t5.5 24.5t2 37.5t0.5 54.5v344q0 47 -3 68t-10 32q-6 8 -18.5 15.5t-32.5 9.5
v18q42 -2 77 -2.5t77 -0.5h286v-47q0 -20 0.5 -42.5t2.5 -39.5h-21z" />
    <glyph glyph-name="G" unicode="G" horiz-adv-x="669" 
d="M654 263q-10 0 -24 -4.5t-25 -17.5q-6 -7 -10 -16.5t-5.5 -24.5t-2 -37.5t-0.5 -54.5v-91q-21 -7 -48 -11.5t-53.5 -7t-50.5 -3.5t-39 -1q-92 0 -165.5 22.5t-122.5 72.5q-38 38 -58 93.5t-20 130.5q0 32 5 66t17.5 68t34 66.5t54.5 61.5q17 15 41 30.5t58 28.5t78.5 21
t102.5 8q33 0 63.5 -1.5t53.5 -4t37 -4t15 -1.5q-2 -14 -2 -30.5v-31.5q0 -20 0.5 -37t1.5 -27h-21q0 20 -7.5 34t-19.5 24q-24 21 -60.5 26t-74.5 5q-40 0 -80.5 -10t-73 -40.5t-53 -88t-20.5 -152.5q0 -101 24.5 -158.5t60 -85.5t75.5 -34.5t71 -6.5q16 0 25.5 0.5
t14.5 1.5v97q0 47 -3 68t-10 32q-6 8 -18.5 15.5t-32.5 9.5v18q15 -1 32.5 -1.5t36 -1t35.5 -1t30 -0.5t30 0.5t35 1t35.5 1t32.5 1.5v-18z" />
    <glyph glyph-name="H" unicode="H" horiz-adv-x="758" 
d="M728 640q-10 0 -24 -4.5t-25 -17.5q-6 -7 -10 -16.5t-5.5 -24.5t-2 -37.5t-0.5 -54.5v-344q0 -47 2.5 -68t10.5 -32q6 -8 18.5 -15.5t32.5 -9.5v-18q-15 1 -33 1.5l-36 1t-35.5 1t-30.5 0.5t-30 -0.5t-35.5 -1t-36 -1t-32.5 -1.5v18q10 0 24 4.5t25 17.5q6 7 10 16.5
t5.5 24.5t2 37.5t0.5 54.5v143h-288v-173q0 -47 2.5 -68t10.5 -32q6 -8 18.5 -15.5t32.5 -9.5v-18q-15 1 -33 1.5l-36 1t-35.5 1t-30.5 0.5t-30 -0.5t-35.5 -1t-36 -1t-32.5 -1.5v18q10 0 24 4.5t25 17.5q6 7 10 16.5t5.5 24.5t2 37.5t0.5 54.5v344q0 47 -3 68t-10 32
q-6 8 -18.5 15.5t-32.5 9.5v18q15 -1 33 -1.5l36 -1t35.5 -1t30.5 -0.5t30 0.5t35.5 1t36 1t32.5 1.5v-18q-10 0 -24 -4.5t-25 -17.5q-6 -7 -10 -16.5t-5.5 -24.5t-2 -37.5t-0.5 -54.5v-116h288v146q0 47 -3 68t-10 32q-6 8 -18.5 15.5t-32.5 9.5v18q15 -1 33 -1.5l36 -1
t35.5 -1t30.5 -0.5t30 0.5t35.5 1t36 1t32.5 1.5v-18z" />
    <glyph glyph-name="I" unicode="I" horiz-adv-x="332" 
d="M302 640q-10 0 -24 -4.5t-25 -17.5q-6 -7 -10 -16.5t-5.5 -24.5t-2 -37.5t-0.5 -54.5v-344q0 -47 2.5 -68t10.5 -32q6 -8 18.5 -15.5t32.5 -9.5v-18q-15 1 -33 1.5l-36 1t-35.5 1t-30.5 0.5t-30 -0.5t-35.5 -1t-36 -1t-32.5 -1.5v18q10 0 24 4.5t25 17.5q6 7 10 16.5
t5.5 24.5t2 37.5t0.5 54.5v344q0 47 -3 68t-10 32q-6 8 -18.5 15.5t-32.5 9.5v18q15 -1 33 -1.5l36 -1t35.5 -1t30.5 -0.5t30 0.5t35.5 1t36 1t32.5 1.5v-18z" />
    <glyph glyph-name="J" unicode="J" horiz-adv-x="316" 
d="M301 640q-10 0 -24 -4.5t-25 -17.5q-6 -7 -10 -16.5t-5.5 -24.5t-2 -37.5t-0.5 -54.5v-492q0 -20 -0.5 -42.5t-4.5 -46.5t-12.5 -47.5t-24.5 -44.5q-26 -32 -72.5 -52.5t-125.5 -18.5l-1 15q31 6 50 20t30 32t15 38t6 39q2 25 2 70.5v113.5v446q0 47 -3 68t-10 32
q-6 8 -18.5 15.5t-32.5 9.5v18q15 -1 33 -1.5l36 -1t35.5 -1t30.5 -0.5t30 0.5t35.5 1t36 1t32.5 1.5v-18z" />
    <glyph glyph-name="K" unicode="K" horiz-adv-x="650" 
d="M665 -2q-60 3 -118 3q-20 0 -40.5 -0.5t-40.5 -0.5l-214 326l196 227q19 22 26.5 33.5t7.5 22.5q0 14 -9 22q-11 8 -33 9v18q29 -2 55 -3t52 -1q27 0 54.5 1t56.5 3v-18q-14 -1 -39 -13.5t-63 -50.5l-184 -183l184 -281q29 -45 53 -69.5t56 -26.5v-18zM302 640
q-10 0 -24 -4.5t-25 -17.5q-6 -7 -10 -16.5t-5.5 -24.5t-2 -37.5t-0.5 -54.5v-344q0 -47 2.5 -68t10.5 -32q6 -8 18.5 -16t32.5 -10v-17q-15 1 -33 1.5l-36 1t-35.5 1t-30.5 0.5t-30 -0.5t-35.5 -1t-36 -1t-32.5 -1.5v17q10 0 24 5t25 18q6 7 10 16.5t5.5 24.5t2 37.5
t0.5 54.5v344q0 47 -3 68t-10 32q-6 8 -18.5 15.5t-32.5 9.5v18q15 -1 33 -1.5l36 -1t35.5 -1t30.5 -0.5t30 0.5t35.5 1t36 1t32.5 1.5v-18z" />
    <glyph glyph-name="L" unicode="L" horiz-adv-x="493" 
d="M473 140q-2 -17 -2.5 -41t-0.5 -46v-53h-274h-83t-83 -2v18q10 0 24 4.5t25 17.5q6 7 10 16.5t5.5 24.5t2 37.5t0.5 54.5v344q0 47 -3 68t-10 32q-6 8 -18.5 15.5t-32.5 9.5v18q15 -1 34.5 -1.5t40 -1t39.5 -1t32 -0.5t32.5 0.5t40 1t40.5 1t35 1.5v-19q-32 -2 -49.5 -9
t-28.5 -21q-11 -15 -12.5 -43t-1.5 -86v-383q0 -17 2 -27t8.5 -15.5t19 -7t32.5 -1.5h17q42 0 68.5 4t45.5 23q10 10 16.5 27t7.5 40h21z" />
    <glyph glyph-name="M" unicode="M" horiz-adv-x="849" 
d="M824 -2q-15 1 -32.5 1.5t-35.5 1t-35 1t-30 0.5q-26 0 -63 -0.5t-69 -3.5v18q9 1 24 5t26 17t12.5 35t1.5 38q0 1 -0.5 21t-2 52t-3 72.5t-2.5 82.5q-4 99 -8 222q-1 -6 -4 -15q-2 -8 -6 -18.5t-9 -24.5l-192 -507h-31l-183 507q-11 28 -15 45q-3 9 -4 16
q-5 -121 -9 -218q-2 -41 -3 -81.5t-2.5 -72.5t-2 -53.5t-0.5 -24.5v-34.5t8 -34.5q0 -1 3 -5t9 -9t16 -9.5t25 -5.5v-18q-29 2 -52 3t-49 1h-23t-19.5 -0.5t-21 -1.5t-27.5 -2v18q9 1 23 5t25 17q6 6 9 15t5.5 23.5t3.5 35.5t3 51l16 334q0 5 0.5 14.5t1 20t1 19.5t0.5 13
q0 20 -2 30.5t-8 19.5l-13 13t-39 13v18q30 -2 66.5 -3t62.5 -1q6 0 19.5 0.5t28 1t27.5 1t19 1.5l143 -396q3 -10 6 -19t5 -16q3 -8 4 -15q1 6 4 14q2 7 5 15.5t7 19.5l153 397q6 -1 19.5 -1.5t29 -1t29.5 -1t20 -0.5q26 0 54.5 0.5t60.5 3.5v-18q-10 -1 -24 -4.5
t-25 -17.5q-11 -12 -12.5 -29t-1.5 -33q0 -11 0.5 -29t1.5 -34l14 -344q2 -45 4.5 -70t11.5 -38q2 -2 13 -12.5t38 -12.5v-18z" />
    <glyph glyph-name="N" unicode="N" horiz-adv-x="703" 
d="M688 640q-10 0 -24 -4.5t-25 -17.5q-6 -7 -10 -16.5t-5.5 -24.5t-2 -37.5t-0.5 -54.5v-490h-56l-381 506q-7 8 -11 15t-7 12q-4 6 -6 11v-398q0 -47 2.5 -68t10.5 -32q6 -8 18.5 -15.5t32.5 -9.5v-18q-29 2 -48.5 3t-45.5 1t-47 -0.5t-53 -3.5v18q10 0 24 4.5t25 17.5
q6 7 10 16.5t5.5 24.5t2 37.5t0.5 54.5v344q0 47 -3 68t-10 32q-6 8 -18.5 15.5t-32.5 9.5v18q29 -2 59.5 -3t56.5 -1q6 0 16.5 0.5t22.5 1t25 1t23 1.5l290 -386q9 -13 15 -22l10 -15q4 -7 7 -12v292q0 47 -3 68t-10 32q-6 8 -18.5 15.5t-32.5 9.5v18q29 -2 50.5 -3
t47.5 -1t45 0.5t51 3.5v-18z" />
    <glyph glyph-name="O" unicode="O" horiz-adv-x="729" 
d="M699 336q0 -78 -24 -142t-68 -109t-107 -70t-141 -25t-139 23t-103 65.5t-64.5 103t-22.5 135.5q0 78 24 142t68 109t107 70t141 25t139 -23t103 -65.5t64.5 -103t22.5 -135.5zM549 323q0 62 -11 116t-33.5 94t-57 63t-82.5 23q-51 0 -86.5 -23t-57 -62t-31.5 -91.5
t-10 -112.5q0 -62 11 -116t33.5 -94t57 -63t82.5 -23q51 0 86.5 23t57 62t31.5 91.5t10 112.5z" />
    <glyph glyph-name="P" unicode="P" horiz-adv-x="562" 
d="M557 481q0 -50 -18 -86t-48 -59.5t-70.5 -35t-85.5 -11.5q-17 0 -29.5 1t-20.5 3q-10 2 -16 4v20q3 -1 7 -1h14q42 0 71 21q49 37 49 133q0 54 -14 84t-34.5 44t-44 17t-42.5 3q-7 0 -14 -0.5t-13 -1.5q-7 -1 -15 -1v-440v-50t1.5 -36t4 -25.5t8.5 -17.5q11 -14 28.5 -21
t49.5 -9v-18q-15 1 -37 1.5t-45 1t-44.5 1t-34.5 0.5q-26 0 -64 -0.5t-70 -3.5v18q10 0 24 4.5t25 17.5q6 7 10 16.5t5.5 24.5t2 37.5t0.5 54.5v344q0 47 -3 68t-10 32q-6 8 -18.5 15.5t-32.5 9.5v18q29 -2 61.5 -2.5t58.5 -0.5q21 0 38.5 0.5t35 0.5t36 0.5t41.5 0.5
q7 0 20 -0.5t29 -1.5t32.5 -3t31.5 -5q27 -6 52.5 -18t45 -32t31 -48.5t11.5 -67.5z" />
    <glyph glyph-name="Q" unicode="Q" horiz-adv-x="736" 
d="M1171 -121q-29 -30 -60.5 -48.5t-61.5 -28.5t-57 -13.5t-45 -3.5q-73 0 -149.5 24t-146 58t-127.5 69.5t-94 59.5q-8 -2 -19 -3q-18 -3 -52 -3q-78 0 -139 23t-103 65.5t-64.5 103t-22.5 135.5q0 78 24 142t68 109t107 70t141 25t139 -23t103 -65.5t64.5 -103
t22.5 -135.5q0 -103 -40.5 -177.5t-110.5 -116.5q67 -39 135 -71t131.5 -55t121.5 -35.5t106 -12.5q24 0 41 1.5t31 4.5t26 6.5t25 7.5zM549 323q0 62 -11 116t-33.5 94t-57 63t-82.5 23q-51 0 -86.5 -23t-57 -62t-31.5 -91.5t-10 -112.5q0 -62 11 -116t33.5 -94t57 -63
t82.5 -23q51 0 86.5 23t57 62t31.5 91.5t10 112.5z" />
    <glyph glyph-name="R" unicode="R" horiz-adv-x="660" 
d="M690 -1q-8 -1 -22 -2q-12 -1 -33 -1.5t-53 -0.5q-39 0 -64.5 7t-43.5 19t-30.5 27.5t-25.5 31.5q-8 10 -25 32t-38 50t-43 58t-40 57h-42v-136q0 -47 2.5 -68t10.5 -32q6 -8 18.5 -15.5t32.5 -9.5v-18q-29 2 -67 3t-64 1q-13 0 -30 -0.5t-35 -1t-35.5 -1t-32.5 -1.5v18
q10 0 24 4.5t25 17.5q6 7 10 16.5t5.5 24.5t2 37.5t0.5 54.5v344q0 47 -3 68t-10 32q-6 8 -18.5 15.5t-32.5 9.5v18q58 -3 108 -3q27 0 45.5 0.5t34 1t32.5 1t41 0.5h22t28.5 -1t32 -3t31.5 -6q45 -11 71 -32t40 -44t18 -45.5t4 -37.5q0 -20 -5 -45.5t-20 -51.5t-44 -49
t-77 -36q32 -38 63 -73q26 -31 55 -64t52 -59q37 -42 65 -67.5t60 -27.5v-17zM396 474q0 53 -13.5 82t-33 43t-40.5 17t-36 3q-8 0 -15.5 -0.5t-13.5 -1.5q-7 -1 -14 -1v-296q6 -1 14 -1q7 -1 15.5 -1h17.5q11 0 21 1t18 3q5 1 18.5 6t27 20.5t24 45t10.5 80.5z" />
    <glyph glyph-name="S" unicode="S" horiz-adv-x="484" 
d="M444 185q0 -50 -19 -86.5t-52.5 -59.5t-79.5 -34t-101 -11q-35 0 -79 5t-79 16v16q0 35 -1 61t-3 48h21q3 -23 11 -41.5t24 -30.5q20 -17 47.5 -22t53.5 -5q48 0 74.5 13.5t39 31.5t15 35t2.5 25q0 24 -7.5 41.5t-20.5 31.5t-30.5 25.5t-38.5 24.5l-56 35
q-27 17 -49 34.5t-37.5 39t-24 48t-8.5 62.5q0 19 7 48.5t31 57.5t70 48.5t124 20.5q34 0 62.5 -2t48.5 -4q24 -3 43 -5q-1 -7 -2 -15t-1 -17.5v-21.5v-35t1 -22q0 -10 1 -15h-21q-3 35 -27 59q-20 20 -49 26t-53 6q-39 0 -61.5 -10t-34.5 -24t-15.5 -30t-3.5 -29
q0 -39 21.5 -62t62.5 -47l64 -38q30 -18 54.5 -36t41 -40t25.5 -50t9 -66z" />
    <glyph glyph-name="T" unicode="T" horiz-adv-x="495" 
d="M494 526q-1 26 -10.5 43t-23.5 25q-8 5 -16.5 8t-20.5 4.5t-28 2t-39 0.5h-37v-467q0 -47 2.5 -68t10.5 -31q6 -9 16.5 -14t21.5 -8t20 -3.5t13 -0.5v-19q-15 1 -36 1.5t-42.5 1t-42 1t-33.5 0.5t-33.5 -0.5t-42.5 -1t-43 -1t-36 -1.5v18q3 0 11.5 1t19 3.5t21 7
t17.5 12.5q6 7 10 16.5t5.5 24t2 36.5t0.5 54v438h-37q-23 0 -39 -0.5t-28 -2t-20.5 -4.5t-16.5 -8q-14 -8 -23.5 -25t-10.5 -43h-21q2 17 2.5 39.5t0.5 42.5v47h524v-47q0 -20 0.5 -42.5t2.5 -39.5h-21z" />
    <glyph glyph-name="U" unicode="U" horiz-adv-x="694" 
d="M683 640q-10 0 -24 -4.5t-25 -17.5q-6 -7 -10 -16.5t-5.5 -24.5t-2 -37.5t-0.5 -54.5v-203q0 -57 -3 -95t-14 -67q-17 -45 -47.5 -70.5t-67 -38.5t-74 -16.5t-67.5 -3.5q-63 0 -107 10.5t-73 28t-45.5 40t-26.5 47.5q-14 38 -15.5 83.5t-1.5 84.5v230q0 47 -3 68t-10 32
q-6 8 -18.5 15.5t-32.5 9.5v18q15 -1 33 -1.5l36 -1t35.5 -1t30.5 -0.5t30 0.5t35.5 1t36 1t32.5 1.5v-18q-10 0 -24 -4.5t-25 -17.5q-6 -7 -10 -16.5t-5.5 -24.5t-2 -37.5t-0.5 -54.5v-266q0 -34 3.5 -66.5t18.5 -58.5t45.5 -42t85.5 -16q56 0 87 17.5t46 44.5t18 59.5
t3 62.5v295q0 47 -3 68t-10 32q-6 8 -18.5 15.5t-32.5 9.5v18q29 -2 55.5 -3t52.5 -1t58 1t62 3v-18z" />
    <glyph glyph-name="V" unicode="V" horiz-adv-x="590" 
d="M635 640q-21 1 -32.5 -10.5t-16.5 -18.5q-6 -9 -17.5 -35.5t-31.5 -73.5l-207 -504l-76 -13l-180 508q-19 52 -31.5 83t-15.5 36q-5 7 -15.5 18t-31.5 10v18q11 -1 27.5 -1.5t34.5 -1t35 -1t28 -0.5t29.5 0.5t38 1t37.5 1t29 1.5v-18q-18 0 -29.5 -3.5t-17.5 -8.5
q-9 -8 -9 -22q0 -9 3.5 -22.5t11.5 -34.5l109 -314q8 -23 13.5 -40t8.5 -28q4 -13 6 -22q3 10 8 24q4 12 10.5 28.5t14.5 39.5l116 313q8 21 12 34t4 23q0 14 -8 21q-8 8 -21.5 9.5t-24.5 2.5v18q26 -2 47.5 -3t48.5 -1q24 0 46.5 1t46.5 3v-18z" />
    <glyph glyph-name="W" unicode="W" horiz-adv-x="912" 
d="M957 640q-21 1 -32.5 -10.5t-16.5 -18.5q-6 -9 -16 -35.5t-27 -74.5l-175 -503l-78 -14l-124 392q-6 19 -10 33t-6 24q-3 11 -4 19q-2 -8 -6 -19q-3 -10 -7.5 -24.5t-10.5 -34.5l-121 -375l-88 -15l-161 509q-17 53 -28 83.5t-14 35.5q-5 7 -15.5 18t-31.5 10v18
q11 -1 27.5 -1.5t34.5 -1t35 -1t28 -0.5t29 0.5t37.5 1t37.5 1t29 1.5v-18q-18 0 -29.5 -3.5t-17.5 -8.5q-9 -8 -9 -23q0 -9 3 -22t9 -34l93 -312q6 -21 10.5 -37t6.5 -27q3 -13 5 -22l6 21q3 11 8 26.5t12 35.5l137 422l59 8l132 -427q5 -17 9.5 -33t7.5 -27q4 -14 6 -25
l120 398q6 20 9.5 34.5t3.5 22.5q0 14 -8 21q-8 8 -21.5 9.5t-24.5 2.5v18q26 -2 46.5 -3t47.5 -1q24 0 46.5 1t46.5 3v-18z" />
    <glyph glyph-name="X" unicode="X" horiz-adv-x="637" 
d="M637 -2q-32 2 -65 3t-65 1q-33 0 -69.5 -1t-68.5 -3v18q6 0 19 2.5t21 10.5q4 4 7 9t3 15t-4 19.5t-17 29.5l-116 178l-111 -176q-11 -17 -17 -30.5t-6 -23.5q0 -6 1.5 -11.5t7.5 -11.5q7 -7 19 -9t18 -2v-18q-23 2 -50 3t-48 1q-23 0 -46.5 -1t-49.5 -3v18q21 2 32 11.5
t19 18.5q11 11 53 70l149 208l-142 219q-23 35 -34.5 52t-22.5 28t-18.5 13.5t-17.5 3.5v18q32 -2 65 -3t65 -1q14 0 33.5 0.5t39.5 1t37.5 1t27.5 1.5v-18q-6 0 -19 -2.5t-21 -10.5q-3 -3 -6.5 -8.5t-3.5 -14.5t3.5 -19.5t14.5 -27.5l92 -141l84 133q26 40 26 57
q0 6 -1.5 11.5t-7.5 11.5q-5 5 -15 7.5t-22 3.5v18q23 -2 51 -3t43 -1q23 0 47.5 1t47.5 3v-18q-21 -2 -31 -10.5t-18 -17.5q-12 -12 -54 -71l-121 -169l169 -259q23 -35 34.5 -52t22.5 -28t18.5 -13t17.5 -4v-18z" />
    <glyph glyph-name="Y" unicode="Y" horiz-adv-x="549" 
d="M593 640q-21 -2 -32 -12.5t-19 -18.5q-5 -6 -16.5 -23t-29.5 -49l-143 -253v-142q0 -47 2.5 -68t10.5 -31q6 -9 16.5 -14t21.5 -8t20 -3.5t13 -0.5v-19q-15 1 -36 1.5t-42.5 1t-42 1t-33.5 0.5t-33.5 -0.5t-42.5 -1t-43 -1t-36 -1.5v18q3 0 11.5 1t19 3.5t21 7t17.5 12.5
q6 7 10 16.5t5.5 24t2 36.5t0.5 54v93l-149 276q-23 42 -35.5 60t-18.5 24q-11 11 -18.5 13t-18.5 3v18q9 -1 25 -1.5t34 -1t37 -1t35 -0.5h34t39.5 0.5t36 1.5t25.5 2v-18q-8 0 -19 -2.5t-19 -8.5q-12 -10 -12 -24q0 -13 5.5 -25t11.5 -23l117 -224l106 219q4 8 11 24t7 30
t-8 21q-6 6 -16 8.5t-24 4.5v18q14 -2 41 -3t56 -1q21 0 47 1t48 3v-18z" />
    <glyph glyph-name="Z" unicode="Z" horiz-adv-x="561" 
d="M183 48h192q36 0 66.5 5.5t48.5 28.5q15 19 17 58h21q-2 -17 -2.5 -41t-0.5 -46v-53h-501v33l348 573h-162q-43 0 -68.5 -4t-42.5 -19q-11 -9 -17 -23t-6 -34h-21q2 17 2.5 39t0.5 42v47h477v-30z" />
    <glyph glyph-name="bracketleft" unicode="[" horiz-adv-x="343" 
d="M75 -268v1000h188v-54h-84v-891h84v-55h-188z" />
    <glyph glyph-name="backslash" unicode="\" horiz-adv-x="286" 
d="M206 -268l-186 1000h79l187 -1000h-80z" />
    <glyph glyph-name="bracketright" unicode="]" horiz-adv-x="343" 
d="M80 -268v55h84v891h-84v54h188v-1000h-188z" />
    <glyph glyph-name="asciicircum" unicode="^" horiz-adv-x="453" 
d="M365 281l-138 336l-139 -336h-68l192 451h28l193 -451h-68z" />
    <glyph glyph-name="underscore" unicode="_" horiz-adv-x="560" 
d="M20 -242v60h520v-60h-520z" />
    <glyph glyph-name="grave" unicode="`" 
d="M146 666l113 43l6 -3l78 -175l-20 -13l-176 133z" />
    <glyph glyph-name="a" unicode="a" horiz-adv-x="513" 
d="M508 60q-23 -32 -52 -49t-74 -17q-26 0 -42 7t-25.5 16.5t-13.5 20.5t-6 19q-5 -6 -15 -17t-26.5 -21.5t-39.5 -18.5t-54 -8q-47 0 -73.5 15t-40 35.5t-16.5 41.5t-3 33q0 41 18.5 67.5t46.5 40.5q21 10 46 15.5t52 7.5t53 2h48v21q0 23 -0.5 47t-5.5 38q-12 35 -38 45.5
t-51 10.5q-41 0 -63 -16t-37 -38l-21 16q2 7 11.5 23t29 33t52 30t81.5 13q51 0 82.5 -11.5t49.5 -27t26 -32.5t11 -27q4 -11 5.5 -27.5t2 -32.5t0.5 -28.5v-14.5q0 -21 -1.5 -50t-1.5 -86q0 -11 0.5 -24t4.5 -23.5t13 -17.5t25 -7q13 0 18.5 3t10.5 6zM291 217
q-5 0 -15.5 -0.5t-23 -2t-25.5 -4t-23 -7.5q-6 -3 -13 -7.5t-13.5 -12.5t-10.5 -20.5t-4 -30.5q0 -33 17.5 -53.5t52.5 -20.5q17 0 30.5 3.5t27.5 13.5v142z" />
    <glyph glyph-name="b" unicode="b" horiz-adv-x="588" 
d="M558 245q0 -48 -12 -87.5t-34 -70.5q-33 -47 -85.5 -71.5t-117.5 -24.5q-61 0 -97.5 11.5t-54.5 22.5l-69 -37l-14 8q3 27 4 78t1 108v381q0 47 -2 69t-9 33q-11 15 -28 17.5t-25 3.5v19q4 0 16.5 0.5t30.5 1.5t41 3t47 6q17 2 33 5.5t31 7.5l5 -5q-2 -27 -3 -78t-1 -108
v-120q20 23 56 39t84 16q38 0 74.5 -12.5t65 -39.5t46 -70.5t17.5 -105.5zM411 227q0 39 -6 73.5t-20.5 60t-38.5 40.5t-60 15q-19 0 -40 -6t-31 -15v-326q1 -2 6 -8t14.5 -13t24 -12t35.5 -5q33 0 55 15t35.5 41.5t19.5 62t6 77.5z" />
    <glyph glyph-name="c" unicode="c" horiz-adv-x="442" 
d="M385 356h-10q-4 8 -9.5 21t-16 26t-26.5 22t-41 9q-11 0 -28.5 -4t-34.5 -22t-29.5 -55.5t-12.5 -104.5q0 -101 39 -147t111 -46q29 0 52 7t39 15l10 -13q-8 -10 -22.5 -22t-35.5 -23t-49 -18.5t-64 -7.5q-15 0 -38 2t-48 9.5t-50.5 22t-45.5 40t-32.5 63.5t-12.5 92
t17.5 100t50 79.5t80 52.5t107.5 19q54 0 96.5 -9.5t55.5 -18.5v-10z" />
    <glyph glyph-name="d" unicode="d" horiz-adv-x="597" 
d="M573 14q-17 1 -51.5 -1.5t-69.5 -7.5q-23 -3 -42.5 -6.5t-30.5 -8.5l-4 3v54q-20 -24 -58.5 -40t-83.5 -16q-38 0 -74.5 12.5t-65 39.5t-46 70t-17.5 105q0 48 12 88t34 71q33 47 85.5 71.5t117.5 24.5q22 0 39.5 -2.5t29.5 -4.5q14 -3 25 -6v103q0 47 -2 69t-9 33
q-11 15 -28 17.5t-25 3.5v19q4 0 16.5 0.5t31 1.5t41 3.5t46.5 5.5q17 2 33 5.5t31 7.5l5 -5q-2 -27 -3 -78t-1 -108v-383q0 -48 1 -69.5t9 -32.5q5 -8 12.5 -12t15.5 -6t15 -2.5t11 -0.5v-18zM373 395q-1 2 -6 8t-14.5 13t-24 12t-35.5 5q-33 0 -55.5 -15t-36 -41.5
t-19 -62t-5.5 -76.5q0 -39 6 -74t20.5 -60.5t38.5 -40.5t60 -15q19 0 40 6t31 15v326z" />
    <glyph glyph-name="e" unicode="e" horiz-adv-x="483" 
d="M167 261v-2q0 -28 3 -53.5t9 -45.5q11 -36 30.5 -57t42 -31.5t46 -13t43.5 -2.5t37 3t29 7q14 4 25 11l10 -13q-16 -20 -42 -36q-22 -14 -56 -24.5t-82 -10.5q-13 0 -35 1.5t-47.5 8.5t-52 21.5t-48.5 39.5t-35.5 63t-13.5 93q0 32 9 76t34.5 83.5t72 67t121.5 27.5
q39 0 66 -8t46 -19.5t29.5 -24t16.5 -20.5q22 -32 27.5 -66t5.5 -69v-6h-291zM321 314q0 26 -3 48.5t-11.5 39t-23.5 25.5t-38 9q-44 0 -60.5 -31t-16.5 -100h153v9z" />
    <glyph glyph-name="f" unicode="f" horiz-adv-x="345" 
d="M392 613h-10q-16 38 -34 57.5t-50 19.5q-39 0 -56 -30q-8 -15 -10.5 -38.5t-2.5 -63.5v-94h110v-50h-110v-270q0 -47 2.5 -68.5t10.5 -32.5q7 -10 19.5 -15.5t24.5 -7.5t21.5 -2.5t11.5 -0.5v-19q-15 1 -36 1.5t-43 1t-42.5 1t-33.5 0.5h-30t-36 -0.5t-37.5 -1.5
t-34.5 -2v18q10 0 24 4.5t25 17.5q6 7 10 16.5t5.5 24.5t2 37.5t0.5 54.5v243h-62v23q14 5 32.5 14t29.5 18q0 39 2.5 76t13.5 65q6 15 17 35t32.5 38.5t56 31t87.5 12.5q35 0 61.5 -5t43.5 -10q20 -6 33 -14v-10z" />
    <glyph glyph-name="g" unicode="g" horiz-adv-x="528" 
d="M412 414l11.5 -11.5t15 -20t13.5 -30.5t6 -43q0 -36 -14 -66t-41 -51.5t-67 -34t-92 -12.5q-25 0 -49 3q-12 -11 -15 -23.5t-3 -17.5q0 -14 4.5 -21.5t11.5 -11.5t15.5 -5t16.5 -1q18 0 31 0.5t27.5 0.5t31.5 0.5t42 0.5q20 0 47.5 -3t52 -16.5t42 -40t17.5 -74.5
q0 -36 -17.5 -72t-53.5 -64.5t-90.5 -46.5t-127.5 -18q-113 0 -167.5 32t-54.5 84q0 31 15 52.5t35 34.5t40 19.5t31 8.5q-26 11 -38 31.5t-12 42.5t8 40t21 32t29 24t32 18q-55 13 -90.5 49t-35.5 104q0 35 13.5 65.5t40.5 53t66.5 35t90.5 12.5q29 0 56 -5t48 -13l178 22
v-78zM331 313q0 12 -2.5 33.5t-11 42t-25 36t-45.5 15.5q-27 0 -43 -13t-24.5 -33t-11 -43.5t-2.5 -45.5q0 -12 2.5 -33.5t11 -42t25 -36t45.5 -15.5q27 0 43 13t24.5 33t11 43.5t2.5 45.5zM413 -106q0 23 -9 35.5t-23 18.5t-31 7t-32 1h-162q-5 -3 -14 -9t-17.5 -16
t-14.5 -23.5t-6 -31.5q0 -33 15.5 -52t37 -29t44 -12.5t36.5 -2.5q37 0 69 6.5t56 20.5t37.5 35.5t13.5 51.5z" />
    <glyph glyph-name="h" unicode="h" horiz-adv-x="618" 
d="M597 -2q-15 1 -32.5 1.5t-36 1t-35.5 1t-30 0.5q-26 0 -63 -1t-66 -3v18q28 4 43 19q7 7 11 17t6 29t2.5 49.5t0.5 79.5q0 47 -0.5 69t-2.5 38q-1 17 -4.5 34.5t-13 32t-27 23.5t-47.5 9q-20 0 -40.5 -4.5t-34.5 -15.5v-255q0 -25 0.5 -41.5t1.5 -27t3 -17t5 -12.5
q7 -13 22.5 -20t27.5 -7v-18q-29 2 -66.5 3t-63.5 1q-13 0 -30 -0.5t-35 -1t-35.5 -1t-32.5 -1.5v18q10 0 24 4.5t25 17.5q6 7 10 16.5t5.5 24.5t2 37.5t0.5 54.5v392q0 47 -2 69t-9 33q-11 15 -28 17.5t-25 3.5v19q4 0 16.5 0.5t31 1.5t41 3.5t46.5 5.5q17 2 33 5.5t31 7.5
l5 -5q-2 -27 -3 -78t-1 -108v-119q2 2 12 11t28 18.5t45 17.5t64 8q63 0 100 -27t50 -75q4 -15 5.5 -40.5t1.5 -48.5v-142q0 -47 2.5 -68t10.5 -32q6 -8 18.5 -15.5t32.5 -9.5v-18z" />
    <glyph glyph-name="i" unicode="i" horiz-adv-x="318" 
d="M237 617q0 -29 -18.5 -50t-57.5 -21q-38 0 -56.5 21t-18.5 49q0 29 18.5 50.5t57.5 21.5q38 0 56.5 -21t18.5 -50zM294 -2q-15 1 -32.5 1.5t-36 1t-35.5 1t-30 0.5t-30 -0.5t-35 -1t-35.5 -1t-32.5 -1.5v18q10 0 24 4.5t25 17.5q6 7 10 16.5t5.5 24.5t2 37.5t0.5 54.5
v137q0 48 -1.5 70t-9.5 33q-5 7 -12.5 11.5t-15 6.5t-14.5 2.5t-11 0.5v19q14 -1 53 1t83 8q37 4 62 12l6 -3q-1 -13 -2 -34t-1.5 -46t-0.5 -53.5v-56.5v-138q0 -47 2.5 -68t10.5 -32q6 -8 18.5 -15.5t32.5 -9.5v-18z" />
    <glyph glyph-name="j" unicode="j" horiz-adv-x="293" 
d="M228 617q0 -29 -18.5 -50t-57.5 -21q-38 0 -56.5 21t-18.5 49q0 29 18.5 50.5t57.5 21.5q38 0 56.5 -21t18.5 -50zM225 469q-1 -13 -2 -34t-1.5 -46t-0.5 -53.5v-56.5v-290q0 -50 -6.5 -95t-35.5 -82q-26 -32 -72.5 -52.5t-125.5 -18.5l-1 14q31 6 50.5 20t30.5 32
t15.5 38t6.5 39q2 25 2 70.5v113.5v240q0 48 -1.5 70t-9.5 33q-5 7 -12.5 11.5t-15 6.5t-14.5 2.5t-11 0.5v19q14 -1 53 1t83 8q37 4 62 12z" />
    <glyph glyph-name="k" unicode="k" horiz-adv-x="586" 
d="M596 -2q-60 3 -118 3q-20 0 -40.5 -0.5t-40.5 -0.5l-151 235l133 128q20 20 27.5 32t7.5 23q0 14 -9 22q-11 8 -33 9v18q29 -2 55 -3t52 -1q27 0 53.5 1t55.5 3v-18q-14 -1 -39 -15.5t-67 -47.5l-116 -92l121 -182q30 -45 53.5 -69.5t55.5 -26.5v-18zM287 -2
q-29 2 -66.5 3t-63.5 1q-13 0 -30 -0.5t-35 -1t-35.5 -1t-32.5 -1.5v18q10 0 24 4.5t25 17.5q6 7 10 16.5t5.5 24.5t2 37.5t0.5 54.5v392q0 47 -2 69t-9 33q-11 15 -28 17.5t-25 3.5v19q4 0 16.5 0.5t31 1.5t41 3.5t46.5 5.5q17 2 33 5.5t31 7.5l5 -5q-2 -27 -3 -78t-1 -108
v-397q0 -25 0.5 -41.5t1.5 -27t3 -17t5 -12.5q7 -13 22.5 -20t27.5 -7v-18z" />
    <glyph glyph-name="l" unicode="l" horiz-adv-x="317" 
d="M293 -2q-15 1 -32.5 1.5t-36 1t-35.5 1t-30 0.5t-30 -0.5t-35 -1t-35.5 -1t-32.5 -1.5v18q10 0 24 4.5t25 17.5q6 7 10 16.5t5.5 24.5t2 37.5t0.5 54.5v392q0 47 -2 69t-9 33q-11 15 -28 17.5t-25 3.5v19q8 0 47 2t88 9q17 2 33 5.5t31 7.5l5 -5q-2 -27 -3 -78t-1 -108
v-397q0 -47 2.5 -68t10.5 -32q6 -8 18.5 -15.5t32.5 -9.5v-18z" />
    <glyph glyph-name="m" unicode="m" horiz-adv-x="923" 
d="M902 -2q-15 1 -32.5 1.5t-36 1t-35.5 1t-30 0.5q-26 0 -63 -1t-66 -3v18q28 4 43 19q7 7 11 17t6 29t2.5 49.5t0.5 79.5q0 28 -0.5 52.5t-2.5 52.5q-1 15 -4 32.5t-12.5 32t-28 24.5t-51.5 10q-3 0 -12 -0.5t-21 -2.5t-25 -6.5t-25 -12.5q4 -9 7 -20q4 -15 5.5 -40.5
t1.5 -48.5v-142q0 -25 0.5 -41.5t1.5 -27t3 -17t5 -12.5q7 -13 22.5 -20t27.5 -7v-18q-29 2 -66.5 3t-63.5 1t-63 -1t-66 -3v18q28 4 43 19q7 7 11 17t6 29t2.5 49.5t0.5 79.5q0 28 -0.5 53.5t-2.5 53.5q-1 18 -4.5 35.5t-13 31.5t-27 23t-46.5 9q-20 0 -40 -4.5t-34 -15.5
v-255q0 -25 0.5 -41.5t1.5 -27t3 -17t5 -12.5q7 -13 22.5 -20t27.5 -7v-18q-29 2 -66.5 3t-63.5 1q-13 0 -30 -0.5t-35 -1t-35.5 -1t-32.5 -1.5v18q10 0 24 4.5t25 17.5q6 7 10 16.5t5.5 24.5t2 37.5t0.5 54.5v137q0 48 -1.5 70t-9.5 33q-5 7 -12.5 11.5t-15 6.5t-14.5 2.5
t-11 0.5v19q14 -1 50 1t80 8q37 4 62 12l6 -3v-51q3 3 13 12t28.5 18.5t45.5 17.5t62 8q44 0 79 -15t54 -48q7 7 20.5 18.5t33.5 21.5t48 17.5t65 7.5q65 0 103 -26.5t51 -75.5q4 -16 5.5 -42t1.5 -49v-142q0 -47 2.5 -68t10.5 -32q6 -8 18.5 -15.5t32.5 -9.5v-18z" />
    <glyph glyph-name="n" unicode="n" horiz-adv-x="621" 
d="M600 -2q-15 1 -32.5 1.5t-36 1t-35.5 1t-30 0.5q-26 0 -63 -1t-66 -3v18q28 4 43 19q7 7 11 17t6 29t2.5 49.5t0.5 79.5q0 47 -0.5 69t-2.5 38q-1 17 -4.5 34.5t-13 32t-27 23.5t-47.5 9q-20 0 -40.5 -4.5t-34.5 -15.5v-255q0 -25 0.5 -41.5t1.5 -27t3 -17t5 -12.5
q7 -13 22.5 -20t27.5 -7v-18q-29 2 -66.5 3t-63.5 1q-13 0 -30 -0.5t-35 -1t-35.5 -1t-32.5 -1.5v18q10 0 24 4.5t25 17.5q6 7 10 16.5t5.5 24.5t2 37.5t0.5 54.5v137q0 48 -1.5 70t-9.5 33q-5 7 -12.5 11.5t-15 6.5t-14.5 2.5t-11 0.5v19q14 -1 50 1t80 8q37 4 62 12l6 -3
v-51q2 2 12 11t28.5 19t46 18t64.5 8q63 0 100 -27t50 -75q4 -15 5.5 -40.5t1.5 -48.5v-142q0 -47 2.5 -68t10.5 -32q6 -8 18.5 -15.5t32.5 -9.5v-18z" />
    <glyph glyph-name="o" unicode="o" horiz-adv-x="560" 
d="M530 237q0 -32 -9.5 -74.5t-37 -81t-77.5 -65t-132 -26.5q-62 0 -107.5 17t-76 48.5t-45.5 75.5t-15 97q0 32 9.5 74.5t37 81t77.5 65t132 26.5q61 0 107 -17t76.5 -48.5t45.5 -75.5t15 -97zM383 233q0 73 -11.5 113.5t-27.5 60.5t-34.5 24.5t-31.5 4.5q-10 0 -26 -3.5
t-32 -20.5q-9 -10 -17 -24.5t-13.5 -35.5t-9 -50.5t-3.5 -69.5q0 -73 11.5 -113.5t27.5 -60.5t34 -24.5t32 -4.5q10 0 26 3.5t32 20.5q9 10 17 24.5t13.5 35.5t9 50.5t3.5 69.5z" />
    <glyph glyph-name="p" unicode="p" horiz-adv-x="597" 
d="M567 245q0 -44 -10 -80.5t-28 -65.5q-32 -53 -87 -80.5t-124 -27.5q-9 0 -37 1.5t-57 9.5v-101q0 -47 2.5 -68.5t10.5 -32.5q7 -10 19.5 -15.5t24.5 -7.5t21.5 -2.5t11.5 -0.5v-19q-15 1 -36 1.5t-43 1t-42.5 1t-33.5 0.5h-30t-36 -0.5t-37.5 -1.5t-34.5 -2v18
q10 0 24 4.5t25 17.5q6 7 10 16.5t5.5 24.5t2 37.5t0.5 54.5v380q0 48 -1.5 70t-9.5 33q-5 7 -12.5 11.5t-15 6.5t-14.5 2.5t-11 0.5v19q14 -1 50 1t80 8q37 4 62 12l6 -3v-53q27 31 63.5 44t78.5 13q38 0 74.5 -12.5t65 -39.5t46 -70.5t17.5 -105.5zM420 227q0 39 -6 73.5
t-20.5 60t-38.5 40.5t-60 15q-19 0 -40 -6t-31 -15v-326q1 -2 6 -8t14.5 -13t24 -12t35.5 -5q33 0 55 15t35.5 41.5t19.5 62t6 77.5z" />
    <glyph glyph-name="q" unicode="q" horiz-adv-x="590" 
d="M573 -245q-15 1 -32.5 1.5t-36 1t-35.5 1t-30 0.5t-30 -0.5t-35 -1t-35.5 -1t-32.5 -1.5v18q10 0 24 4.5t25 17.5q6 7 10 16.5t5.5 24.5t2 37.5t0.5 54.5v118q-20 -23 -56 -39t-84 -16q-38 0 -74.5 12.5t-65 39.5t-46 70.5t-17.5 105.5q0 70 26 124q29 63 87.5 96.5
t134.5 33.5q61 0 98 -11.5t55 -22.5l69 37l14 -8q-3 -27 -4 -78t-1 -108v-384q0 -47 2.5 -68t10.5 -32q6 -8 18.5 -15.5t32.5 -9.5v-18zM373 395q-1 2 -6 8t-14.5 13t-24 12t-35.5 5q-33 0 -55.5 -15t-36 -41.5t-19 -62t-5.5 -76.5q0 -39 6 -74t20.5 -60.5t38.5 -40.5
t60 -15q19 0 40 6t31 15v326z" />
    <glyph glyph-name="r" unicode="r" horiz-adv-x="442" 
d="M393 324h-9q-1 2 -7.5 13.5t-18.5 25t-30 24t-43 10.5q-16 0 -29 -2t-26 -10v-241q0 -47 2.5 -68.5t10.5 -32.5q7 -10 19.5 -15.5t24.5 -7.5t21.5 -2.5t11.5 -0.5v-19q-15 1 -36 1.5t-43 1t-42.5 1t-33.5 0.5h-30t-36 -0.5t-37.5 -1.5t-34.5 -2v18q10 0 24 4.5t25 17.5
q6 7 10 16.5t5.5 24.5t2 37.5t0.5 54.5v137q0 48 -1.5 70t-9.5 33q-5 7 -12.5 11.5t-15 6.5t-14.5 2.5t-11 0.5v19q14 -1 50 1t80 8q37 4 62 12l6 -3v-64q23 33 58 50t72 17q28 0 52 -7t42 -25v-10z" />
    <glyph glyph-name="s" unicode="s" horiz-adv-x="412" 
d="M372 138q0 -12 -4.5 -36t-23.5 -48t-58 -42.5t-109 -18.5q-38 0 -74.5 4.5t-62.5 14.5v26q0 18 -0.5 30.5t-1 22.5t-1.5 18.5t-2 19.5h21q2 -23 9.5 -39.5t21.5 -29.5q30 -27 81 -27q13 0 28.5 2.5t28.5 9t21.5 18.5t8.5 32q0 28 -17 42.5t-38 27.5l-72 43
q-46 28 -63.5 56.5t-17.5 70.5q0 17 6.5 40.5t25 45.5t53 37t91.5 15q32 0 57 -1.5t42 -3.5q19 -3 34 -5q-1 -4 -1.5 -13t-1 -18.5t-0.5 -17v-7.5q1 -20 0.5 -32t1.5 -23h-21q-1 34 -24 58q-10 11 -28.5 18t-48.5 7q-6 0 -18.5 -1t-24.5 -6.5t-21 -17.5t-9 -33
q0 -26 15.5 -41t40.5 -29l69 -39q10 -6 25 -15.5t28.5 -24.5t23.5 -37t10 -53z" />
    <glyph glyph-name="t" unicode="t" horiz-adv-x="390" 
d="M384 44q-16 -17 -52 -34t-96 -17q-71 0 -102.5 24.5t-41.5 65.5q-3 14 -4.5 35.5t-1.5 68.5v61v52.5t0.5 52.5t1.5 61h-63v19q5 2 15.5 7t23 11.5t25 15t23.5 17.5q13 11 27.5 26t27 30t23 28.5t16.5 21.5h17v-126h159v-50h-159v-249q0 -23 2.5 -45t12 -38.5t29 -26.5
t53.5 -10q22 0 36 5t20 7z" />
    <glyph glyph-name="u" unicode="u" horiz-adv-x="615" 
d="M591 14q-17 1 -51.5 -1.5t-69.5 -7.5q-23 -4 -42.5 -7t-30.5 -8l-4 3v53q-2 -2 -12.5 -11t-29 -19t-46.5 -18t-64 -8q-62 0 -99.5 24t-50.5 77q-4 16 -5 42.5t-1 49.5v125q0 48 -1.5 70t-9.5 33q-5 7 -12.5 11.5t-15 6.5t-14.5 2.5t-11 0.5v19q14 -1 52.5 1t82.5 8
q37 4 62 12l6 -3q0 -6 -0.5 -29t-1 -50t-1 -52.5t-0.5 -35.5v-32.5v-40.5t0.5 -40.5t1.5 -32.5q1 -16 3.5 -34.5t11.5 -35t27 -27.5t51 -11q27 0 46.5 6.5t28.5 13.5v240q0 48 -1.5 70t-9.5 33q-5 7 -12.5 11.5t-15 6.5t-14.5 2.5t-11 0.5v19q14 -1 52.5 1t82.5 8
q37 4 62 12l6 -3q-2 -26 -2.5 -76.5t-0.5 -107.5v-129q0 -48 1 -69.5t9 -32.5q5 -8 13 -12t16.5 -6t15 -2.5t9.5 -0.5v-19z" />
    <glyph glyph-name="v" unicode="v" horiz-adv-x="496" 
d="M521 449q-21 1 -33 -10t-16 -18q-2 -3 -5.5 -10l-7 -14t-6.5 -13.5t-4 -9.5l-163 -375l-71 -9l-154 387q-4 9 -9.5 21.5t-10.5 23.5q-1 1 -3.5 6t-7.5 9.5t-14 8t-22 3.5v18q11 -1 28 -1.5t35.5 -1t35.5 -1t28 -0.5t27.5 0.5t34 1t33.5 1t27 1.5v-18q-10 0 -20 -2t-18 -7
q-13 -8 -13 -24q0 -10 4 -22.5t12 -33.5l58 -154q7 -18 11.5 -32t7.5 -25l6 -21l88 231q15 40 15 58q0 15 -11 23q-8 5 -17.5 7t-19.5 2v18q22 -2 41.5 -3t41.5 -1q23 0 46 1t46 3v-18z" />
    <glyph glyph-name="w" unicode="w" horiz-adv-x="764" 
d="M777 449q-21 2 -31.5 -8t-15.5 -17q-7 -10 -17.5 -38t-27.5 -75l-116 -313l-85 -14l-80 241q-4 10 -7 23t-6 25l-7 28l-98 -302l-95 -14l-103 318q-14 42 -24 74.5t-18 45.5q-4 7 -14 16.5t-33 9.5v18q11 -1 27 -1.5t33 -1t33 -1t27 -0.5t28.5 0.5t35.5 1t35 1t28 1.5
v-18q-11 0 -22.5 -2t-19.5 -8q-12 -9 -12 -26q0 -11 3 -22.5t10 -32.5l46 -150q3 -11 7 -25.5t8 -28.5l8 -32l111 341l71 12l85 -271q3 -10 6.5 -24t7.5 -28q4 -16 9 -33l74 237q8 25 10.5 38t2.5 21q0 16 -12 25q-8 5 -19 7t-22 2v18q26 -2 45.5 -3t46.5 -1q23 0 43 1t44 3
v-18z" />
    <glyph glyph-name="x" unicode="x" horiz-adv-x="538" 
d="M538 -2q-32 2 -64.5 3t-64.5 1q-33 0 -70 -1t-69 -3v18q6 0 19 2.5t21 10.5q4 4 7 9t3 14q0 10 -4.5 20.5t-17.5 27.5l-68 91l-58 -88q-13 -20 -18.5 -31.5t-5.5 -21.5q0 -6 1.5 -11.5t7.5 -11.5q7 -7 20 -9.5t17 -1.5v-18q-23 2 -46.5 3t-44.5 1q-23 0 -45.5 -1
t-48.5 -3v18q21 2 32 11.5t19 18.5q5 5 19.5 23.5t36.5 46.5l87 111l-92 123q-15 20 -32 43.5t-32 38.5q-11 11 -18 13.5t-17 3.5v18q32 -2 61 -3t61 -1q33 0 67 1t66 3v-18q-8 -1 -14.5 -3t-12.5 -7q-11 -8 -11 -25q0 -10 4.5 -20.5t17.5 -27.5l55 -74l46 71q14 21 18.5 33
t4.5 20q0 6 -1 12t-7 11q-5 5 -12.5 7t-16.5 3v18q23 -2 44 -3t36 -1q23 0 45 1.5t45 2.5v-18q-21 -2 -32 -11.5t-19 -18.5q-5 -5 -19.5 -23.5t-36.5 -46.5l-70 -90l108 -145q25 -33 39 -51.5t25 -29.5t18 -14t17 -3v-18z" />
    <glyph glyph-name="y" unicode="y" horiz-adv-x="492" 
d="M515 449q-21 0 -32 -10.5t-16 -17.5q-2 -3 -5.5 -11t-7 -16.5t-7 -16.5t-4.5 -12l-175 -481q-10 -27 -22 -54t-31.5 -49t-49 -35.5t-73.5 -13.5q-74 0 -112 33v9l47 65h9q9 -25 25.5 -39.5t41.5 -14.5q22 0 37.5 8t27.5 23.5t21.5 37.5t20.5 50l17 46l-174 426
q-4 9 -9.5 22t-10.5 24q-1 1 -3.5 6t-7.5 9.5t-14 8t-22 3.5v18q12 -1 29 -1.5t35 -1t35 -1t28 -0.5t27 0.5t33 1t33 1t27 1.5v-18q-10 0 -19 -2t-17 -7q-13 -8 -13 -24q0 -10 4 -22.5t12 -33.5l58 -147q14 -35 23 -62.5t14 -46.5l78 252q7 20 11 35.5t4 25.5q0 16 -10 23
q-13 9 -35 9v18q22 -2 40 -3t40 -1q23 0 46 1t46 3v-18z" />
    <glyph glyph-name="z" unicode="z" horiz-adv-x="447" 
d="M419 129q-2 -17 -2.5 -39.5t-0.5 -42.5v-47h-392v33l240 392h-81q-42 0 -62.5 -4t-34.5 -16q-9 -8 -14.5 -22t-6.5 -31h-21q2 17 2.5 37t0.5 37v39h370v-28l-242 -393h99q31 0 54.5 2.5t40.5 14.5q13 10 20 25.5t9 42.5h21z" />
    <glyph glyph-name="braceleft" unicode="{" horiz-adv-x="417" 
d="M382 -268q-68 2 -113 17.5t-75 46.5q-14 14 -23 30t-14 36.5t-7.5 48t-2.5 65.5v100q0 34 -4.5 58t-16.5 40.5t-34 26.5t-57 18v26q35 7 57 17.5t34 27t16.5 40t4.5 58.5v100q0 38 2.5 65.5t7.5 48t14 36.5t23 30q30 31 75 46.5t113 17.5v-37q-32 -4 -52 -14t-34 -30
t-18.5 -43.5t-4.5 -71.5v-90q0 -59 -6 -93t-21 -59q-16 -27 -48 -42t-72 -20q40 -5 72 -20t48 -41q20 -33 23.5 -73.5t3.5 -78.5v-91q0 -47 4.5 -71t18.5 -43q14 -20 34 -30t52 -14v-38z" />
    <glyph glyph-name="bar" unicode="|" horiz-adv-x="251" 
d="M85 -268v1000h81v-1000h-81z" />
    <glyph glyph-name="braceright" unicode="}" horiz-adv-x="417" 
d="M382 219q-35 -7 -57 -17.5t-34 -27t-16.5 -40.5t-4.5 -58v-100q0 -38 -2.5 -65.5t-7.5 -48t-14.5 -36.5t-22.5 -30q-30 -31 -75 -46.5t-113 -17.5v38q32 4 52 14t34 30q14 19 18.5 43t4.5 71v91q0 38 3.5 78.5t23.5 73.5q16 26 48 41t72 20q-40 5 -72 20t-48 42
q-15 25 -21 59t-6 93v90q0 48 -4.5 71.5t-18.5 43.5t-34 30t-52 14v37q68 -2 113 -17.5t75 -46.5q13 -14 22.5 -30t14.5 -36.5t7.5 -48t2.5 -65.5v-100q0 -35 4.5 -58.5t16.5 -40t34 -27t57 -17.5v-26z" />
    <glyph glyph-name="asciitilde" unicode="~" horiz-adv-x="626" 
d="M606 412q-18 -86 -53 -122.5t-89 -36.5q-32 0 -65 10t-62 21l-67 26q-47 18 -74 23.5t-44 5.5q-36 0 -64.5 -22t-47.5 -76l-20 7q18 86 52.5 122.5t88.5 36.5q32 0 65.5 -10t62.5 -21l67 -26q46 -18 73.5 -23.5t44.5 -5.5q36 0 64 22t47 76z" />
    <glyph glyph-name="uni00A0" unicode="&#xa0;" horiz-adv-x="190" 
 />
    <glyph glyph-name="exclamdown" unicode="&#xa1;" horiz-adv-x="370" 
d="M256 398q0 -41 -25.5 -60t-56.5 -19q-14 0 -28 4.5t-25.5 13.5t-19 24t-7.5 36q0 41 25.5 60t55.5 19q14 0 28.5 -4.5t26 -13.5t19 -24t7.5 -36zM260 -124q0 -17 -3.5 -32.5t-13.5 -26.5t-26.5 -17.5t-41.5 -6.5q-26 0 -42 6.5t-26 17.5t-13.5 26.5t-3.5 32.5
q0 18 1 29.5t2 23.5q4 41 13 98.5t19 111.5q11 62 25 129h50q14 -67 25 -129q10 -54 19 -111.5t13 -98.5q1 -12 2 -23.5t1 -29.5z" />
    <glyph glyph-name="cent" unicode="&#xa2;" horiz-adv-x="442" 
d="M385 356h-10q-4 7 -9 19t-14 24t-22.5 21.5t-34.5 12.5v-376q8 -2 16 -2h16q29 0 52 7t39 15l10 -13q-14 -17 -46.5 -38.5t-86.5 -29.5v-66h-46v63q-17 0 -39.5 2.5t-47 10.5t-48 23.5t-42.5 40.5t-30.5 62.5t-11.5 89.5q0 50 15 93t43 76t68.5 53.5t92.5 26.5v65h46v-63
q51 -1 90.5 -10.5t51.5 -17.5v-10zM249 430q-12 -5 -25.5 -15t-24.5 -30.5t-18 -53.5t-7 -83q0 -72 20 -114.5t55 -62.5v359z" />
    <glyph glyph-name="sterling" unicode="&#xa3;" horiz-adv-x="544" 
d="M540 119q-5 -17 -11 -34q-5 -15 -12.5 -32t-17.5 -31q-15 -23 -38 -37.5t-55 -14.5q-15 0 -28 1.5t-28 4.5t-33.5 8t-42.5 13l-123 39q-7 2 -18.5 5t-17.5 3q-17 -29 -39 -45t-45 -16q-14 0 -22.5 7.5t-8.5 19.5q0 21 24.5 39t66.5 26q11 29 15 64.5t4 86.5v96h-89v48h89
v55q0 24 1 48.5t5.5 47.5t14.5 45t28 42q31 32 80 47t115 15q25 0 50.5 -2.5t48 -6t40 -9t28.5 -11.5v-10l-49 -77h-10q-12 25 -26.5 40t-29 23t-29 11t-26.5 3q-39 0 -59.5 -13t-30.5 -33.5t-11.5 -45.5t-1.5 -50v-119h209v-48h-209v-48q0 -59 -21 -96.5t-58 -70.5
q-13 -12 -21.5 -17.5t-22.5 -15.5q28 15 55.5 21.5t56.5 6.5q22 0 41.5 -3.5t40.5 -8.5q5 -1 20 -5t34 -8.5t38 -8t33 -3.5q29 0 44.5 14.5t32.5 47.5z" />
    <glyph glyph-name="currency" unicode="&#xa4;" horiz-adv-x="607" 
d="M503 131l-66 63q-19 -13 -35 -21.5t-31.5 -13.5t-32 -7t-35.5 -2q-20 0 -36 2t-31.5 7.5t-31 14t-34.5 21.5l-67 -64l-35 34l68 65q-28 37 -37.5 65t-9.5 66q0 36 10 64.5t37 66.5l-68 65l35 33l67 -64q19 13 34.5 21.5t31 13.5t31.5 7.5t36 2.5q19 0 35.5 -2.5t32 -7.5
t31.5 -14t35 -22l66 65l35 -33l-67 -65q13 -19 22.5 -35t14.5 -31t7.5 -31t2.5 -34q0 -38 -9.5 -66t-37.5 -65l67 -65zM451 361q0 30 -11.5 56t-32 45.5t-47 30.5t-56.5 11q-31 0 -58 -11t-47 -30.5t-31.5 -45.5t-11.5 -56t11.5 -56.5t31.5 -46t47 -31t58 -11.5
q30 0 56.5 11.5t47 31t32 46t11.5 56.5z" />
    <glyph glyph-name="yen" unicode="&#xa5;" horiz-adv-x="549" 
d="M593 640q-21 -2 -32 -12.5t-19 -18.5q-5 -6 -17 -23t-29 -49l-142 -263h115v-36h-116v-45h116v-35h-116v-16q0 -47 2.5 -68t10.5 -31q6 -9 16.5 -14t21.5 -8t20 -3.5t13 -0.5v-19q-15 1 -36 1.5t-42.5 1t-42 1t-33.5 0.5t-33.5 -0.5t-42.5 -1t-43 -1t-36 -1.5v18
q3 0 11.5 1t19 3.5t21 7t17.5 12.5q6 7 10 16t5.5 22.5t2 33t0.5 46.5h-116v35h116v45h-116v36h114l-147 266q-23 42 -35.5 60t-18.5 24q-11 11 -18.5 13t-18.5 3v18q9 -1 25 -1.5t34 -1t37 -1t35 -0.5h34t39.5 0.5t36 1.5t25.5 2v-18q-8 0 -19 -2.5t-19 -8.5
q-12 -10 -12 -24q0 -13 5.5 -25t11.5 -23l121 -228l103 223q4 8 10.5 24t6.5 30t-8 21q-7 6 -16.5 8.5t-23.5 4.5v18q14 -2 41 -3t56 -1q21 0 47 1t48 3v-18z" />
    <glyph glyph-name="brokenbar" unicode="&#xa6;" horiz-adv-x="202" 
d="M70 377v251h62v-251h-62zM70 -126v252h62v-252h-62z" />
    <glyph glyph-name="section" unicode="&#xa7;" 
d="M470 252q0 -45 -21 -74t-47.5 -47t-49.5 -25.5t-27 -8.5q49 -28 71 -62.5t22 -76.5q0 -69 -50.5 -106.5t-142.5 -37.5q-54 0 -96.5 9.5t-55.5 18.5v10l52 79h10q4 -9 11.5 -22.5t19.5 -25.5t30 -21t44 -9q30 0 51.5 15t21.5 47q0 25 -13 43t-47 38l-131 79
q-17 10 -33.5 22.5t-29.5 29.5t-21 39.5t-8 52.5q0 45 21 74t47.5 47t49.5 25.5t27 8.5q-49 28 -71 62.5t-22 76.5q0 69 50.5 106.5t142.5 37.5q54 0 96.5 -9.5t55.5 -18.5v-10l-52 -79h-10q-5 9 -12 22.5t-19 25.5t-30 21t-44 9q-30 0 -51.5 -15t-21.5 -47q0 -25 13 -43
t47 -38l131 -79q17 -10 33.5 -22.5t29.5 -29.5t21 -39.5t8 -52.5zM354 209q0 22 -6.5 38t-18.5 29t-29 24t-38 23l-64 37q-52 -38 -52 -98q0 -22 6.5 -38t18.5 -29t29 -24t38 -23l64 -37q52 38 52 98z" />
    <glyph glyph-name="dieresis" unicode="&#xa8;" 
d="M217 609q0 -31 -17.5 -47.5t-48.5 -16.5q-30 0 -47 16.5t-17 46.5q0 32 17 48.5t49 16.5q30 0 47 -17t17 -47zM406 609q0 -31 -17.5 -47.5t-48.5 -16.5q-30 0 -47 16.5t-17 46.5q0 32 17 48.5t49 16.5q30 0 47 -17t17 -47z" />
    <glyph glyph-name="copyright" unicode="&#xa9;" horiz-adv-x="827" 
d="M792 320q0 -84 -28.5 -155t-79 -122t-120.5 -79.5t-153 -28.5t-152.5 28.5t-119 79.5t-77 122t-27.5 155t28.5 155t79 122t120.5 79.5t153 28.5t152.5 -28.5t119 -79.5t77 -122t27.5 -155zM723 320q0 70 -23 129.5t-63.5 103.5t-97 69t-123.5 25q-68 0 -125.5 -24.5
t-99 -68.5t-64.5 -104t-23 -130t23 -129.5t63.5 -103.5t97 -69t123.5 -25q68 0 125.5 24.5t99 68.5t64.5 103.5t23 130.5zM543 453q0 24 -17 39q-16 13 -38 17t-37 4q-22 0 -48 -5t-48.5 -24t-37.5 -57.5t-15 -104.5q0 -41 8 -74.5t26 -58.5t47 -38.5t70 -13.5q17 0 38 4.5
t34 19.5q14 16 14 41h13q-1 -14 -2 -30t-1 -39v-11q-22 -8 -52.5 -11.5t-55.5 -3.5q-62 0 -109.5 18.5t-77.5 55.5q-20 25 -31 58t-11 76q0 42 11 76.5t30.5 61t46.5 45.5t58 30q26 9 52.5 11.5t45.5 2.5q38 0 66.5 -3.5t33.5 -3.5q-1 -9 -1 -19.5v-21.5v-23t1 -18h-13z" />
    <glyph glyph-name="ordfeminine" unicode="&#xaa;" horiz-adv-x="343" 
d="M318 471q-15 -21 -33 -31t-44 -10q-28 0 -38.5 12t-13.5 22q-32 -36 -79 -36q-29 0 -45 9t-23.5 21.5t-9.5 25t-2 19.5q0 33 19.5 50t40.5 22q22 5 47.5 6.5t48.5 0.5v13q0 10 -0.5 25t-3.5 24q-7 20 -21.5 25.5t-28.5 5.5q-23 0 -35.5 -9t-22.5 -23l-16 11q1 5 7 15
t18 20.5t31.5 18.5t48.5 8q27 0 54 -8.5t41 -34.5q7 -13 8.5 -25.5t2.5 -26.5q2 -26 0 -52.5t-2 -52.5q0 -13 3 -27t21 -14q7 0 9.5 1.5t7.5 3.5zM186 559q-6 0 -23 -2t-27 -7q-22 -12 -22 -38q0 -19 10 -30t29 -11q20 0 33 9v79z" />
    <glyph glyph-name="guillemotleft" unicode="&#xab;" horiz-adv-x="433" 
d="M295 31l-94 203l94 203h93l-82 -203l82 -203h-93zM114 31l-94 203l94 203h93l-82 -203l82 -203h-93z" />
    <glyph glyph-name="logicalnot" unicode="&#xac;" horiz-adv-x="550" 
d="M464 194v136h-441v62h504v-198h-63z" />
    <glyph glyph-name="uni00AD" unicode="&#xad;" horiz-adv-x="239" 
d="M10 203v83h219v-83h-219z" />
    <glyph glyph-name="registered" unicode="&#xae;" horiz-adv-x="827" 
d="M792 320q0 -84 -28.5 -155t-79 -122t-120.5 -79.5t-153 -28.5t-152.5 28.5t-119 79.5t-77 122t-27.5 155t28.5 155t79 122t120.5 79.5t153 28.5t152.5 -28.5t119 -79.5t77 -122t27.5 -155zM723 320q0 70 -23 129.5t-63.5 103.5t-97 69t-123.5 25q-68 0 -125.5 -24.5
t-99 -68.5t-64.5 -104t-23 -130t23 -129.5t63.5 -103.5t97 -69t123.5 -25q68 0 125.5 24.5t99 68.5t64.5 103.5t23 130.5zM645 115q-8 -2 -19.5 -2.5t-38.5 -0.5q-25 0 -41 4t-28 12t-22 19.5t-22 26.5q-6 7 -16.5 20.5t-23.5 31t-27 36t-26 35.5h-32v-90q0 -31 1.5 -44
t6.5 -21q2 -2 10 -8.5t26 -8.5v-11q-20 1 -43 1.5t-40 0.5t-39.5 -0.5t-42.5 -1.5v11q7 1 15.5 4t16.5 11q8 9 10 27t2 59v224q0 31 -1.5 44t-6.5 21q-1 2 -8.5 8.5t-25.5 8.5v11q20 -1 34.5 -1.5t31.5 -0.5q18 0 29 0.5t20 0.5t19 0.5t26 0.5q11 0 31 -1t40 -6
q31 -8 48 -22t25.5 -30t10.5 -30t2 -20q0 -46 -27 -77t-70 -45l114 -129q23 -27 41.5 -41.5t39.5 -15.5v-11zM463 423q0 34 -9.5 53t-22.5 28t-27.5 11.5t-23.5 2.5q-7 0 -15.5 -0.5t-15.5 -1.5v-193q8 -2 33 -2h14.5t13.5 2l12 4t18 13.5t16 30t7 52.5z" />
    <glyph glyph-name="macron" unicode="&#xaf;" 
d="M123 553v70h253v-70h-253z" />
    <glyph glyph-name="degree" unicode="&#xb0;" horiz-adv-x="418" 
d="M358 595q0 -33 -11.5 -60t-31.5 -46t-47.5 -29.5t-58.5 -10.5q-33 0 -60 10.5t-47 29.5t-31 46t-11 60t11.5 60t31.5 46t47 29.5t59 10.5q33 0 60 -10.5t47 -29.5t31 -46t11 -60zM307 595q0 45 -27.5 73t-70.5 28t-70.5 -28t-27.5 -73t27.5 -73t70.5 -28t70.5 28t27.5 73
z" />
    <glyph glyph-name="plusminus" unicode="&#xb1;" horiz-adv-x="550" 
d="M307 337v-226h-65v226h-219v63h219v226h65v-226h220v-63h-220zM23 0v62h504v-62h-504z" />
    <glyph glyph-name="uni00B2" unicode="&#xb2;" horiz-adv-x="319" 
d="M278 430q-2 -15 -4 -46t-2 -66h-252v37q32 28 67.5 57t58.5 67q17 27 24.5 50.5t7.5 52.5q0 26 -7.5 41.5t-18.5 23t-23 9.5t-21 2q-27 0 -43.5 -11.5t-28.5 -29.5l-13 10q12 27 29.5 41.5t36.5 21.5t35.5 8t25.5 1q25 0 47 -6t38.5 -19t26 -33t9.5 -47q0 -32 -15.5 -66
t-63.5 -76q-14 -12 -29 -23.5t-29.5 -21.5t-26.5 -17.5t-19 -11.5h100q20 0 34 2t22 10q11 11 14 40h20z" />
    <glyph glyph-name="uni00B3" unicode="&#xb3;" horiz-adv-x="305" 
d="M272 428q0 -20 -6.5 -40t-23 -36.5t-43.5 -26.5t-68 -10q-37 0 -69 11.5t-52 32.5l11 16q15 -10 32.5 -16t42.5 -6q47 0 67 22.5t20 57.5q0 32 -17.5 52.5t-58.5 20.5q-5 0 -9 -0.5t-7 -0.5h-7v27h13q9 0 22 2t25 8.5t20.5 20t8.5 37.5q0 1 -1 10.5t-6 20.5t-17.5 20
t-34.5 9q-17 0 -28.5 -4.5t-19.5 -11t-13.5 -13.5t-8.5 -13l-15 10q10 27 27 41.5t34.5 21.5t33.5 8.5t24 1.5t26 -1.5t36.5 -10t32.5 -26t14 -48.5q0 -32 -15 -50.5t-32 -27.5q-21 -11 -47 -14q30 -1 54 -12q20 -9 37.5 -28t17.5 -55z" />
    <glyph glyph-name="acute" unicode="&#xb4;" 
d="M353 651l-176 -133l-20 13l78 175l6 3l113 -43z" />
    <glyph glyph-name="mu" unicode="&#xb5;" horiz-adv-x="576" 
d="M545 41q-14 -17 -32.5 -32t-53.5 -15q-19 0 -31 6t-18.5 15t-9 19.5t-2.5 19.5q-4 -6 -13 -16t-24.5 -20t-37.5 -17.5t-51 -7.5q-30 0 -49 6t-31 14t-17.5 15.5t-8.5 9.5v-186q-14 -2 -31 -4.5t-31 -6.5q-34 -8 -65 -21l-6 14q25 12 33 20.5t18 23.5q6 9 8.5 22.5t4 29
t1.5 30v25.5v320q0 47 -2 69t-9 33q-10 15 -22.5 17.5t-20.5 3.5v16q11 -1 32.5 1t44.5 6q36 6 53 14l4 -3q-3 -26 -4 -77.5t-1 -107.5v-74.5t5 -72.5q14 -97 121 -97q34 0 58.5 10.5t38.5 20.5v241q0 47 -1 69t-9 33q-10 15 -22.5 17.5t-20.5 3.5v16q11 -1 33 1t45 6
q34 6 52 14l4 -3q-2 -26 -2.5 -77.5t-0.5 -108.5v-166q0 -11 0.5 -22.5t4.5 -21.5t12 -16t23 -6q14 0 22 7z" />
    <glyph glyph-name="paragraph" unicode="&#xb6;" horiz-adv-x="450" 
d="M430 640q-10 0 -23.5 -4.5t-25.5 -17.5q-6 -7 -9.5 -17t-5 -25.5t-2 -38t-0.5 -54.5v-482q0 -79 -13.5 -136t-54.5 -90q-26 -21 -64 -32t-97 -11q-54 0 -93 9.5t-52 19.5v10l52 79h10q4 -9 11 -22.5t18.5 -26t29 -21.5t43.5 -9q40 0 60.5 14t29 39.5t9 60.5t0.5 76v264
q-42 2 -82.5 14t-72 37.5t-51 66t-19.5 97.5q0 40 10.5 71.5t28 55.5t40 41t45.5 27q38 16 82.5 18t88.5 2h17t27 0.5t32 1t31 1.5v-18z" />
    <glyph glyph-name="periodcentered" unicode="&#xb7;" horiz-adv-x="273" 
d="M217 285q0 -31 -19.5 -54.5t-61.5 -23.5t-61 23.5t-19 55.5q0 31 19.5 54.5t61.5 23.5t61 -23.5t19 -55.5z" />
    <glyph glyph-name="cedilla" unicode="&#xb8;" horiz-adv-x="405" 
d="M289 0l-28 -45q16 -2 33 -7t31 -14.5t23 -24t9 -35.5q0 -23 -11.5 -39t-29.5 -27t-39.5 -16t-41.5 -5q-34 0 -61 11l6 23q17 -4 31 -4q28 0 40 16t12 31q0 23 -16 33.5t-46 13.5l-2 3l47 86h43z" />
    <glyph glyph-name="uni00B9" unicode="&#xb9;" horiz-adv-x="283" 
d="M250 317q-22 1 -49 2t-46 1q-20 0 -46.5 -1t-48.5 -2v17q8 1 20.5 4t20.5 12q9 10 11 30t2 67v172q0 8 -11 8q-3 0 -11 -1t-17 -2.5l-18 -3t-13 -2.5v22q12 3 35 11t61 23q14 6 26.5 12.5t22.5 14.5l10 -6q0 -16 -1 -28.5t-1.5 -26.5t-1 -32.5t-0.5 -46.5v-135
q0 -35 2 -50t7 -23q5 -7 16 -12t30 -7v-17z" />
    <glyph glyph-name="ordmasculine" unicode="&#xba;" horiz-adv-x="356" 
d="M326 574q0 -19 -6 -44t-22.5 -48t-46 -39t-77.5 -16q-72 0 -108 39.5t-36 102.5q0 19 5.5 44t22 48t46.5 39t78 16q72 0 108 -39.5t36 -102.5zM237 572q0 42 -7 65.5t-16.5 35t-20 14t-17.5 2.5q-5 0 -13.5 -2t-17.5 -11q-11 -11 -18.5 -35t-7.5 -70q0 -42 7 -65.5
t16.5 -35t20 -14t17.5 -2.5q5 0 13.5 2t17.5 11q11 11 18.5 35t7.5 70z" />
    <glyph glyph-name="guillemotright" unicode="&#xbb;" horiz-adv-x="433" 
d="M319 31h-93l82 203l-82 203h93l94 -203zM139 31h-94l82 203l-82 203h94l93 -203z" />
    <glyph glyph-name="onequarter" unicode="&#xbc;" horiz-adv-x="646" 
d="M230 277q-22 1 -49 2t-46 1q-20 0 -46.5 -1t-48.5 -2v17q8 1 20.5 4t20.5 12q9 10 11 30t2 67v172q0 8 -11 8q-3 0 -11 -1t-17 -2.5l-18 -3t-13 -2.5v22q12 3 35 11t61 23q14 6 26.5 12.5t22.5 14.5l10 -6q0 -16 -1 -28.5t-1.5 -26.5t-1 -32.5t-0.5 -46.5v-135
q0 -35 2 -50t7 -23q5 -7 16 -12t30 -7v-17zM160 -16h-51l413 696h52zM608 0q2 0 -18 1.5t-54 1.5q-19 0 -38 -0.5t-34.5 -1t-25 -1t-7.5 -0.5v21q26 0 38.5 16t12.5 53v16h-164v37l200 238l44 -12q-1 -34 -0.5 -66t0.5 -66v-79h51v-52h-51v-28q0 -29 8.5 -42t37.5 -15v-21z
M482 294l-112 -136h112v136z" />
    <glyph glyph-name="onehalf" unicode="&#xbd;" horiz-adv-x="646" 
d="M206 277q-22 1 -49 2t-46 1q-20 0 -46.5 -1t-48.5 -2v17q8 1 20.5 4t20.5 12q9 10 11 30t2 67v172q0 8 -11 8q-3 0 -11 -1t-17 -2.5l-18 -3t-13 -2.5v22q12 3 35 11t61 23q14 6 26.5 12.5t22.5 14.5l10 -6q0 -16 -1 -28.5t-1.5 -26.5t-1 -32.5t-0.5 -46.5v-135
q0 -35 2 -50t7 -23q5 -7 16 -12t30 -7v-17zM130 -16h-51l413 696h52zM627 112q-2 -15 -4 -46t-2 -66h-252v37q32 28 67.5 57t58.5 67q17 27 24.5 50.5t7.5 52.5q0 26 -7.5 41.5t-18.5 23t-23 9.5t-21 2q-27 0 -43.5 -11.5t-28.5 -29.5l-13 10q12 27 29.5 41.5t36.5 21.5
t35.5 8t25.5 1q25 0 47 -6t38.5 -19t26 -33t9.5 -47q0 -32 -15.5 -66t-63.5 -76q-14 -12 -29 -23.5t-29.5 -21.5t-26.5 -17.5t-19 -11.5h100q20 0 34 2t22 10q11 11 14 40h20z" />
    <glyph glyph-name="threequarters" unicode="&#xbe;" horiz-adv-x="646" 
d="M276 388q0 -20 -6.5 -40t-23 -36.5t-43.5 -26.5t-68 -10q-37 0 -69 11.5t-52 32.5l11 16q15 -10 32.5 -16t42.5 -6q47 0 67 22.5t20 57.5q0 32 -17.5 52.5t-58.5 20.5q-5 0 -9 -0.5t-7 -0.5h-7v27h13q9 0 22 2t25 8.5t20.5 20t8.5 37.5q0 1 -1 10.5t-6 20.5t-17.5 20
t-34.5 9q-17 0 -28.5 -4.5t-19.5 -11t-13.5 -13.5t-8.5 -13l-15 10q10 27 27 41.5t34.5 21.5t33.5 8.5t24 1.5t26 -1.5t36.5 -10t32.5 -26t14 -48.5q0 -32 -15 -50.5t-32 -27.5q-21 -11 -47 -14q30 -1 54 -12q20 -9 37.5 -28t17.5 -55zM183 -16h-51l413 696h52zM636 0
q2 0 -18 1.5t-54 1.5q-19 0 -38 -0.5t-34.5 -1t-25 -1t-7.5 -0.5v21q26 0 38.5 16t12.5 53v16h-164v37l200 238l44 -12q-1 -34 -0.5 -66t0.5 -66v-79h51v-52h-51v-28q0 -29 8.5 -42t37.5 -15v-21zM510 294l-112 -136h112v136z" />
    <glyph glyph-name="questiondown" unicode="&#xbf;" horiz-adv-x="456" 
d="M342 397q0 -31 -19.5 -54.5t-61.5 -23.5t-61 23.5t-19 55.5q0 31 19.5 54.5t61.5 23.5t61 -23.5t19 -55.5zM411 -188q-22 -3 -47 -6q-21 -2 -48 -3.5t-53 -1.5q-29 0 -68 3.5t-74.5 18t-60.5 44t-25 81.5q0 43 14.5 73.5t39 56.5t56 52t65.5 59q7 7 12 13.5t8 15t4.5 21
t1.5 32.5h54q0 -8 0.5 -15.5t0.5 -25.5q0 -13 -1.5 -26t-5.5 -24q-9 -24 -25 -47t-31.5 -49t-27.5 -56t-12 -68q0 -57 23.5 -85.5t74.5 -28.5q25 0 47.5 7t38.5 31q4 6 10.5 20.5t7.5 35.5h21q-1 -17 -1.5 -33t-0.5 -36v-22.5t1 -18.5q0 -10 1 -18z" />
    <glyph glyph-name="Agrave" unicode="&#xc0;" horiz-adv-x="598" 
d="M613 -2q-11 1 -28 1.5t-35 1t-34.5 1t-27.5 0.5t-29 -0.5t-37.5 -1t-37.5 -1t-29 -1.5v18q18 0 29.5 3.5t17.5 8.5q9 7 9 22q0 9 -3.5 22.5t-11.5 34.5l-48 138h-187l-51 -139q-8 -21 -12 -34t-4 -23q0 -14 8 -21q8 -8 21.5 -9.5t24.5 -2.5v-18q-26 2 -47 3t-48 1
q-24 0 -46.5 -1t-46.5 -3v18q21 -1 32.5 10.5t16.5 18.5q6 9 17.5 35.5t31.5 73.5l208 504l73 13l180 -508q19 -52 31.5 -83t15.5 -36q5 -7 15.5 -18t31.5 -10v-18zM287 423q-8 23 -13.5 40.5t-8.5 28.5q-4 13 -5 21l-83 -224h156zM171 797l86 66l7 -2l141 -135l-13 -20
l-216 76z" />
    <glyph glyph-name="Aacute" unicode="&#xc1;" horiz-adv-x="598" 
d="M613 -2q-11 1 -28 1.5t-35 1t-34.5 1t-27.5 0.5t-29 -0.5t-37.5 -1t-37.5 -1t-29 -1.5v18q18 0 29.5 3.5t17.5 8.5q9 7 9 22q0 9 -3.5 22.5t-11.5 34.5l-48 138h-187l-51 -139q-8 -21 -12 -34t-4 -23q0 -14 8 -21q8 -8 21.5 -9.5t24.5 -2.5v-18q-26 2 -47 3t-48 1
q-24 0 -46.5 -1t-46.5 -3v18q21 -1 32.5 10.5t16.5 18.5q6 9 17.5 35.5t31.5 73.5l208 504l73 13l180 -508q19 -52 31.5 -83t15.5 -36q5 -7 15.5 -18t31.5 -10v-18zM287 423q-8 23 -13.5 40.5t-8.5 28.5q-4 13 -5 21l-83 -224h156zM437 782l-216 -76l-12 18l140 137l7 2
l86 -66z" />
    <glyph glyph-name="Acircumflex" unicode="&#xc2;" horiz-adv-x="598" 
d="M613 -2q-11 1 -28 1.5t-35 1t-34.5 1t-27.5 0.5t-29 -0.5t-37.5 -1t-37.5 -1t-29 -1.5v18q18 0 29.5 3.5t17.5 8.5q9 7 9 22q0 9 -3.5 22.5t-11.5 34.5l-48 138h-187l-51 -139q-8 -21 -12 -34t-4 -23q0 -14 8 -21q8 -8 21.5 -9.5t24.5 -2.5v-18q-26 2 -47 3t-48 1
q-24 0 -46.5 -1t-46.5 -3v18q21 -1 32.5 10.5t16.5 18.5q6 9 17.5 35.5t31.5 73.5l208 504l73 13l180 -508q19 -52 31.5 -83t15.5 -36q5 -7 15.5 -18t31.5 -10v-18zM287 423q-8 23 -13.5 40.5t-8.5 28.5q-4 13 -5 21l-83 -224h156zM304 769l-130 -61l-14 17l123 131l7 2h27
l7 -2l123 -131l-14 -17z" />
    <glyph glyph-name="Atilde" unicode="&#xc3;" horiz-adv-x="598" 
d="M613 -2q-11 1 -28 1.5t-35 1t-34.5 1t-27.5 0.5t-29 -0.5t-37.5 -1t-37.5 -1t-29 -1.5v18q18 0 29.5 3.5t17.5 8.5q9 7 9 22q0 9 -3.5 22.5t-11.5 34.5l-48 138h-187l-51 -139q-8 -21 -12 -34t-4 -23q0 -14 8 -21q8 -8 21.5 -9.5t24.5 -2.5v-18q-26 2 -47 3t-48 1
q-24 0 -46.5 -1t-46.5 -3v18q21 -1 32.5 10.5t16.5 18.5q6 9 17.5 35.5t31.5 73.5l208 504l73 13l180 -508q19 -52 31.5 -83t15.5 -36q5 -7 15.5 -18t31.5 -10v-18zM287 423q-8 23 -13.5 40.5t-8.5 28.5q-4 13 -5 21l-83 -224h156zM484 811q-14 -35 -29.5 -55.5t-30 -32
t-26 -15t-16.5 -3.5q-14 0 -27.5 2t-37.5 12l-48 20q-8 4 -19.5 7t-25.5 3h-1q-14 0 -25.5 -4t-25.5 -24l-24 12q12 35 27.5 56.5t30 33t26.5 15t17 3.5q14 0 26.5 -2.5t36.5 -11.5l53 -20q27 -10 41 -10q17 0 28.5 5t24.5 23z" />
    <glyph glyph-name="Adieresis" unicode="&#xc4;" horiz-adv-x="598" 
d="M613 -2q-11 1 -28 1.5t-35 1t-34.5 1t-27.5 0.5t-29 -0.5t-37.5 -1t-37.5 -1t-29 -1.5v18q18 0 29.5 3.5t17.5 8.5q9 7 9 22q0 9 -3.5 22.5t-11.5 34.5l-48 138h-187l-51 -139q-8 -21 -12 -34t-4 -23q0 -14 8 -21q8 -8 21.5 -9.5t24.5 -2.5v-18q-26 2 -47 3t-48 1
q-24 0 -46.5 -1t-46.5 -3v18q21 -1 32.5 10.5t16.5 18.5q6 9 17.5 35.5t31.5 73.5l208 504l73 13l180 -508q19 -52 31.5 -83t15.5 -36q5 -7 15.5 -18t31.5 -10v-18zM287 423q-8 23 -13.5 40.5t-8.5 28.5q-4 13 -5 21l-83 -224h156zM274 777q0 -31 -17.5 -47.5t-48.5 -16.5
q-30 0 -47 16.5t-17 46.5q0 32 17 48.5t49 16.5q30 0 47 -17t17 -47zM463 777q0 -31 -17.5 -47.5t-48.5 -16.5q-30 0 -47 16.5t-17 46.5q0 32 17 48.5t49 16.5q30 0 47 -17t17 -47z" />
    <glyph glyph-name="Aring" unicode="&#xc5;" horiz-adv-x="598" 
d="M613 -2q-11 1 -28 1.5t-35 1t-34.5 1t-27.5 0.5t-29 -0.5t-37.5 -1t-37.5 -1t-29 -1.5v18q18 0 29.5 3.5t17.5 8.5q9 7 9 22q0 9 -3.5 22.5t-11.5 34.5l-48 138h-187l-51 -139q-8 -21 -12 -34t-4 -23q0 -14 8 -21q8 -8 21.5 -9.5t24.5 -2.5v-18q-26 2 -47 3t-48 1
q-24 0 -46.5 -1t-46.5 -3v18q21 -1 32.5 10.5t16.5 18.5q6 9 17.5 35.5t31.5 73.5l208 504l73 13l180 -508q19 -52 31.5 -83t15.5 -36q5 -7 15.5 -18t31.5 -10v-18zM287 423q-8 23 -13.5 40.5t-8.5 28.5q-4 13 -5 21l-83 -224h156zM305 870q53 0 83.5 -25t30.5 -66t-29 -66
t-85 -25t-85 25t-29 66t30 66t84 25zM305 710q33 0 33 69q0 67 -33 67q-34 0 -34 -67q0 -69 34 -69z" />
    <glyph glyph-name="AE" unicode="&#xc6;" horiz-adv-x="761" 
d="M716 140q-2 -17 -2.5 -41t-0.5 -46v-53h-280h-81t-81 -2v18q10 0 24 4.5t25 17.5q6 7 10 16.5t5.5 24.5t2 37.5t0.5 54.5v136h-133l-106 -203q-4 -8 -11 -24t-7 -30t8 -21q7 -6 16.5 -8.5t23.5 -4.5v-18q-14 2 -41 3t-56 1q-21 0 -47 -1t-48 -3v18q21 2 32 12.5t19 18.5
q5 6 16.5 23t29.5 49l304 538q15 -1 31 -1q13 -1 28 -1h27h286v-47q0 -20 0.5 -42.5t2.5 -39.5h-21q-1 26 -10.5 43t-23.5 25q-8 5 -16.5 8t-20.5 4.5t-28 2t-39 0.5h-82v-256h84q27 0 47 3t34 14q23 18 26 59h21q0 -8 -0.5 -16t-0.5 -18.5t-0.5 -25.5t-0.5 -39v-38t0.5 -25
t1 -17.5t0.5 -16.5h-21q-2 20 -7.5 33t-14.5 21q-16 14 -38.5 17t-48.5 3h-82v-210q0 -17 2 -27t8.5 -15.5t19 -7t32.5 -1.5h17q42 0 71.5 4t48.5 23q10 10 16.5 27t7.5 40h21zM338 569q-6 -15 -14.5 -33t-13.5 -26l-82 -158h110v217z" />
    <glyph glyph-name="Ccedilla" unicode="&#xc7;" horiz-adv-x="595" 
d="M544 526q0 20 -7.5 34t-19.5 24t-26.5 16.5t-30.5 10t-30.5 4.5t-26.5 1q-22 0 -47 -2.5t-50 -12.5t-47.5 -28.5t-40 -51t-28 -80.5t-10.5 -116q0 -63 11.5 -115t38 -89.5t70 -58t106.5 -20.5q27 0 59 6.5t52 30.5q21 23 21 61h21q-2 -22 -3 -47t-1 -60v-17
q-17 -6 -38 -10t-43.5 -6.5t-45.5 -4t-42 -1.5h-9l-24 -39q16 -2 33 -7t31 -14.5t23 -24t9 -35.5q0 -23 -11.5 -39t-29.5 -27t-39.5 -16t-41.5 -5q-34 0 -61 11l6 23q17 -4 31 -4q28 0 40 16t12 31q0 23 -16 33.5t-46 13.5l-2 3l45 82q-78 6 -140.5 33t-102.5 78
q-30 38 -46.5 89t-16.5 117q0 65 17.5 118t47.5 94t71.5 70t89.5 46q19 7 40 11t41 6.5t38.5 3.5t32.5 1q29 0 56 -1.5t48 -4t35.5 -4t17.5 -1.5q-2 -14 -2 -30.5v-31.5q0 -20 0.5 -37t1.5 -27h-21z" />
    <glyph glyph-name="Egrave" unicode="&#xc8;" horiz-adv-x="524" 
d="M479 140q-2 -17 -2.5 -41t-0.5 -46v-53h-280h-83t-83 -2v18q10 0 24 4.5t25 17.5q6 7 10 16.5t5.5 24.5t2 37.5t0.5 54.5v344q0 47 -3 68t-10 32q-6 8 -18.5 15.5t-32.5 9.5v18q42 -2 77 -2.5t77 -0.5h286v-47q0 -20 0.5 -42.5t2.5 -39.5h-21q-1 26 -10.5 43t-23.5 25
q-8 5 -16.5 8t-20.5 4.5t-28 2t-39 0.5h-82v-245h84q27 0 47 3t34 14q23 18 26 59h21q0 -8 -0.5 -16t-0.5 -18.5t-0.5 -25.5t-0.5 -39v-38t0.5 -25t1 -17.5t0.5 -16.5h-21q-2 20 -7.5 33t-14.5 21q-16 14 -38.5 17t-48.5 3h-82v-221q0 -17 2 -27t8.5 -15.5t19 -7t32.5 -1.5
h17q42 0 71.5 4t48.5 23q10 10 16.5 27t7.5 40h21zM142 797l86 66l7 -2l141 -135l-13 -20l-216 76z" />
    <glyph glyph-name="Eacute" unicode="&#xc9;" horiz-adv-x="524" 
d="M479 140q-2 -17 -2.5 -41t-0.5 -46v-53h-280h-83t-83 -2v18q10 0 24 4.5t25 17.5q6 7 10 16.5t5.5 24.5t2 37.5t0.5 54.5v344q0 47 -3 68t-10 32q-6 8 -18.5 15.5t-32.5 9.5v18q42 -2 77 -2.5t77 -0.5h286v-47q0 -20 0.5 -42.5t2.5 -39.5h-21q-1 26 -10.5 43t-23.5 25
q-8 5 -16.5 8t-20.5 4.5t-28 2t-39 0.5h-82v-245h84q27 0 47 3t34 14q23 18 26 59h21q0 -8 -0.5 -16t-0.5 -18.5t-0.5 -25.5t-0.5 -39v-38t0.5 -25t1 -17.5t0.5 -16.5h-21q-2 20 -7.5 33t-14.5 21q-16 14 -38.5 17t-48.5 3h-82v-221q0 -17 2 -27t8.5 -15.5t19 -7t32.5 -1.5
h17q42 0 71.5 4t48.5 23q10 10 16.5 27t7.5 40h21zM408 782l-216 -76l-12 18l140 137l7 2l86 -66z" />
    <glyph glyph-name="Ecircumflex" unicode="&#xca;" horiz-adv-x="524" 
d="M479 140q-2 -17 -2.5 -41t-0.5 -46v-53h-280h-83t-83 -2v18q10 0 24 4.5t25 17.5q6 7 10 16.5t5.5 24.5t2 37.5t0.5 54.5v344q0 47 -3 68t-10 32q-6 8 -18.5 15.5t-32.5 9.5v18q42 -2 77 -2.5t77 -0.5h286v-47q0 -20 0.5 -42.5t2.5 -39.5h-21q-1 26 -10.5 43t-23.5 25
q-8 5 -16.5 8t-20.5 4.5t-28 2t-39 0.5h-82v-245h84q27 0 47 3t34 14q23 18 26 59h21q0 -8 -0.5 -16t-0.5 -18.5t-0.5 -25.5t-0.5 -39v-38t0.5 -25t1 -17.5t0.5 -16.5h-21q-2 20 -7.5 33t-14.5 21q-16 14 -38.5 17t-48.5 3h-82v-221q0 -17 2 -27t8.5 -15.5t19 -7t32.5 -1.5
h17q42 0 71.5 4t48.5 23q10 10 16.5 27t7.5 40h21zM275 769l-130 -61l-14 17l123 131l7 2h27l7 -2l123 -131l-14 -17z" />
    <glyph glyph-name="Edieresis" unicode="&#xcb;" horiz-adv-x="524" 
d="M479 140q-2 -17 -2.5 -41t-0.5 -46v-53h-280h-83t-83 -2v18q10 0 24 4.5t25 17.5q6 7 10 16.5t5.5 24.5t2 37.5t0.5 54.5v344q0 47 -3 68t-10 32q-6 8 -18.5 15.5t-32.5 9.5v18q42 -2 77 -2.5t77 -0.5h286v-47q0 -20 0.5 -42.5t2.5 -39.5h-21q-1 26 -10.5 43t-23.5 25
q-8 5 -16.5 8t-20.5 4.5t-28 2t-39 0.5h-82v-245h84q27 0 47 3t34 14q23 18 26 59h21q0 -8 -0.5 -16t-0.5 -18.5t-0.5 -25.5t-0.5 -39v-38t0.5 -25t1 -17.5t0.5 -16.5h-21q-2 20 -7.5 33t-14.5 21q-16 14 -38.5 17t-48.5 3h-82v-221q0 -17 2 -27t8.5 -15.5t19 -7t32.5 -1.5
h17q42 0 71.5 4t48.5 23q10 10 16.5 27t7.5 40h21zM245 777q0 -31 -17.5 -47.5t-48.5 -16.5q-30 0 -47 16.5t-17 46.5q0 32 17 48.5t49 16.5q30 0 47 -17t17 -47zM434 777q0 -31 -17.5 -47.5t-48.5 -16.5q-30 0 -47 16.5t-17 46.5q0 32 17 48.5t49 16.5q30 0 47 -17t17 -47z
" />
    <glyph glyph-name="Igrave" unicode="&#xcc;" horiz-adv-x="332" 
d="M302 640q-10 0 -24 -4.5t-25 -17.5q-6 -7 -10 -16.5t-5.5 -24.5t-2 -37.5t-0.5 -54.5v-344q0 -47 2.5 -68t10.5 -32q6 -8 18.5 -15.5t32.5 -9.5v-18q-15 1 -33 1.5l-36 1t-35.5 1t-30.5 0.5t-30 -0.5t-35.5 -1t-36 -1t-32.5 -1.5v18q10 0 24 4.5t25 17.5q6 7 10 16.5
t5.5 24.5t2 37.5t0.5 54.5v344q0 47 -3 68t-10 32q-6 8 -18.5 15.5t-32.5 9.5v18q15 -1 33 -1.5l36 -1t35.5 -1t30.5 -0.5t30 0.5t35.5 1t36 1t32.5 1.5v-18zM34 797l86 66l7 -2l141 -135l-13 -20l-216 76z" />
    <glyph glyph-name="Iacute" unicode="&#xcd;" horiz-adv-x="332" 
d="M302 640q-10 0 -24 -4.5t-25 -17.5q-6 -7 -10 -16.5t-5.5 -24.5t-2 -37.5t-0.5 -54.5v-344q0 -47 2.5 -68t10.5 -32q6 -8 18.5 -15.5t32.5 -9.5v-18q-15 1 -33 1.5l-36 1t-35.5 1t-30.5 0.5t-30 -0.5t-35.5 -1t-36 -1t-32.5 -1.5v18q10 0 24 4.5t25 17.5q6 7 10 16.5
t5.5 24.5t2 37.5t0.5 54.5v344q0 47 -3 68t-10 32q-6 8 -18.5 15.5t-32.5 9.5v18q15 -1 33 -1.5l36 -1t35.5 -1t30.5 -0.5t30 0.5t35.5 1t36 1t32.5 1.5v-18zM300 782l-216 -76l-12 18l140 137l7 2l86 -66z" />
    <glyph glyph-name="Icircumflex" unicode="&#xce;" horiz-adv-x="332" 
d="M302 640q-10 0 -24 -4.5t-25 -17.5q-6 -7 -10 -16.5t-5.5 -24.5t-2 -37.5t-0.5 -54.5v-344q0 -47 2.5 -68t10.5 -32q6 -8 18.5 -15.5t32.5 -9.5v-18q-15 1 -33 1.5l-36 1t-35.5 1t-30.5 0.5t-30 -0.5t-35.5 -1t-36 -1t-32.5 -1.5v18q10 0 24 4.5t25 17.5q6 7 10 16.5
t5.5 24.5t2 37.5t0.5 54.5v344q0 47 -3 68t-10 32q-6 8 -18.5 15.5t-32.5 9.5v18q15 -1 33 -1.5l36 -1t35.5 -1t30.5 -0.5t30 0.5t35.5 1t36 1t32.5 1.5v-18zM167 769l-130 -61l-14 17l123 131l7 2h27l7 -2l123 -131l-14 -17z" />
    <glyph glyph-name="Idieresis" unicode="&#xcf;" horiz-adv-x="332" 
d="M302 640q-10 0 -24 -4.5t-25 -17.5q-6 -7 -10 -16.5t-5.5 -24.5t-2 -37.5t-0.5 -54.5v-344q0 -47 2.5 -68t10.5 -32q6 -8 18.5 -15.5t32.5 -9.5v-18q-15 1 -33 1.5l-36 1t-35.5 1t-30.5 0.5t-30 -0.5t-35.5 -1t-36 -1t-32.5 -1.5v18q10 0 24 4.5t25 17.5q6 7 10 16.5
t5.5 24.5t2 37.5t0.5 54.5v344q0 47 -3 68t-10 32q-6 8 -18.5 15.5t-32.5 9.5v18q15 -1 33 -1.5l36 -1t35.5 -1t30.5 -0.5t30 0.5t35.5 1t36 1t32.5 1.5v-18zM137 777q0 -31 -17.5 -47.5t-48.5 -16.5q-30 0 -47 16.5t-17 46.5q0 32 17 48.5t49 16.5q30 0 47 -17t17 -47z
M326 777q0 -31 -17.5 -47.5t-48.5 -16.5q-30 0 -47 16.5t-17 46.5q0 32 17 48.5t49 16.5q30 0 47 -17t17 -47z" />
    <glyph glyph-name="Eth" unicode="&#xd0;" horiz-adv-x="709" 
d="M679 346q0 -88 -23 -147.5t-58 -97t-75.5 -57.5t-75.5 -30q-23 -7 -64 -11.5t-99 -4.5q-38 0 -68.5 1.5t-64.5 1.5q-26 0 -56.5 -0.5t-59.5 -2.5v18q10 0 24 4.5t25 17.5q6 7 10 16.5t5.5 24.5t2 37.5t0.5 54.5v144h-74v47h74v153q0 47 -3 68t-10 32q-6 8 -18.5 15.5
t-32.5 9.5v18q11 -1 28 -2q14 -1 34.5 -1h48.5q24 0 67 1t97 1q22 0 58 -2t77 -11.5t82 -28.5t74 -53.5t54 -87t21 -128.5zM529 332q0 95 -22 150.5t-55 84t-71 36.5t-70 8q-20 0 -33.5 -0.5t-21.5 -1.5q-10 -1 -16 -1v-246h154v-47h-154v-218q0 -22 4 -33.5t20 -16.5
q8 -2 19.5 -2.5t28.5 -0.5q57 0 98 15.5t67.5 50t39 89.5t12.5 133z" />
    <glyph glyph-name="Ntilde" unicode="&#xd1;" horiz-adv-x="703" 
d="M688 640q-10 0 -24 -4.5t-25 -17.5q-6 -7 -10 -16.5t-5.5 -24.5t-2 -37.5t-0.5 -54.5v-490h-56l-381 506q-7 8 -11 15t-7 12q-4 6 -6 11v-398q0 -47 2.5 -68t10.5 -32q6 -8 18.5 -15.5t32.5 -9.5v-18q-29 2 -48.5 3t-45.5 1t-47 -0.5t-53 -3.5v18q10 0 24 4.5t25 17.5
q6 7 10 16.5t5.5 24.5t2 37.5t0.5 54.5v344q0 47 -3 68t-10 32q-6 8 -18.5 15.5t-32.5 9.5v18q29 -2 59.5 -3t56.5 -1q6 0 16.5 0.5t22.5 1t25 1t23 1.5l290 -386q9 -13 15 -22l10 -15q4 -7 7 -12v292q0 47 -3 68t-10 32q-6 8 -18.5 15.5t-32.5 9.5v18q29 -2 50.5 -3
t47.5 -1t45 0.5t51 3.5v-18zM530 811q-14 -35 -29.5 -55.5t-30 -32t-26 -15t-16.5 -3.5q-14 0 -27.5 2t-37.5 12l-48 20q-8 4 -19.5 7t-25.5 3h-1q-14 0 -25.5 -4t-25.5 -24l-24 12q12 35 27.5 56.5t30 33t26.5 15t17 3.5q14 0 26.5 -2.5t36.5 -11.5l53 -20q27 -10 41 -10
q17 0 28.5 5t24.5 23z" />
    <glyph glyph-name="Ograve" unicode="&#xd2;" horiz-adv-x="729" 
d="M699 336q0 -78 -24 -142t-68 -109t-107 -70t-141 -25t-139 23t-103 65.5t-64.5 103t-22.5 135.5q0 78 24 142t68 109t107 70t141 25t139 -23t103 -65.5t64.5 -103t22.5 -135.5zM549 323q0 62 -11 116t-33.5 94t-57 63t-82.5 23q-51 0 -86.5 -23t-57 -62t-31.5 -91.5
t-10 -112.5q0 -62 11 -116t33.5 -94t57 -63t82.5 -23q51 0 86.5 23t57 62t31.5 91.5t10 112.5zM235 797l86 66l7 -2l141 -135l-13 -20l-216 76z" />
    <glyph glyph-name="Oacute" unicode="&#xd3;" horiz-adv-x="729" 
d="M699 336q0 -78 -24 -142t-68 -109t-107 -70t-141 -25t-139 23t-103 65.5t-64.5 103t-22.5 135.5q0 78 24 142t68 109t107 70t141 25t139 -23t103 -65.5t64.5 -103t22.5 -135.5zM549 323q0 62 -11 116t-33.5 94t-57 63t-82.5 23q-51 0 -86.5 -23t-57 -62t-31.5 -91.5
t-10 -112.5q0 -62 11 -116t33.5 -94t57 -63t82.5 -23q51 0 86.5 23t57 62t31.5 91.5t10 112.5zM501 782l-216 -76l-12 18l140 137l7 2l86 -66z" />
    <glyph glyph-name="Ocircumflex" unicode="&#xd4;" horiz-adv-x="729" 
d="M699 336q0 -78 -24 -142t-68 -109t-107 -70t-141 -25t-139 23t-103 65.5t-64.5 103t-22.5 135.5q0 78 24 142t68 109t107 70t141 25t139 -23t103 -65.5t64.5 -103t22.5 -135.5zM549 323q0 62 -11 116t-33.5 94t-57 63t-82.5 23q-51 0 -86.5 -23t-57 -62t-31.5 -91.5
t-10 -112.5q0 -62 11 -116t33.5 -94t57 -63t82.5 -23q51 0 86.5 23t57 62t31.5 91.5t10 112.5zM368 769l-130 -61l-14 17l123 131l7 2h27l7 -2l123 -131l-14 -17z" />
    <glyph glyph-name="Otilde" unicode="&#xd5;" horiz-adv-x="729" 
d="M699 336q0 -78 -24 -142t-68 -109t-107 -70t-141 -25t-139 23t-103 65.5t-64.5 103t-22.5 135.5q0 78 24 142t68 109t107 70t141 25t139 -23t103 -65.5t64.5 -103t22.5 -135.5zM549 323q0 62 -11 116t-33.5 94t-57 63t-82.5 23q-51 0 -86.5 -23t-57 -62t-31.5 -91.5
t-10 -112.5q0 -62 11 -116t33.5 -94t57 -63t82.5 -23q51 0 86.5 23t57 62t31.5 91.5t10 112.5zM542 811q-14 -35 -29.5 -55.5t-30 -32t-26 -15t-16.5 -3.5q-14 0 -27.5 2t-37.5 12l-48 20q-8 4 -19.5 7t-25.5 3h-1q-14 0 -25.5 -4t-25.5 -24l-24 12q12 35 27.5 56.5t30 33
t26.5 15t17 3.5q14 0 26.5 -2.5t36.5 -11.5l53 -20q27 -10 41 -10q17 0 28.5 5t24.5 23z" />
    <glyph glyph-name="Odieresis" unicode="&#xd6;" horiz-adv-x="729" 
d="M699 336q0 -78 -24 -142t-68 -109t-107 -70t-141 -25t-139 23t-103 65.5t-64.5 103t-22.5 135.5q0 78 24 142t68 109t107 70t141 25t139 -23t103 -65.5t64.5 -103t22.5 -135.5zM549 323q0 62 -11 116t-33.5 94t-57 63t-82.5 23q-51 0 -86.5 -23t-57 -62t-31.5 -91.5
t-10 -112.5q0 -62 11 -116t33.5 -94t57 -63t82.5 -23q51 0 86.5 23t57 62t31.5 91.5t10 112.5zM338 777q0 -31 -17.5 -47.5t-48.5 -16.5q-30 0 -47 16.5t-17 46.5q0 32 17 48.5t49 16.5q30 0 47 -17t17 -47zM527 777q0 -31 -17.5 -47.5t-48.5 -16.5q-30 0 -47 16.5t-17 46.5
q0 32 17 48.5t49 16.5q30 0 47 -17t17 -47z" />
    <glyph glyph-name="multiply" unicode="&#xd7;" horiz-adv-x="550" 
d="M459 53l-185 185l-184 -185l-45 45l185 185l-185 184l45 46l184 -185l186 185l45 -45l-186 -185l186 -185z" />
    <glyph glyph-name="Oslash" unicode="&#xd8;" horiz-adv-x="729" 
d="M699 336q0 -78 -24 -142t-68 -109t-107 -70t-141 -25q-35 0 -66.5 5t-60.5 14l-40 -79l-47 23l39 76q-75 39 -114.5 112.5t-39.5 175.5q0 78 24 142t68 109t107 70t141 25q35 0 66.5 -5t60.5 -14l40 79l47 -23l-39 -76q75 -39 114.5 -112.5t39.5 -175.5zM550 323
q0 66 -11.5 120.5t-35.5 95.5l-239 -468q20 -17 45 -27t55 -10q51 0 86.5 23t57.5 62t32 91.5t10 112.5zM466 582q-20 17 -45.5 27t-55.5 10q-51 0 -86.5 -23t-57.5 -62t-32 -91.5t-10 -112.5q0 -71 11.5 -123t35.5 -93z" />
    <glyph glyph-name="Ugrave" unicode="&#xd9;" horiz-adv-x="694" 
d="M683 640q-10 0 -24 -4.5t-25 -17.5q-6 -7 -10 -16.5t-5.5 -24.5t-2 -37.5t-0.5 -54.5v-203q0 -57 -3 -95t-14 -67q-17 -45 -47.5 -70.5t-67 -38.5t-74 -16.5t-67.5 -3.5q-63 0 -107 10.5t-73 28t-45.5 40t-26.5 47.5q-14 38 -15.5 83.5t-1.5 84.5v230q0 47 -3 68t-10 32
q-6 8 -18.5 15.5t-32.5 9.5v18q15 -1 33 -1.5l36 -1t35.5 -1t30.5 -0.5t30 0.5t35.5 1t36 1t32.5 1.5v-18q-10 0 -24 -4.5t-25 -17.5q-6 -7 -10 -16.5t-5.5 -24.5t-2 -37.5t-0.5 -54.5v-266q0 -34 3.5 -66.5t18.5 -58.5t45.5 -42t85.5 -16q56 0 87 17.5t46 44.5t18 59.5
t3 62.5v295q0 47 -3 68t-10 32q-6 8 -18.5 15.5t-32.5 9.5v18q29 -2 55.5 -3t52.5 -1t58 1t62 3v-18zM226 797l86 66l7 -2l141 -135l-13 -20l-216 76z" />
    <glyph glyph-name="Uacute" unicode="&#xda;" horiz-adv-x="694" 
d="M683 640q-10 0 -24 -4.5t-25 -17.5q-6 -7 -10 -16.5t-5.5 -24.5t-2 -37.5t-0.5 -54.5v-203q0 -57 -3 -95t-14 -67q-17 -45 -47.5 -70.5t-67 -38.5t-74 -16.5t-67.5 -3.5q-63 0 -107 10.5t-73 28t-45.5 40t-26.5 47.5q-14 38 -15.5 83.5t-1.5 84.5v230q0 47 -3 68t-10 32
q-6 8 -18.5 15.5t-32.5 9.5v18q15 -1 33 -1.5l36 -1t35.5 -1t30.5 -0.5t30 0.5t35.5 1t36 1t32.5 1.5v-18q-10 0 -24 -4.5t-25 -17.5q-6 -7 -10 -16.5t-5.5 -24.5t-2 -37.5t-0.5 -54.5v-266q0 -34 3.5 -66.5t18.5 -58.5t45.5 -42t85.5 -16q56 0 87 17.5t46 44.5t18 59.5
t3 62.5v295q0 47 -3 68t-10 32q-6 8 -18.5 15.5t-32.5 9.5v18q29 -2 55.5 -3t52.5 -1t58 1t62 3v-18zM492 782l-216 -76l-12 18l140 137l7 2l86 -66z" />
    <glyph glyph-name="Ucircumflex" unicode="&#xdb;" horiz-adv-x="694" 
d="M683 640q-10 0 -24 -4.5t-25 -17.5q-6 -7 -10 -16.5t-5.5 -24.5t-2 -37.5t-0.5 -54.5v-203q0 -57 -3 -95t-14 -67q-17 -45 -47.5 -70.5t-67 -38.5t-74 -16.5t-67.5 -3.5q-63 0 -107 10.5t-73 28t-45.5 40t-26.5 47.5q-14 38 -15.5 83.5t-1.5 84.5v230q0 47 -3 68t-10 32
q-6 8 -18.5 15.5t-32.5 9.5v18q15 -1 33 -1.5l36 -1t35.5 -1t30.5 -0.5t30 0.5t35.5 1t36 1t32.5 1.5v-18q-10 0 -24 -4.5t-25 -17.5q-6 -7 -10 -16.5t-5.5 -24.5t-2 -37.5t-0.5 -54.5v-266q0 -34 3.5 -66.5t18.5 -58.5t45.5 -42t85.5 -16q56 0 87 17.5t46 44.5t18 59.5
t3 62.5v295q0 47 -3 68t-10 32q-6 8 -18.5 15.5t-32.5 9.5v18q29 -2 55.5 -3t52.5 -1t58 1t62 3v-18zM359 769l-130 -61l-14 17l123 131l7 2h27l7 -2l123 -131l-14 -17z" />
    <glyph glyph-name="Udieresis" unicode="&#xdc;" horiz-adv-x="694" 
d="M683 640q-10 0 -24 -4.5t-25 -17.5q-6 -7 -10 -16.5t-5.5 -24.5t-2 -37.5t-0.5 -54.5v-203q0 -57 -3 -95t-14 -67q-17 -45 -47.5 -70.5t-67 -38.5t-74 -16.5t-67.5 -3.5q-63 0 -107 10.5t-73 28t-45.5 40t-26.5 47.5q-14 38 -15.5 83.5t-1.5 84.5v230q0 47 -3 68t-10 32
q-6 8 -18.5 15.5t-32.5 9.5v18q15 -1 33 -1.5l36 -1t35.5 -1t30.5 -0.5t30 0.5t35.5 1t36 1t32.5 1.5v-18q-10 0 -24 -4.5t-25 -17.5q-6 -7 -10 -16.5t-5.5 -24.5t-2 -37.5t-0.5 -54.5v-266q0 -34 3.5 -66.5t18.5 -58.5t45.5 -42t85.5 -16q56 0 87 17.5t46 44.5t18 59.5
t3 62.5v295q0 47 -3 68t-10 32q-6 8 -18.5 15.5t-32.5 9.5v18q29 -2 55.5 -3t52.5 -1t58 1t62 3v-18zM329 777q0 -31 -17.5 -47.5t-48.5 -16.5q-30 0 -47 16.5t-17 46.5q0 32 17 48.5t49 16.5q30 0 47 -17t17 -47zM518 777q0 -31 -17.5 -47.5t-48.5 -16.5q-30 0 -47 16.5
t-17 46.5q0 32 17 48.5t49 16.5q30 0 47 -17t17 -47z" />
    <glyph glyph-name="Yacute" unicode="&#xdd;" horiz-adv-x="549" 
d="M593 640q-21 -2 -32 -12.5t-19 -18.5q-5 -6 -16.5 -23t-29.5 -49l-143 -253v-142q0 -47 2.5 -68t10.5 -31q6 -9 16.5 -14t21.5 -8t20 -3.5t13 -0.5v-19q-15 1 -36 1.5t-42.5 1t-42 1t-33.5 0.5t-33.5 -0.5t-42.5 -1t-43 -1t-36 -1.5v18q3 0 11.5 1t19 3.5t21 7t17.5 12.5
q6 7 10 16.5t5.5 24t2 36.5t0.5 54v93l-149 276q-23 42 -35.5 60t-18.5 24q-11 11 -18.5 13t-18.5 3v18q9 -1 25 -1.5t34 -1t37 -1t35 -0.5h34t39.5 0.5t36 1.5t25.5 2v-18q-8 0 -19 -2.5t-19 -8.5q-12 -10 -12 -24q0 -13 5.5 -25t11.5 -23l117 -224l106 219q4 8 11 24t7 30
t-8 21q-6 6 -16 8.5t-24 4.5v18q14 -2 41 -3t56 -1q21 0 47 1t48 3v-18zM436 782l-216 -76l-12 18l140 137l7 2l86 -66z" />
    <glyph glyph-name="Thorn" unicode="&#xde;" horiz-adv-x="565" 
d="M557 391q0 -50 -18 -86t-48 -59.5t-70.5 -35t-85.5 -11.5q-17 0 -29.5 1t-20.5 3q-10 2 -16 4v20q3 -1 7 -1h14q42 0 71 21q49 37 49 133q0 54 -14 84t-34.5 44t-44 17t-42.5 3q-7 0 -14 -0.5t-13 -1.5q-7 -1 -15 -1v-350v-50t1.5 -36t4 -25.5t8.5 -17.5q11 -14 28.5 -21
t49.5 -9v-18q-15 1 -37 1.5t-45 1t-44.5 1t-34.5 0.5q-26 0 -64 -0.5t-70 -3.5v18q10 0 24 4.5t25 17.5q6 7 10 16.5t5.5 24.5t2 37.5t0.5 54.5v344q0 47 -3 68t-10 32q-6 8 -18.5 15.5t-32.5 9.5v18q15 -1 32.5 -1.5t36 -1t35.5 -1t30 -0.5t30 0.5t35 1t35.5 1t32.5 1.5
v-18q-9 0 -24 -4.5t-26 -17.5q-7 -8 -12 -22t-5 -31q11 0 23 1q11 0 23 0.5t25 0.5q7 0 20 -0.5t29 -1.5t32.5 -3t31.5 -5q27 -6 52.5 -18t45 -32t31 -48.5t11.5 -67.5z" />
    <glyph glyph-name="germandbls" unicode="&#xdf;" horiz-adv-x="633" 
d="M603 143q0 -12 -4.5 -36.5t-23.5 -50t-58 -44.5t-109 -19q-38 0 -74.5 4.5t-62.5 14.5v26q0 18 -0.5 30.5t-1 22.5t-1.5 18.5t-2 19.5h21q2 -23 9.5 -39.5t21.5 -29.5q30 -27 81 -27q13 0 28.5 3t28.5 11t21.5 22t8.5 36q0 20 -9.5 33.5t-30.5 26.5l-72 43
q-49 29 -63.5 60t-14.5 67q0 24 7 42.5t19 34t27 28t31 24.5q21 16 34.5 30.5t21 29.5t10.5 33t3 41q0 30 -10.5 48t-27 28t-36.5 13t-38 3q-42 0 -65 -13t-34 -34t-13 -47.5t-2 -52.5v-285q0 -67 0.5 -130t2.5 -129q-4 1 -17 1h-27.5h-26h-12.5h-60t-63 -2v18q10 0 24 4.5
t25 17.5q6 7 10 16.5t5.5 24.5t2 37.5t0.5 54.5v204v45.5v56.5t1.5 55.5t4.5 43.5q15 81 81.5 118.5t175.5 37.5q26 0 65.5 -3t77 -15.5t64.5 -38t27 -71.5q0 -30 -9 -51.5t-23.5 -36.5t-33 -26t-37.5 -21q-13 -7 -28 -14t-27.5 -17t-21 -22.5t-8.5 -30.5q0 -26 14.5 -40.5
t51.5 -37.5l66 -42q12 -8 25.5 -17.5t24.5 -23t18 -33.5t7 -48z" />
    <glyph glyph-name="agrave" unicode="&#xe0;" horiz-adv-x="513" 
d="M508 60q-23 -32 -52 -49t-74 -17q-26 0 -42 7t-25.5 16.5t-13.5 20.5t-6 19q-5 -6 -15 -17t-26.5 -21.5t-39.5 -18.5t-54 -8q-47 0 -73.5 15t-40 35.5t-16.5 41.5t-3 33q0 41 18.5 67.5t46.5 40.5q21 10 46 15.5t52 7.5t53 2h48v21q0 23 -0.5 47t-5.5 38q-12 35 -38 45.5
t-51 10.5q-41 0 -63 -16t-37 -38l-21 16q2 7 11.5 23t29 33t52 30t81.5 13q51 0 82.5 -11.5t49.5 -27t26 -32.5t11 -27q4 -11 5.5 -27.5t2 -32.5t0.5 -28.5v-14.5q0 -21 -1.5 -50t-1.5 -86q0 -11 0.5 -24t4.5 -23.5t13 -17.5t25 -7q13 0 18.5 3t10.5 6zM291 217
q-5 0 -15.5 -0.5t-23 -2t-25.5 -4t-23 -7.5q-6 -3 -13 -7.5t-13.5 -12.5t-10.5 -20.5t-4 -30.5q0 -33 17.5 -53.5t52.5 -20.5q17 0 30.5 3.5t27.5 13.5v142zM128 666l113 43l6 -3l78 -175l-20 -13l-176 133z" />
    <glyph glyph-name="aacute" unicode="&#xe1;" horiz-adv-x="513" 
d="M508 60q-23 -32 -52 -49t-74 -17q-26 0 -42 7t-25.5 16.5t-13.5 20.5t-6 19q-5 -6 -15 -17t-26.5 -21.5t-39.5 -18.5t-54 -8q-47 0 -73.5 15t-40 35.5t-16.5 41.5t-3 33q0 41 18.5 67.5t46.5 40.5q21 10 46 15.5t52 7.5t53 2h48v21q0 23 -0.5 47t-5.5 38q-12 35 -38 45.5
t-51 10.5q-41 0 -63 -16t-37 -38l-21 16q2 7 11.5 23t29 33t52 30t81.5 13q51 0 82.5 -11.5t49.5 -27t26 -32.5t11 -27q4 -11 5.5 -27.5t2 -32.5t0.5 -28.5v-14.5q0 -21 -1.5 -50t-1.5 -86q0 -11 0.5 -24t4.5 -23.5t13 -17.5t25 -7q13 0 18.5 3t10.5 6zM291 217
q-5 0 -15.5 -0.5t-23 -2t-25.5 -4t-23 -7.5q-6 -3 -13 -7.5t-13.5 -12.5t-10.5 -20.5t-4 -30.5q0 -33 17.5 -53.5t52.5 -20.5q17 0 30.5 3.5t27.5 13.5v142zM366 651l-176 -133l-20 13l78 175l6 3l113 -43z" />
    <glyph glyph-name="acircumflex" unicode="&#xe2;" horiz-adv-x="513" 
d="M508 60q-23 -32 -52 -49t-74 -17q-26 0 -42 7t-25.5 16.5t-13.5 20.5t-6 19q-5 -6 -15 -17t-26.5 -21.5t-39.5 -18.5t-54 -8q-47 0 -73.5 15t-40 35.5t-16.5 41.5t-3 33q0 41 18.5 67.5t46.5 40.5q21 10 46 15.5t52 7.5t53 2h48v21q0 23 -0.5 47t-5.5 38q-12 35 -38 45.5
t-51 10.5q-41 0 -63 -16t-37 -38l-21 16q2 7 11.5 23t29 33t52 30t81.5 13q51 0 82.5 -11.5t49.5 -27t26 -32.5t11 -27q4 -11 5.5 -27.5t2 -32.5t0.5 -28.5v-14.5q0 -21 -1.5 -50t-1.5 -86q0 -11 0.5 -24t4.5 -23.5t13 -17.5t25 -7q13 0 18.5 3t10.5 6zM291 217
q-5 0 -15.5 -0.5t-23 -2t-25.5 -4t-23 -7.5q-6 -3 -13 -7.5t-13.5 -12.5t-10.5 -20.5t-4 -30.5q0 -33 17.5 -53.5t52.5 -20.5q17 0 30.5 3.5t27.5 13.5v142zM384 536l-16 -15l-120 79l-120 -79l-16 15l103 158l6 4h53l6 -4z" />
    <glyph glyph-name="atilde" unicode="&#xe3;" horiz-adv-x="513" 
d="M508 60q-23 -32 -52 -49t-74 -17q-26 0 -42 7t-25.5 16.5t-13.5 20.5t-6 19q-5 -6 -15 -17t-26.5 -21.5t-39.5 -18.5t-54 -8q-47 0 -73.5 15t-40 35.5t-16.5 41.5t-3 33q0 41 18.5 67.5t46.5 40.5q21 10 46 15.5t52 7.5t53 2h48v21q0 23 -0.5 47t-5.5 38q-12 35 -38 45.5
t-51 10.5q-41 0 -63 -16t-37 -38l-21 16q2 7 11.5 23t29 33t52 30t81.5 13q51 0 82.5 -11.5t49.5 -27t26 -32.5t11 -27q4 -11 5.5 -27.5t2 -32.5t0.5 -28.5v-14.5q0 -21 -1.5 -50t-1.5 -86q0 -11 0.5 -24t4.5 -23.5t13 -17.5t25 -7q13 0 18.5 3t10.5 6zM291 217
q-5 0 -15.5 -0.5t-23 -2t-25.5 -4t-23 -7.5q-6 -3 -13 -7.5t-13.5 -12.5t-10.5 -20.5t-4 -30.5q0 -33 17.5 -53.5t52.5 -20.5q17 0 30.5 3.5t27.5 13.5v142zM424 633q-14 -35 -29.5 -55.5t-30 -32t-26 -15t-16.5 -3.5q-14 0 -27.5 2t-37.5 12l-48 20q-8 4 -19.5 7t-25.5 3
h-1q-14 0 -25.5 -4t-25.5 -24l-24 12q12 35 27.5 56.5t30 33t26.5 15t17 3.5q14 0 26.5 -2.5t36.5 -11.5l53 -20q27 -10 41 -10q17 0 28.5 5t24.5 23z" />
    <glyph glyph-name="adieresis" unicode="&#xe4;" horiz-adv-x="513" 
d="M508 60q-23 -32 -52 -49t-74 -17q-26 0 -42 7t-25.5 16.5t-13.5 20.5t-6 19q-5 -6 -15 -17t-26.5 -21.5t-39.5 -18.5t-54 -8q-47 0 -73.5 15t-40 35.5t-16.5 41.5t-3 33q0 41 18.5 67.5t46.5 40.5q21 10 46 15.5t52 7.5t53 2h48v21q0 23 -0.5 47t-5.5 38q-12 35 -38 45.5
t-51 10.5q-41 0 -63 -16t-37 -38l-21 16q2 7 11.5 23t29 33t52 30t81.5 13q51 0 82.5 -11.5t49.5 -27t26 -32.5t11 -27q4 -11 5.5 -27.5t2 -32.5t0.5 -28.5v-14.5q0 -21 -1.5 -50t-1.5 -86q0 -11 0.5 -24t4.5 -23.5t13 -17.5t25 -7q13 0 18.5 3t10.5 6zM291 217
q-5 0 -15.5 -0.5t-23 -2t-25.5 -4t-23 -7.5q-6 -3 -13 -7.5t-13.5 -12.5t-10.5 -20.5t-4 -30.5q0 -33 17.5 -53.5t52.5 -20.5q17 0 30.5 3.5t27.5 13.5v142zM219 609q0 -31 -17.5 -47.5t-48.5 -16.5q-30 0 -47 16.5t-17 46.5q0 32 17 48.5t49 16.5q30 0 47 -17t17 -47z
M408 609q0 -31 -17.5 -47.5t-48.5 -16.5q-30 0 -47 16.5t-17 46.5q0 32 17 48.5t49 16.5q30 0 47 -17t17 -47z" />
    <glyph glyph-name="aring" unicode="&#xe5;" horiz-adv-x="513" 
d="M508 60q-23 -32 -52 -49t-74 -17q-26 0 -42 7t-25.5 16.5t-13.5 20.5t-6 19q-5 -6 -15 -17t-26.5 -21.5t-39.5 -18.5t-54 -8q-47 0 -73.5 15t-40 35.5t-16.5 41.5t-3 33q0 41 18.5 67.5t46.5 40.5q21 10 46 15.5t52 7.5t53 2h48v21q0 23 -0.5 47t-5.5 38q-12 35 -38 45.5
t-51 10.5q-41 0 -63 -16t-37 -38l-21 16q2 7 11.5 23t29 33t52 30t81.5 13q51 0 82.5 -11.5t49.5 -27t26 -32.5t11 -27q4 -11 5.5 -27.5t2 -32.5t0.5 -28.5v-14.5q0 -21 -1.5 -50t-1.5 -86q0 -11 0.5 -24t4.5 -23.5t13 -17.5t25 -7q13 0 18.5 3t10.5 6zM291 217
q-5 0 -15.5 -0.5t-23 -2t-25.5 -4t-23 -7.5q-6 -3 -13 -7.5t-13.5 -12.5t-10.5 -20.5t-4 -30.5q0 -33 17.5 -53.5t52.5 -20.5q17 0 30.5 3.5t27.5 13.5v142zM248 692q56 0 84 -24.5t28 -64.5t-28.5 -65t-83.5 -25q-58 0 -85 24t-27 64t29 65.5t83 25.5zM248 535q33 0 33 68
q0 66 -33 66t-33 -66q0 -68 33 -68z" />
    <glyph glyph-name="ae" unicode="&#xe6;" horiz-adv-x="733" 
d="M417 261v-2q0 -28 3 -53.5t9 -45.5q11 -36 30.5 -57t42 -31.5t46 -13t43.5 -2.5t37 3t29 7q14 4 25 11l10 -13q-15 -20 -41 -36q-22 -14 -56.5 -24.5t-84.5 -10.5q-56 0 -92 12.5t-57 28.5q-25 18 -38 42q-11 -24 -32 -42q-18 -16 -48.5 -29t-78.5 -13q-38 0 -64 10
t-42.5 26.5t-23.5 39t-7 48.5q0 42 18.5 68.5t46.5 40.5q21 10 46 15.5t52 7.5t53 2h48v21q0 23 -0.5 47t-5.5 38q-12 35 -38 45.5t-51 10.5q-41 0 -63 -16t-37 -38l-21 16q2 7 11.5 23t29 33t52 30t81.5 13q35 0 60 -6.5t40 -14.5q18 -10 28 -21q12 11 32 21q17 8 43.5 15
t64.5 7q39 0 66 -8t46 -19.5t29.5 -24t16.5 -20.5q22 -32 27.5 -66t5.5 -69v-6h-291zM571 314q0 26 -3 48.5t-11.5 39t-23.5 25.5t-38 9q-44 0 -60.5 -31t-16.5 -100h153v9zM291 217q-5 0 -15.5 -0.5t-23 -2t-25.5 -4.5t-23 -7q-6 -3 -13 -7.5t-13.5 -13t-10.5 -21t-4 -31.5
q0 -34 17 -53t49 -19q14 0 25.5 4.5t19.5 12.5q17 17 17 50v92z" />
    <glyph glyph-name="ccedilla" unicode="&#xe7;" horiz-adv-x="442" 
d="M385 356h-10q-4 8 -9.5 21t-16 26t-26.5 22t-41 9q-11 0 -28.5 -4t-34.5 -22t-29.5 -55.5t-12.5 -104.5q0 -101 39 -147t111 -46q29 0 52 7t39 15l10 -13q-8 -9 -20.5 -20t-31 -21.5t-43 -18.5t-54.5 -10l-24 -39q16 -2 33 -7t31 -14.5t23 -24t9 -35.5q0 -23 -11.5 -39
t-29.5 -27t-39.5 -16t-41.5 -5q-34 0 -61 11l6 23q17 -4 31 -4q28 0 40 16t12 31q0 23 -16 33.5t-46 13.5l-2 3l43 80q-27 1 -62.5 9.5t-67.5 32.5t-54 68t-22 118q0 54 17.5 100t50 79.5t80 52.5t107.5 19q54 0 96.5 -9.5t55.5 -18.5v-10z" />
    <glyph glyph-name="egrave" unicode="&#xe8;" horiz-adv-x="483" 
d="M167 261v-2q0 -28 3 -53.5t9 -45.5q11 -36 30.5 -57t42 -31.5t46 -13t43.5 -2.5t37 3t29 7q14 4 25 11l10 -13q-16 -20 -42 -36q-22 -14 -56 -24.5t-82 -10.5q-13 0 -35 1.5t-47.5 8.5t-52 21.5t-48.5 39.5t-35.5 63t-13.5 93q0 32 9 76t34.5 83.5t72 67t121.5 27.5
q39 0 66 -8t46 -19.5t29.5 -24t16.5 -20.5q22 -32 27.5 -66t5.5 -69v-6h-291zM321 314q0 26 -3 48.5t-11.5 39t-23.5 25.5t-38 9q-44 0 -60.5 -31t-16.5 -100h153v9zM136 666l113 43l6 -3l78 -175l-20 -13l-176 133z" />
    <glyph glyph-name="eacute" unicode="&#xe9;" horiz-adv-x="483" 
d="M167 261v-2q0 -28 3 -53.5t9 -45.5q11 -36 30.5 -57t42 -31.5t46 -13t43.5 -2.5t37 3t29 7q14 4 25 11l10 -13q-16 -20 -42 -36q-22 -14 -56 -24.5t-82 -10.5q-13 0 -35 1.5t-47.5 8.5t-52 21.5t-48.5 39.5t-35.5 63t-13.5 93q0 32 9 76t34.5 83.5t72 67t121.5 27.5
q39 0 66 -8t46 -19.5t29.5 -24t16.5 -20.5q22 -32 27.5 -66t5.5 -69v-6h-291zM321 314q0 26 -3 48.5t-11.5 39t-23.5 25.5t-38 9q-44 0 -60.5 -31t-16.5 -100h153v9zM374 651l-176 -133l-20 13l78 175l6 3l113 -43z" />
    <glyph glyph-name="ecircumflex" unicode="&#xea;" horiz-adv-x="483" 
d="M167 261v-2q0 -28 3 -53.5t9 -45.5q11 -36 30.5 -57t42 -31.5t46 -13t43.5 -2.5t37 3t29 7q14 4 25 11l10 -13q-16 -20 -42 -36q-22 -14 -56 -24.5t-82 -10.5q-13 0 -35 1.5t-47.5 8.5t-52 21.5t-48.5 39.5t-35.5 63t-13.5 93q0 32 9 76t34.5 83.5t72 67t121.5 27.5
q39 0 66 -8t46 -19.5t29.5 -24t16.5 -20.5q22 -32 27.5 -66t5.5 -69v-6h-291zM321 314q0 26 -3 48.5t-11.5 39t-23.5 25.5t-38 9q-44 0 -60.5 -31t-16.5 -100h153v9zM392 536l-16 -15l-120 79l-120 -79l-16 15l103 158l6 4h53l6 -4z" />
    <glyph glyph-name="edieresis" unicode="&#xeb;" horiz-adv-x="483" 
d="M167 261v-2q0 -28 3 -53.5t9 -45.5q11 -36 30.5 -57t42 -31.5t46 -13t43.5 -2.5t37 3t29 7q14 4 25 11l10 -13q-16 -20 -42 -36q-22 -14 -56 -24.5t-82 -10.5q-13 0 -35 1.5t-47.5 8.5t-52 21.5t-48.5 39.5t-35.5 63t-13.5 93q0 32 9 76t34.5 83.5t72 67t121.5 27.5
q39 0 66 -8t46 -19.5t29.5 -24t16.5 -20.5q22 -32 27.5 -66t5.5 -69v-6h-291zM321 314q0 26 -3 48.5t-11.5 39t-23.5 25.5t-38 9q-44 0 -60.5 -31t-16.5 -100h153v9zM227 609q0 -31 -17.5 -47.5t-48.5 -16.5q-30 0 -47 16.5t-17 46.5q0 32 17 48.5t49 16.5q30 0 47 -17
t17 -47zM416 609q0 -31 -17.5 -47.5t-48.5 -16.5q-30 0 -47 16.5t-17 46.5q0 32 17 48.5t49 16.5q30 0 47 -17t17 -47z" />
    <glyph glyph-name="igrave" unicode="&#xec;" horiz-adv-x="318" 
d="M294 -2q-15 1 -32.5 1.5t-36 1t-35.5 1t-30 0.5t-30 -0.5t-35 -1t-35.5 -1t-32.5 -1.5v18q10 0 24 4.5t25 17.5q6 7 10 16.5t5.5 24.5t2 37.5t0.5 54.5v137q0 48 -1.5 70t-9.5 33q-5 7 -12.5 11.5t-15 6.5t-14.5 2.5t-11 0.5v19q14 -1 53 1t83 8q37 4 62 12l6 -3
q-1 -13 -2 -34t-1.5 -46t-0.5 -53.5v-56.5v-138q0 -47 2.5 -68t10.5 -32q6 -8 18.5 -15.5t32.5 -9.5v-18zM26 666l113 43l6 -3l78 -175l-20 -13l-176 133z" />
    <glyph glyph-name="iacute" unicode="&#xed;" horiz-adv-x="318" 
d="M294 -2q-15 1 -32.5 1.5t-36 1t-35.5 1t-30 0.5t-30 -0.5t-35 -1t-35.5 -1t-32.5 -1.5v18q10 0 24 4.5t25 17.5q6 7 10 16.5t5.5 24.5t2 37.5t0.5 54.5v137q0 48 -1.5 70t-9.5 33q-5 7 -12.5 11.5t-15 6.5t-14.5 2.5t-11 0.5v19q14 -1 53 1t83 8q37 4 62 12l6 -3
q-1 -13 -2 -34t-1.5 -46t-0.5 -53.5v-56.5v-138q0 -47 2.5 -68t10.5 -32q6 -8 18.5 -15.5t32.5 -9.5v-18zM258 651l-176 -133l-20 13l78 175l6 3l113 -43z" />
    <glyph glyph-name="icircumflex" unicode="&#xee;" horiz-adv-x="318" 
d="M294 -2q-15 1 -32.5 1.5t-36 1t-35.5 1t-30 0.5t-30 -0.5t-35 -1t-35.5 -1t-32.5 -1.5v18q10 0 24 4.5t25 17.5q6 7 10 16.5t5.5 24.5t2 37.5t0.5 54.5v137q0 48 -1.5 70t-9.5 33q-5 7 -12.5 11.5t-15 6.5t-14.5 2.5t-11 0.5v19q14 -1 53 1t83 8q37 4 62 12l6 -3
q-1 -13 -2 -34t-1.5 -46t-0.5 -53.5v-56.5v-138q0 -47 2.5 -68t10.5 -32q6 -8 18.5 -15.5t32.5 -9.5v-18zM282 536l-16 -15l-120 79l-120 -79l-16 15l103 158l6 4h53l6 -4z" />
    <glyph glyph-name="idieresis" unicode="&#xef;" horiz-adv-x="318" 
d="M294 -2q-15 1 -32.5 1.5t-36 1t-35.5 1t-30 0.5t-30 -0.5t-35 -1t-35.5 -1t-32.5 -1.5v18q10 0 24 4.5t25 17.5q6 7 10 16.5t5.5 24.5t2 37.5t0.5 54.5v137q0 48 -1.5 70t-9.5 33q-5 7 -12.5 11.5t-15 6.5t-14.5 2.5t-11 0.5v19q14 -1 53 1t83 8q37 4 62 12l6 -3
q-1 -13 -2 -34t-1.5 -46t-0.5 -53.5v-56.5v-138q0 -47 2.5 -68t10.5 -32q6 -8 18.5 -15.5t32.5 -9.5v-18zM117 609q0 -31 -17.5 -47.5t-48.5 -16.5q-30 0 -47 16.5t-17 46.5q0 32 17 48.5t49 16.5q30 0 47 -17t17 -47zM306 609q0 -31 -17.5 -47.5t-48.5 -16.5
q-30 0 -47 16.5t-17 46.5q0 32 17 48.5t49 16.5q30 0 47 -17t17 -47z" />
    <glyph glyph-name="eth" unicode="&#xf0;" horiz-adv-x="535" 
d="M505 346q0 -83 -12.5 -149t-41.5 -113t-76 -72t-117 -25q-113 0 -170.5 62t-57.5 172q0 59 14.5 100t37 68t50 41.5t53.5 22t47 9t31 1.5q25 0 44 -2.5t32 -4.5q15 -3 26 -6q0 49 -9.5 84.5t-26.5 60.5l-68 -46l-26 40l61 41q-16 16 -35 25t-38 13.5t-35.5 5.5t-27.5 1
q-23 0 -39.5 -1.5t-27.5 -3.5q-12 -2 -21 -4l-8 30q18 8 41 14q20 5 47 10t61 5q105 0 167 -38l70 47l26 -40l-56 -38q26 -26 42.5 -59t26 -72.5t13 -84.5t3.5 -94zM366 335q0 11 -0.5 21t-0.5 18v16q-8 8 -20 14q-11 5 -27 9.5t-40 4.5q-40 0 -62 -19.5t-32.5 -49
t-12.5 -64t-2 -64.5q0 -67 9 -106t22.5 -59t30 -25.5t31.5 -5.5q28 0 47.5 10.5t32 43.5t18.5 94t6 162z" />
    <glyph glyph-name="ntilde" unicode="&#xf1;" horiz-adv-x="621" 
d="M600 -2q-15 1 -32.5 1.5t-36 1t-35.5 1t-30 0.5q-26 0 -63 -1t-66 -3v18q28 4 43 19q7 7 11 17t6 29t2.5 49.5t0.5 79.5q0 47 -0.5 69t-2.5 38q-1 17 -4.5 34.5t-13 32t-27 23.5t-47.5 9q-20 0 -40.5 -4.5t-34.5 -15.5v-255q0 -25 0.5 -41.5t1.5 -27t3 -17t5 -12.5
q7 -13 22.5 -20t27.5 -7v-18q-29 2 -66.5 3t-63.5 1q-13 0 -30 -0.5t-35 -1t-35.5 -1t-32.5 -1.5v18q10 0 24 4.5t25 17.5q6 7 10 16.5t5.5 24.5t2 37.5t0.5 54.5v137q0 48 -1.5 70t-9.5 33q-5 7 -12.5 11.5t-15 6.5t-14.5 2.5t-11 0.5v19q14 -1 50 1t80 8q37 4 62 12l6 -3
v-51q2 2 12 11t28.5 19t46 18t64.5 8q63 0 100 -27t50 -75q4 -15 5.5 -40.5t1.5 -48.5v-142q0 -47 2.5 -68t10.5 -32q6 -8 18.5 -15.5t32.5 -9.5v-18zM482 633q-14 -35 -29.5 -55.5t-30 -32t-26 -15t-16.5 -3.5q-14 0 -27.5 2t-37.5 12l-48 20q-8 4 -19.5 7t-25.5 3h-1
q-14 0 -25.5 -4t-25.5 -24l-24 12q12 35 27.5 56.5t30 33t26.5 15t17 3.5q14 0 26.5 -2.5t36.5 -11.5l53 -20q27 -10 41 -10q17 0 28.5 5t24.5 23z" />
    <glyph glyph-name="ograve" unicode="&#xf2;" horiz-adv-x="560" 
d="M530 237q0 -32 -9.5 -74.5t-37 -81t-77.5 -65t-132 -26.5q-62 0 -107.5 17t-76 48.5t-45.5 75.5t-15 97q0 32 9.5 74.5t37 81t77.5 65t132 26.5q61 0 107 -17t76.5 -48.5t45.5 -75.5t15 -97zM383 233q0 73 -11.5 113.5t-27.5 60.5t-34.5 24.5t-31.5 4.5q-10 0 -26 -3.5
t-32 -20.5q-9 -10 -17 -24.5t-13.5 -35.5t-9 -50.5t-3.5 -69.5q0 -73 11.5 -113.5t27.5 -60.5t34 -24.5t32 -4.5q10 0 26 3.5t32 20.5q9 10 17 24.5t13.5 35.5t9 50.5t3.5 69.5zM160 666l113 43l6 -3l78 -175l-20 -13l-176 133z" />
    <glyph glyph-name="oacute" unicode="&#xf3;" horiz-adv-x="560" 
d="M530 237q0 -32 -9.5 -74.5t-37 -81t-77.5 -65t-132 -26.5q-62 0 -107.5 17t-76 48.5t-45.5 75.5t-15 97q0 32 9.5 74.5t37 81t77.5 65t132 26.5q61 0 107 -17t76.5 -48.5t45.5 -75.5t15 -97zM383 233q0 73 -11.5 113.5t-27.5 60.5t-34.5 24.5t-31.5 4.5q-10 0 -26 -3.5
t-32 -20.5q-9 -10 -17 -24.5t-13.5 -35.5t-9 -50.5t-3.5 -69.5q0 -73 11.5 -113.5t27.5 -60.5t34 -24.5t32 -4.5q10 0 26 3.5t32 20.5q9 10 17 24.5t13.5 35.5t9 50.5t3.5 69.5zM398 651l-176 -133l-20 13l78 175l6 3l113 -43z" />
    <glyph glyph-name="ocircumflex" unicode="&#xf4;" horiz-adv-x="560" 
d="M530 237q0 -32 -9.5 -74.5t-37 -81t-77.5 -65t-132 -26.5q-62 0 -107.5 17t-76 48.5t-45.5 75.5t-15 97q0 32 9.5 74.5t37 81t77.5 65t132 26.5q61 0 107 -17t76.5 -48.5t45.5 -75.5t15 -97zM383 233q0 73 -11.5 113.5t-27.5 60.5t-34.5 24.5t-31.5 4.5q-10 0 -26 -3.5
t-32 -20.5q-9 -10 -17 -24.5t-13.5 -35.5t-9 -50.5t-3.5 -69.5q0 -73 11.5 -113.5t27.5 -60.5t34 -24.5t32 -4.5q10 0 26 3.5t32 20.5q9 10 17 24.5t13.5 35.5t9 50.5t3.5 69.5zM416 536l-16 -15l-120 79l-120 -79l-16 15l103 158l6 4h53l6 -4z" />
    <glyph glyph-name="otilde" unicode="&#xf5;" horiz-adv-x="560" 
d="M530 237q0 -32 -9.5 -74.5t-37 -81t-77.5 -65t-132 -26.5q-62 0 -107.5 17t-76 48.5t-45.5 75.5t-15 97q0 32 9.5 74.5t37 81t77.5 65t132 26.5q61 0 107 -17t76.5 -48.5t45.5 -75.5t15 -97zM383 233q0 73 -11.5 113.5t-27.5 60.5t-34.5 24.5t-31.5 4.5q-10 0 -26 -3.5
t-32 -20.5q-9 -10 -17 -24.5t-13.5 -35.5t-9 -50.5t-3.5 -69.5q0 -73 11.5 -113.5t27.5 -60.5t34 -24.5t32 -4.5q10 0 26 3.5t32 20.5q9 10 17 24.5t13.5 35.5t9 50.5t3.5 69.5zM456 633q-14 -35 -29.5 -55.5t-30 -32t-26 -15t-16.5 -3.5q-14 0 -27.5 2t-37.5 12l-48 20
q-8 4 -19.5 7t-25.5 3h-1q-14 0 -25.5 -4t-25.5 -24l-24 12q12 35 27.5 56.5t30 33t26.5 15t17 3.5q14 0 26.5 -2.5t36.5 -11.5l53 -20q27 -10 41 -10q17 0 28.5 5t24.5 23z" />
    <glyph glyph-name="odieresis" unicode="&#xf6;" horiz-adv-x="560" 
d="M530 237q0 -32 -9.5 -74.5t-37 -81t-77.5 -65t-132 -26.5q-62 0 -107.5 17t-76 48.5t-45.5 75.5t-15 97q0 32 9.5 74.5t37 81t77.5 65t132 26.5q61 0 107 -17t76.5 -48.5t45.5 -75.5t15 -97zM383 233q0 73 -11.5 113.5t-27.5 60.5t-34.5 24.5t-31.5 4.5q-10 0 -26 -3.5
t-32 -20.5q-9 -10 -17 -24.5t-13.5 -35.5t-9 -50.5t-3.5 -69.5q0 -73 11.5 -113.5t27.5 -60.5t34 -24.5t32 -4.5q10 0 26 3.5t32 20.5q9 10 17 24.5t13.5 35.5t9 50.5t3.5 69.5zM251 609q0 -31 -17.5 -47.5t-48.5 -16.5q-30 0 -47 16.5t-17 46.5q0 32 17 48.5t49 16.5
q30 0 47 -17t17 -47zM440 609q0 -31 -17.5 -47.5t-48.5 -16.5q-30 0 -47 16.5t-17 46.5q0 32 17 48.5t49 16.5q30 0 47 -17t17 -47z" />
    <glyph glyph-name="divide" unicode="&#xf7;" horiz-adv-x="550" 
d="M331 488q0 -25 -16.5 -40.5t-39.5 -15.5t-40 15.5t-17 40.5q0 26 16 41.5t41 15.5q23 0 39.5 -15.5t16.5 -41.5zM23 278v63h504v-63h-504zM331 131q0 -26 -16.5 -41.5t-39.5 -15.5t-40 15.5t-17 41.5q0 25 16 40.5t41 15.5q23 0 39.5 -15t16.5 -41z" />
    <glyph glyph-name="oslash" unicode="&#xf8;" horiz-adv-x="564" 
d="M530 237q0 -32 -9.5 -74.5t-37 -81t-77.5 -65t-132 -26.5q-50 0 -86 10l-38 -75l-42 21l36 71q-57 29 -85.5 83.5t-28.5 127.5q0 32 9.5 74.5t37 81t77.5 65t132 26.5q50 0 86 -10l38 75l42 -21l-36 -71q57 -29 85.5 -83.5t28.5 -127.5zM343 408q-17 19 -34 23.5t-31 4.5
q-10 0 -26.5 -3.5t-32.5 -20.5q-9 -10 -17 -24.5t-14 -35.5t-9.5 -50.5t-3.5 -69.5q0 -43 4.5 -72.5t10.5 -51.5zM385 233q0 43 -4.5 72.5t-10.5 51.5l-153 -300q17 -19 34 -23.5t31 -4.5q10 0 26.5 3.5t32.5 20.5q9 10 17 24.5t14 35.5t9.5 50.5t3.5 69.5z" />
    <glyph glyph-name="ugrave" unicode="&#xf9;" horiz-adv-x="615" 
d="M591 14q-17 1 -51.5 -1.5t-69.5 -7.5q-23 -4 -42.5 -7t-30.5 -8l-4 3v53q-2 -2 -12.5 -11t-29 -19t-46.5 -18t-64 -8q-62 0 -99.5 24t-50.5 77q-4 16 -5 42.5t-1 49.5v125q0 48 -1.5 70t-9.5 33q-5 7 -12.5 11.5t-15 6.5t-14.5 2.5t-11 0.5v19q14 -1 52.5 1t82.5 8
q37 4 62 12l6 -3q0 -6 -0.5 -29t-1 -50t-1 -52.5t-0.5 -35.5v-32.5v-40.5t0.5 -40.5t1.5 -32.5q1 -16 3.5 -34.5t11.5 -35t27 -27.5t51 -11q27 0 46.5 6.5t28.5 13.5v240q0 48 -1.5 70t-9.5 33q-5 7 -12.5 11.5t-15 6.5t-14.5 2.5t-11 0.5v19q14 -1 52.5 1t82.5 8
q37 4 62 12l6 -3q-2 -26 -2.5 -76.5t-0.5 -107.5v-129q0 -48 1 -69.5t9 -32.5q5 -8 13 -12t16.5 -6t15 -2.5t9.5 -0.5v-19zM173 666l113 43l6 -3l78 -175l-20 -13l-176 133z" />
    <glyph glyph-name="uacute" unicode="&#xfa;" horiz-adv-x="615" 
d="M591 14q-17 1 -51.5 -1.5t-69.5 -7.5q-23 -4 -42.5 -7t-30.5 -8l-4 3v53q-2 -2 -12.5 -11t-29 -19t-46.5 -18t-64 -8q-62 0 -99.5 24t-50.5 77q-4 16 -5 42.5t-1 49.5v125q0 48 -1.5 70t-9.5 33q-5 7 -12.5 11.5t-15 6.5t-14.5 2.5t-11 0.5v19q14 -1 52.5 1t82.5 8
q37 4 62 12l6 -3q0 -6 -0.5 -29t-1 -50t-1 -52.5t-0.5 -35.5v-32.5v-40.5t0.5 -40.5t1.5 -32.5q1 -16 3.5 -34.5t11.5 -35t27 -27.5t51 -11q27 0 46.5 6.5t28.5 13.5v240q0 48 -1.5 70t-9.5 33q-5 7 -12.5 11.5t-15 6.5t-14.5 2.5t-11 0.5v19q14 -1 52.5 1t82.5 8
q37 4 62 12l6 -3q-2 -26 -2.5 -76.5t-0.5 -107.5v-129q0 -48 1 -69.5t9 -32.5q5 -8 13 -12t16.5 -6t15 -2.5t9.5 -0.5v-19zM418 651l-176 -133l-20 13l78 175l6 3l113 -43z" />
    <glyph glyph-name="ucircumflex" unicode="&#xfb;" horiz-adv-x="615" 
d="M591 14q-17 1 -51.5 -1.5t-69.5 -7.5q-23 -4 -42.5 -7t-30.5 -8l-4 3v53q-2 -2 -12.5 -11t-29 -19t-46.5 -18t-64 -8q-62 0 -99.5 24t-50.5 77q-4 16 -5 42.5t-1 49.5v125q0 48 -1.5 70t-9.5 33q-5 7 -12.5 11.5t-15 6.5t-14.5 2.5t-11 0.5v19q14 -1 52.5 1t82.5 8
q37 4 62 12l6 -3q0 -6 -0.5 -29t-1 -50t-1 -52.5t-0.5 -35.5v-32.5v-40.5t0.5 -40.5t1.5 -32.5q1 -16 3.5 -34.5t11.5 -35t27 -27.5t51 -11q27 0 46.5 6.5t28.5 13.5v240q0 48 -1.5 70t-9.5 33q-5 7 -12.5 11.5t-15 6.5t-14.5 2.5t-11 0.5v19q14 -1 52.5 1t82.5 8
q37 4 62 12l6 -3q-2 -26 -2.5 -76.5t-0.5 -107.5v-129q0 -48 1 -69.5t9 -32.5q5 -8 13 -12t16.5 -6t15 -2.5t9.5 -0.5v-19zM431 536l-16 -15l-120 79l-120 -79l-16 15l103 158l6 4h53l6 -4z" />
    <glyph glyph-name="udieresis" unicode="&#xfc;" horiz-adv-x="615" 
d="M591 14q-17 1 -51.5 -1.5t-69.5 -7.5q-23 -4 -42.5 -7t-30.5 -8l-4 3v53q-2 -2 -12.5 -11t-29 -19t-46.5 -18t-64 -8q-62 0 -99.5 24t-50.5 77q-4 16 -5 42.5t-1 49.5v125q0 48 -1.5 70t-9.5 33q-5 7 -12.5 11.5t-15 6.5t-14.5 2.5t-11 0.5v19q14 -1 52.5 1t82.5 8
q37 4 62 12l6 -3q0 -6 -0.5 -29t-1 -50t-1 -52.5t-0.5 -35.5v-32.5v-40.5t0.5 -40.5t1.5 -32.5q1 -16 3.5 -34.5t11.5 -35t27 -27.5t51 -11q27 0 46.5 6.5t28.5 13.5v240q0 48 -1.5 70t-9.5 33q-5 7 -12.5 11.5t-15 6.5t-14.5 2.5t-11 0.5v19q14 -1 52.5 1t82.5 8
q37 4 62 12l6 -3q-2 -26 -2.5 -76.5t-0.5 -107.5v-129q0 -48 1 -69.5t9 -32.5q5 -8 13 -12t16.5 -6t15 -2.5t9.5 -0.5v-19zM266 609q0 -31 -17.5 -47.5t-48.5 -16.5q-30 0 -47 16.5t-17 46.5q0 32 17 48.5t49 16.5q30 0 47 -17t17 -47zM455 609q0 -31 -17.5 -47.5
t-48.5 -16.5q-30 0 -47 16.5t-17 46.5q0 32 17 48.5t49 16.5q30 0 47 -17t17 -47z" />
    <glyph glyph-name="yacute" unicode="&#xfd;" horiz-adv-x="492" 
d="M515 449q-21 0 -32 -10.5t-16 -17.5q-2 -3 -5.5 -11t-7 -16.5t-7 -16.5t-4.5 -12l-175 -481q-10 -27 -22 -54t-31.5 -49t-49 -35.5t-73.5 -13.5q-74 0 -112 33v9l47 65h9q9 -25 25.5 -39.5t41.5 -14.5q22 0 37.5 8t27.5 23.5t21.5 37.5t20.5 50l17 46l-174 426
q-4 9 -9.5 22t-10.5 24q-1 1 -3.5 6t-7.5 9.5t-14 8t-22 3.5v18q12 -1 29 -1.5t35 -1t35 -1t28 -0.5t27 0.5t33 1t33 1t27 1.5v-18q-10 0 -19 -2t-17 -7q-13 -8 -13 -24q0 -10 4 -22.5t12 -33.5l58 -147q14 -35 23 -62.5t14 -46.5l78 252q7 20 11 35.5t4 25.5q0 16 -10 23
q-13 9 -35 9v18q22 -2 40 -3t40 -1q23 0 46 1t46 3v-18zM392 651l-176 -133l-20 13l78 175l6 3l113 -43z" />
    <glyph glyph-name="thorn" unicode="&#xfe;" horiz-adv-x="600" 
d="M570 245q0 -44 -10 -80.5t-28 -65.5q-32 -53 -87 -80.5t-124 -27.5q-9 0 -37 1.5t-57 9.5v-101q0 -47 2.5 -68.5t10.5 -32.5q7 -10 19.5 -15.5t24.5 -7.5t21.5 -2.5t11.5 -0.5v-19q-15 1 -36 1.5t-43 1t-42.5 1t-33.5 0.5h-30t-36 -0.5t-37.5 -1.5t-34.5 -2v18
q10 0 24 4.5t25 17.5q6 7 10 16.5t5.5 24.5t2 37.5t0.5 54.5v635q0 47 -2 69t-9 33q-11 15 -28 17.5t-25 3.5v19q4 0 16.5 0.5t31 1.5t41 3.5t46.5 5.5q17 2 33 5.5t31 7.5l5 -5q-2 -27 -3 -78t-1 -108v-120q27 29 62.5 42t77.5 13q38 0 74.5 -12.5t65 -39.5t46 -70.5
t17.5 -105.5zM423 227q0 39 -6 73.5t-20.5 60t-38.5 40.5t-60 15q-19 0 -40 -6t-31 -15v-326q1 -2 6 -8t14.5 -13t24 -12t35.5 -5q33 0 55 15t35.5 41.5t19.5 62t6 77.5z" />
    <glyph glyph-name="ydieresis" unicode="&#xff;" horiz-adv-x="492" 
d="M515 449q-21 0 -32 -10.5t-16 -17.5q-2 -3 -5.5 -11t-7 -16.5t-7 -16.5t-4.5 -12l-175 -481q-10 -27 -22 -54t-31.5 -49t-49 -35.5t-73.5 -13.5q-74 0 -112 33v9l47 65h9q9 -25 25.5 -39.5t41.5 -14.5q22 0 37.5 8t27.5 23.5t21.5 37.5t20.5 50l17 46l-174 426
q-4 9 -9.5 22t-10.5 24q-1 1 -3.5 6t-7.5 9.5t-14 8t-22 3.5v18q12 -1 29 -1.5t35 -1t35 -1t28 -0.5t27 0.5t33 1t33 1t27 1.5v-18q-10 0 -19 -2t-17 -7q-13 -8 -13 -24q0 -10 4 -22.5t12 -33.5l58 -147q14 -35 23 -62.5t14 -46.5l78 252q7 20 11 35.5t4 25.5q0 16 -10 23
q-13 9 -35 9v18q22 -2 40 -3t40 -1q23 0 46 1t46 3v-18zM245 609q0 -31 -17.5 -47.5t-48.5 -16.5q-30 0 -47 16.5t-17 46.5q0 32 17 48.5t49 16.5q30 0 47 -17t17 -47zM434 609q0 -31 -17.5 -47.5t-48.5 -16.5q-30 0 -47 16.5t-17 46.5q0 32 17 48.5t49 16.5q30 0 47 -17
t17 -47z" />
    <glyph glyph-name="OE" unicode="&#x152;" horiz-adv-x="934" 
d="M889 140q-2 -17 -2.5 -41t-0.5 -46v-53h-392q-16 -3 -36 -5q-17 -2 -42 -3t-55 -1q-78 0 -139.5 22.5t-104 64.5t-65 102.5t-22.5 137.5q0 78 24 141.5t68 109t107 70t141 24.5q27 0 49 -1t38 -3q18 -2 33 -4h393v-47q0 -20 0.5 -42.5t2.5 -39.5h-21q-1 26 -10.5 43
t-23.5 25q-8 5 -16.5 8t-20.5 4.5t-28 2t-39 0.5h-82v-245h84q27 0 47 3t34 14q23 18 26 59h21q0 -8 -0.5 -16t-0.5 -18.5t-0.5 -25.5t-0.5 -39v-38t0.5 -25t1 -17.5t0.5 -16.5h-21q-2 20 -7.5 33t-14.5 21q-16 14 -38.5 17t-48.5 3h-82v-221q0 -17 2 -27t8.5 -15.5t19 -7
t32.5 -1.5h17q42 0 71.5 4t48.5 23q10 10 16.5 27t7.5 40h21zM507 593q-12 7 -30 13q-15 5 -38 9t-53 4q-49 0 -87.5 -15t-64.5 -50q-18 -24 -28.5 -53t-16.5 -59.5t-8 -60t-2 -54.5q0 -33 3.5 -67.5t12 -67.5t22.5 -62t36 -51q21 -21 52 -32.5t86 -11.5q29 0 50 4t36 9
q17 5 30 13v532z" />
    <glyph glyph-name="oe" unicode="&#x153;" horiz-adv-x="837" 
d="M521 261v-2q0 -28 3 -53.5t9 -45.5q11 -36 30.5 -57t42 -31.5t46 -13t43.5 -2.5t37 3t29 7q14 4 25 11l10 -13q-16 -20 -41 -36q-22 -14 -55 -24.5t-81 -10.5q-18 0 -40.5 2t-46 9t-45 19.5t-37.5 32.5q-60 -66 -176 -66q-62 0 -107.5 17t-76 48.5t-45.5 75.5t-15 97
q0 32 9.5 74.5t37 81t77.5 65t132 26.5q55 0 100 -17t73 -50q26 32 65.5 49t96.5 17q39 0 66 -8t46 -19.5t29.5 -24t16.5 -20.5q22 -32 27.5 -66t5.5 -69v-6h-291zM675 314q0 26 -3 48.5t-11.5 39t-23.5 25.5t-38 9q-44 0 -60.5 -31t-16.5 -100h153v9zM383 233
q0 73 -11.5 113.5t-27.5 60.5t-34.5 24.5t-31.5 4.5q-10 0 -26 -3.5t-32 -20.5q-9 -10 -17 -24.5t-13.5 -35.5t-9 -50.5t-3.5 -69.5q0 -73 11.5 -113.5t27.5 -60.5t34 -24.5t32 -4.5q10 0 26 3.5t32 20.5q9 10 17 24.5t13.5 35.5t9 50.5t3.5 69.5z" />
    <glyph glyph-name="Scaron" unicode="&#x160;" horiz-adv-x="484" 
d="M444 185q0 -50 -19 -86.5t-52.5 -59.5t-79.5 -34t-101 -11q-35 0 -79 5t-79 16v16q0 35 -1 61t-3 48h21q3 -23 11 -41.5t24 -30.5q20 -17 47.5 -22t53.5 -5q48 0 74.5 13.5t39 31.5t15 35t2.5 25q0 24 -7.5 41.5t-20.5 31.5t-30.5 25.5t-38.5 24.5l-56 35
q-27 17 -49 34.5t-37.5 39t-24 48t-8.5 62.5q0 19 7 48.5t31 57.5t70 48.5t124 20.5q34 0 62.5 -2t48.5 -4q24 -3 43 -5q-1 -7 -2 -15t-1 -17.5v-21.5v-35t1 -22q0 -10 1 -15h-21q-3 35 -27 59q-20 20 -49 26t-53 6q-39 0 -61.5 -10t-34.5 -24t-15.5 -30t-3.5 -29
q0 -39 21.5 -62t62.5 -47l64 -38q30 -18 54.5 -36t41 -40t25.5 -50t9 -66zM397 857l14 -17l-123 -131l-7 -2h-27l-7 2l-123 131l14 17l130 -61z" />
    <glyph glyph-name="scaron" unicode="&#x161;" horiz-adv-x="412" 
d="M372 138q0 -12 -4.5 -36t-23.5 -48t-58 -42.5t-109 -18.5q-38 0 -74.5 4.5t-62.5 14.5v26q0 18 -0.5 30.5t-1 22.5t-1.5 18.5t-2 19.5h21q2 -23 9.5 -39.5t21.5 -29.5q30 -27 81 -27q13 0 28.5 2.5t28.5 9t21.5 18.5t8.5 32q0 28 -17 42.5t-38 27.5l-72 43
q-46 28 -63.5 56.5t-17.5 70.5q0 17 6.5 40.5t25 45.5t53 37t91.5 15q32 0 57 -1.5t42 -3.5q19 -3 34 -5q-1 -4 -1.5 -13t-1 -18.5t-0.5 -17v-7.5q1 -20 0.5 -32t1.5 -23h-21q-1 34 -24 58q-10 11 -28.5 18t-48.5 7q-6 0 -18.5 -1t-24.5 -6.5t-21 -17.5t-9 -33
q0 -26 15.5 -41t40.5 -29l69 -39q10 -6 25 -15.5t28.5 -24.5t23.5 -37t10 -53zM254 525l-6 -4h-53l-6 4l-103 158l16 15l120 -79l120 79l16 -15z" />
    <glyph glyph-name="Ydieresis" unicode="&#x178;" horiz-adv-x="549" 
d="M593 640q-21 -2 -32 -12.5t-19 -18.5q-5 -6 -16.5 -23t-29.5 -49l-143 -253v-142q0 -47 2.5 -68t10.5 -31q6 -9 16.5 -14t21.5 -8t20 -3.5t13 -0.5v-19q-15 1 -36 1.5t-42.5 1t-42 1t-33.5 0.5t-33.5 -0.5t-42.5 -1t-43 -1t-36 -1.5v18q3 0 11.5 1t19 3.5t21 7t17.5 12.5
q6 7 10 16.5t5.5 24t2 36.5t0.5 54v93l-149 276q-23 42 -35.5 60t-18.5 24q-11 11 -18.5 13t-18.5 3v18q9 -1 25 -1.5t34 -1t37 -1t35 -0.5h34t39.5 0.5t36 1.5t25.5 2v-18q-8 0 -19 -2.5t-19 -8.5q-12 -10 -12 -24q0 -13 5.5 -25t11.5 -23l117 -224l106 219q4 8 11 24t7 30
t-8 21q-6 6 -16 8.5t-24 4.5v18q14 -2 41 -3t56 -1q21 0 47 1t48 3v-18zM280 777q0 -31 -17.5 -47.5t-48.5 -16.5q-30 0 -47 16.5t-17 46.5q0 32 17 48.5t49 16.5q30 0 47 -17t17 -47zM469 777q0 -31 -17.5 -47.5t-48.5 -16.5q-30 0 -47 16.5t-17 46.5q0 32 17 48.5t49 16.5
q30 0 47 -17t17 -47z" />
    <glyph glyph-name="Zcaron" unicode="&#x17d;" horiz-adv-x="561" 
d="M183 48h192q36 0 66.5 5.5t48.5 28.5q15 19 17 58h21q-2 -17 -2.5 -41t-0.5 -46v-53h-501v33l348 573h-162q-43 0 -68.5 -4t-42.5 -19q-11 -9 -17 -23t-6 -34h-21q2 17 2.5 39t0.5 42v47h477v-30zM419 857l14 -17l-123 -131l-7 -2h-27l-7 2l-123 131l14 17l130 -61z" />
    <glyph glyph-name="zcaron" unicode="&#x17e;" horiz-adv-x="447" 
d="M419 129q-2 -17 -2.5 -39.5t-0.5 -42.5v-47h-392v33l240 392h-81q-42 0 -62.5 -4t-34.5 -16q-9 -8 -14.5 -22t-6.5 -31h-21q2 17 2.5 37t0.5 37v39h370v-28l-242 -393h99q31 0 54.5 2.5t40.5 14.5q13 10 20 25.5t9 42.5h21zM261 525l-6 -4h-53l-6 4l-103 158l16 15
l120 -79l120 79l16 -15z" />
    <glyph glyph-name="florin" unicode="&#x192;" horiz-adv-x="548" 
d="M526 617h-10q-2 5 -5 18.5t-12 28t-25 25.5t-43 11q-26 0 -41 -11t-24 -32t-13.5 -52.5t-10.5 -72.5q-1 -12 -3 -25q-2 -11 -4 -25t-4 -29h108l-6 -41h-107l-33 -239q-11 -76 -19.5 -132.5t-18 -99t-21.5 -72.5t-29 -53q-23 -32 -57.5 -48t-75.5 -16q-57 0 -85.5 9.5
t-41.5 19.5v10l45 69h10q2 -5 4 -16.5t8 -24t19.5 -22t39.5 -9.5q23 0 34 10t17 24q13 26 21 83.5t18 132.5l48 373h-64l4 21q21 2 34 8.5t21 16.5q12 16 15.5 37.5t7.5 45.5q5 34 14.5 68.5t35.5 66.5q20 26 60.5 43t91.5 17q64 0 102 -10.5t47 -17.5v-10z" />
    <glyph glyph-name="circumflex" unicode="&#x2c6;" 
d="M386 536l-16 -15l-120 79l-120 -79l-16 15l103 158l6 4h53l6 -4z" />
    <glyph glyph-name="tilde" unicode="&#x2dc;" 
d="M423 633q-14 -35 -29.5 -55.5t-30 -32t-26 -15t-16.5 -3.5q-14 0 -27.5 2t-37.5 12l-48 20q-8 4 -19.5 7t-25.5 3h-1q-14 0 -25.5 -4t-25.5 -24l-24 12q12 35 27.5 56.5t30 33t26.5 15t17 3.5q14 0 26.5 -2.5t36.5 -11.5l53 -20q27 -10 41 -10q17 0 28.5 5t24.5 23z" />
    <glyph glyph-name="endash" unicode="&#x2013;" horiz-adv-x="423" 
d="M0 208v72h423v-72h-423z" />
    <glyph glyph-name="emdash" unicode="&#x2014;" horiz-adv-x="735" 
d="M0 208v72h735v-72h-735z" />
    <glyph glyph-name="quoteleft" unicode="&#x2018;" horiz-adv-x="218" 
d="M188 449q0 -34 -22 -53t-54 -19q-8 0 -21.5 2.5t-27 12.5t-23.5 29.5t-10 54.5q0 63 34.5 119t102.5 88l11 -13q-24 -28 -37 -55.5t-13 -61.5q0 -20 8 -28.5t17 -13.5q35 -21 35 -62z" />
    <glyph glyph-name="quoteright" unicode="&#x2019;" horiz-adv-x="218" 
d="M188 584q0 -63 -35 -119t-102 -88l-12 13q25 28 37.5 55.5t12.5 61.5q0 20 -8 28.5t-17 13.5q-34 22 -34 62q0 34 22 53t54 19q7 0 21 -2.5t27.5 -12.5t23.5 -30t10 -54z" />
    <glyph glyph-name="quotesinglbase" unicode="&#x201a;" horiz-adv-x="218" 
d="M188 44q0 -63 -35 -119t-102 -88l-12 13q25 28 37.5 55.5t12.5 61.5q0 20 -8 28.5t-17 13.5q-34 22 -34 62q0 34 22 53t54 19q7 0 21 -2.5t27.5 -12.5t23.5 -30t10 -54z" />
    <glyph glyph-name="quotedblleft" unicode="&#x201c;" horiz-adv-x="438" 
d="M408 450q0 -34 -22 -53t-54 -19q-8 0 -21.5 2.5t-27 12.5t-23.5 29.5t-10 54.5q0 63 34.5 119t102.5 88l11 -13q-24 -28 -37 -55.5t-13 -61.5q0 -20 8 -28.5t17 -13.5q35 -21 35 -62zM188 450q0 -34 -22 -53t-54 -19q-8 0 -21.5 2.5t-27 12.5t-23.5 29.5t-10 54.5
q0 63 34.5 119t102.5 88l11 -13q-24 -28 -37 -55.5t-13 -61.5q0 -20 8 -28.5t17 -13.5q35 -21 35 -62z" />
    <glyph glyph-name="quotedblright" unicode="&#x201d;" horiz-adv-x="438" 
d="M408 582q0 -63 -35 -119t-102 -88l-12 13q25 28 37.5 55.5t12.5 61.5q0 20 -8 28.5t-17 13.5q-34 22 -34 63q0 33 22 52t54 19q7 0 21 -2.5t27.5 -12.5t23.5 -30t10 -54zM188 582q0 -63 -35 -119t-102 -88l-12 13q25 28 37.5 55.5t12.5 61.5q0 20 -8 28.5t-17 13.5
q-34 22 -34 63q0 33 22 52t54 19q7 0 21 -2.5t27.5 -12.5t23.5 -30t10 -54z" />
    <glyph glyph-name="quotedblbase" unicode="&#x201e;" horiz-adv-x="448" 
d="M418 44q0 -63 -35 -119t-102 -88l-12 13q25 28 37.5 55.5t12.5 61.5q0 20 -8 28.5t-17 13.5q-34 22 -34 62q0 34 22 53t54 19q7 0 21 -2.5t27.5 -12.5t23.5 -30t10 -54zM198 44q0 -63 -35 -119t-102 -88l-12 13q25 28 37.5 55.5t12.5 61.5q0 20 -8 28.5t-17 13.5
q-34 22 -34 62q0 34 22 53t54 19q7 0 21 -2.5t27.5 -12.5t23.5 -30t10 -54z" />
    <glyph glyph-name="dagger" unicode="&#x2020;" horiz-adv-x="407" 
d="M220 432l42 -115v-121q0 -50 -5.5 -102t-13.5 -101t-18.5 -91.5t-20.5 -74.5q-10 32 -20.5 74.5t-18.5 91.5t-13.5 101t-5.5 102v121l42 115l-168 -42v117l168 -42l-46 183h125l-47 -183l167 42v-117z" />
    <glyph glyph-name="daggerdbl" unicode="&#x2021;" horiz-adv-x="407" 
d="M220 -33l45 -182h-125l46 182l-166 -41v117l166 -41l-39 114v228l40 114l-167 -41v117l167 -41l-45 182h125l-46 -182l166 41v-117l-166 41l39 -114v-228l-40 -114l167 41v-117z" />
    <glyph glyph-name="bullet" unicode="&#x2022;" horiz-adv-x="496" 
d="M396 233q0 -31 -11.5 -58t-31 -46.5t-46.5 -30.5t-58 -11t-58 10.5t-47.5 30t-32 46t-11.5 59.5q0 31 11.5 58t31 46.5t46.5 30.5t58 11t58 -10.5t47.5 -30t32 -46.5t11.5 -59z" />
    <glyph glyph-name="ellipsis" unicode="&#x2026;" horiz-adv-x="917" 
d="M887 66q0 -31 -19.5 -54.5t-61.5 -23.5t-61 23.5t-19 55.5q0 31 19.5 54.5t61.5 23.5t61 -23.5t19 -55.5zM544 66q0 -31 -19.5 -54.5t-61.5 -23.5t-61 23.5t-19 55.5q0 31 19.5 54.5t61.5 23.5t61 -23.5t19 -55.5zM201 66q0 -31 -19.5 -54.5t-61.5 -23.5t-61 23.5
t-19 55.5q0 31 19.5 54.5t61.5 23.5t61 -23.5t19 -55.5z" />
    <glyph glyph-name="perthousand" unicode="&#x2030;" horiz-adv-x="1027" 
d="M1006 145q0 -71 -41.5 -113.5t-113.5 -42.5q-71 0 -112.5 41t-41.5 109q0 71 41.5 114t113.5 43q71 0 112.5 -41.5t41.5 -109.5zM340 508q0 -71 -41.5 -113.5t-113.5 -42.5q-71 0 -112.5 41t-41.5 109q0 71 41.5 114t113.5 43q71 0 112.5 -41.5t41.5 -109.5zM103 0h-82
l552 648h82zM645 145q0 -71 -41.5 -113.5t-113.5 -42.5q-71 0 -112.5 41t-41.5 109q0 71 41.5 114t113.5 43q71 0 112.5 -41.5t41.5 -109.5zM933 144q0 49 -25 72t-56 23t-56.5 -23t-25.5 -75q0 -25 7 -43t18 -29.5t26 -17t30 -5.5t30 5.5t26.5 17.5t18.5 30.5t7 44.5z
M267 507q0 49 -25 72t-56 23t-56.5 -23t-25.5 -75q0 -25 7 -43t18 -29.5t26 -17t30 -5.5t30 5.5t26.5 17.5t18.5 30.5t7 44.5zM572 144q0 49 -25 72t-56 23t-56.5 -23t-25.5 -75q0 -25 7 -43t18 -29.5t26 -17t30 -5.5t30 5.5t26.5 17.5t18.5 30.5t7 44.5z" />
    <glyph glyph-name="guilsinglleft" unicode="&#x2039;" horiz-adv-x="252" 
d="M114 31l-94 203l94 203h93l-82 -203l82 -203h-93z" />
    <glyph glyph-name="guilsinglright" unicode="&#x203a;" horiz-adv-x="252" 
d="M139 31h-94l82 203l-82 203h94l93 -203z" />
    <glyph glyph-name="Euro" unicode="&#x20ac;" horiz-adv-x="519" 
d="M513 34q-17 -12 -60 -26t-121 -14q-69 0 -117.5 19.5t-80.5 54.5t-49 83t-23 105h-51v45h48v20v17t1 23h-49v45h54q6 39 21.5 84t48 83.5t84.5 64t132 25.5q22 0 45 -2t44 -6t39 -10t30 -15v-9l-51 -73h-10q-3 8 -10 20.5t-19 24t-30.5 19.5t-45.5 8q-24 0 -47.5 -8
t-42.5 -31t-32.5 -65t-17.5 -110h213v-45h-215v-32v-28h215v-45h-214q5 -110 37 -164t101 -54q46 0 72.5 26t37.5 59h10l53 -80v-9z" />
    <glyph glyph-name="trademark" unicode="&#x2122;" horiz-adv-x="809" 
d="M776 312q-20 1 -40 1.5t-37 0.5t-33.5 -0.5t-36.5 -1.5v13q7 1 17.5 3.5t18.5 10.5q7 8 8 18.5t1 20.5q0 11 -0.5 21.5t-0.5 17.5l-7 189q-15 -37 -36.5 -87.5t-41.5 -96.5q-24 -55 -48 -111h-15q-25 60 -49 116q-10 24 -21 49.5t-21 50.5t-19.5 48t-16.5 42
q-1 -17 -2 -51l-2 -68q-2 -40 -3 -85q0 -8 -0.5 -19t-0.5 -21q0 -11 1 -17.5t6 -14.5q4 -5 13.5 -9.5t24.5 -6.5v-13q-19 1 -31.5 1.5t-29.5 0.5t-31.5 -0.5t-33.5 -1.5v13q6 1 17.5 4t19.5 11q8 10 9.5 33t3.5 54l8 170q0 6 0.5 16t0.5 21t-2 19t-7 13q-9 8 -33 8v15
q20 -1 32 -1.5t27 -0.5q7 0 18 0.5t20 1.5l122 -296l125 296q8 -2 16 -2h18h27t28 2v-14q-25 -2 -33 -8q-6 -5 -8 -14.5t-2 -20.5q0 -10 0.5 -19.5t0.5 -15.5l8 -190q2 -30 3.5 -43t7.5 -22q3 -4 12.5 -9.5t27.5 -7.5v-13zM279 610q-1 9 -3 21t-8 20q-10 11 -27 11h-30h-35
v-255q0 -31 2 -44t7 -21q9 -14 40 -17v-13q-19 1 -38.5 1.5t-36.5 0.5t-37 -0.5t-39 -1.5v13q6 1 17.5 3.5t19.5 10.5q8 9 9.5 27.5t1.5 59.5v236h-34h-30.5t-26.5 -11q-6 -8 -8 -20t-3 -21h-15q1 11 1.5 24.5t0.5 25.5v27h285v-27v-25.5t2 -24.5h-15z" />
    </font>
</defs>
</svg>
